<?xml version="1.0" encoding="UTF-8"?>
<svg id="Capa_1" data-name="Capa 1" xmlns="http://www.w3.org/2000/svg" viewBox="0 0 799.56 595.28">
  <defs>
    <style>
      .cls-1 {
        fill: #565656;
      }

      .cls-2 {
        stroke-linecap: round;
        stroke-linejoin: round;
        stroke-width: 3.5px;
      }

      .cls-2, .cls-3 {
        fill: #bfbfbf;
        stroke: #999;
      }

      .cls-4 {
        fill: #e5e5e5;
      }

      .cls-3 {
        stroke-miterlimit: 10;
      }

      .cls-5 {
        opacity: .17;
      }
    </style>
  </defs>
  <g id="huellas" class="cls-5">
    <g>
      <path class="cls-1" d="m284.58,295.32c.33-2.32,1.16-4.62,2.36-6.55,6.57-10.55,20.39-10.3,27.58-.77,1.85,2.45,3.26,5.5,3.59,8.8.33,3.31-.54,6.87-2.59,9.07-2.05,2.2-5.31,2.73-7.58.87-.94-.77-1.85-1.87-2.42-2.93-.61-1.14-1.23-2.33-2.49-2.85-.54-.23-1.14-.3-1.73-.27-1.87.08-3.38,1.02-4.22,2.64-.7,1.35-1.43,2.88-2.9,3.52-1.01.44-2.12.41-3.17.14-5.48-1.4-7.17-6.57-6.44-11.67Z"/>
      <g>
        <g>
          <path class="cls-1" d="m292.2,268.32c-4.63,1.72-5.6,8.5-.66,10.5,2.09.85,4.68.27,6.21-1.4,1.53-1.66,1.89-4.29.87-6.31-1.12-2.21-4.02-3.7-6.42-2.8Z"/>
          <path class="cls-1" d="m306.92,268.32c-4.63,1.72-5.6,8.5-.66,10.5,2.09.85,4.68.27,6.21-1.4s1.89-4.29.87-6.31c-1.12-2.21-4.02-3.7-6.42-2.8Z"/>
        </g>
        <path class="cls-1" d="m319.12,277.86c-3.87.86-5.02,6.03-2.16,8.7,2.13,1.98,5.95,1.69,7.75-.6,3.24-4.13-.9-9.14-5.59-8.1Z"/>
        <path class="cls-1" d="m280.48,277.86c-3.87.86-5.02,6.03-2.16,8.7,2.13,1.98,5.95,1.69,7.75-.6,3.24-4.13-.9-9.14-5.59-8.1Z"/>
      </g>
    </g>
    <g>
      <path class="cls-1" d="m18.72,248.53c-.3-2.32-.12-4.76.51-6.94,3.49-11.93,16.87-15.4,26.36-8.16,2.44,1.86,4.62,4.42,5.82,7.51,1.21,3.1,1.33,6.76-.05,9.43s-4.38,4.06-7.06,2.88c-1.11-.49-2.28-1.3-3.12-2.17-.9-.94-1.81-1.91-3.17-2.08-.58-.07-1.18.02-1.74.21-1.78.59-2.99,1.89-3.35,3.68-.31,1.49-.6,3.16-1.85,4.17-.85.69-1.93.96-3.01.99-5.66.12-8.67-4.4-9.34-9.51Z"/>
      <g>
        <g>
          <path class="cls-1" d="m18.8,220.47c-4,2.9-3.1,9.69,2.19,10.29,2.24.25,4.58-1,5.61-3.02,1.02-2.01.67-4.64-.86-6.31-1.67-1.83-4.86-2.48-6.94-.97Z"/>
          <path class="cls-1" d="m32.97,216.51c-4,2.9-3.1,9.69,2.19,10.29,2.24.25,4.58-1,5.61-3.02,1.02-2.01.67-4.64-.86-6.31-1.67-1.83-4.86-2.48-6.94-.97Z"/>
        </g>
        <path class="cls-1" d="m47.29,222.42c-3.5,1.87-3.22,7.16.26,8.96,2.59,1.34,6.18.02,7.3-2.66,2.01-4.85-3.33-8.56-7.56-6.3Z"/>
        <path class="cls-1" d="m10.07,232.82c-3.5,1.87-3.22,7.16.26,8.96,2.59,1.34,6.18.02,7.3-2.66,2.01-4.85-3.33-8.56-7.56-6.3Z"/>
      </g>
    </g>
    <g>
      <path class="cls-1" d="m122.05,367.32c.94-2.14,2.36-4.14,4.04-5.67,9.17-8.39,22.41-4.43,26.77,6.68,1.12,2.86,1.66,6.17,1.09,9.44-.57,3.27-2.37,6.47-4.93,8.04-2.57,1.57-5.85,1.2-7.53-1.2-.7-1-1.28-2.29-1.54-3.47-.28-1.26-.56-2.57-1.63-3.42-.46-.36-1.02-.59-1.59-.72-1.83-.42-3.53.07-4.78,1.41-1.03,1.11-2.15,2.39-3.74,2.61-1.09.15-2.15-.18-3.09-.72-4.9-2.83-5.14-8.26-3.06-12.98Z"/>
      <g>
        <g>
          <path class="cls-1" d="m136.66,343.37c-4.92.41-7.68,6.68-3.46,9.94,1.79,1.38,4.44,1.52,6.36.33s2.98-3.62,2.54-5.84c-.48-2.43-2.87-4.64-5.43-4.43Z"/>
          <path class="cls-1" d="m150.83,347.33c-4.92.41-7.68,6.68-3.46,9.94,1.79,1.38,4.44,1.52,6.36.33,1.92-1.19,2.98-3.62,2.54-5.84-.48-2.43-2.87-4.64-5.43-4.43Z"/>
        </g>
        <path class="cls-1" d="m160.02,359.8c-3.96-.22-6.46,4.46-4.42,7.8,1.52,2.48,5.28,3.23,7.63,1.51,4.24-3.1,1.59-9.04-3.21-9.31Z"/>
        <path class="cls-1" d="m122.8,349.4c-3.96-.22-6.46,4.46-4.42,7.8,1.52,2.48,5.28,3.23,7.63,1.51,4.24-3.1,1.59-9.04-3.21-9.31Z"/>
      </g>
    </g>
    <g>
      <path class="cls-1" d="m623.13,260.99c.33-2.32,1.16-4.62,2.36-6.55,6.57-10.55,20.39-10.3,27.58-.77,1.85,2.45,3.26,5.5,3.59,8.8.33,3.31-.54,6.87-2.59,9.07-2.05,2.2-5.31,2.73-7.58.87-.94-.77-1.85-1.87-2.42-2.93-.61-1.14-1.23-2.33-2.49-2.85-.54-.23-1.14-.3-1.73-.27-1.87.08-3.38,1.02-4.22,2.64-.7,1.35-1.43,2.88-2.9,3.52-1.01.44-2.12.41-3.17.14-5.48-1.4-7.17-6.57-6.44-11.67Z"/>
      <g>
        <g>
          <path class="cls-1" d="m630.75,233.99c-4.63,1.72-5.6,8.5-.66,10.5,2.09.85,4.68.27,6.21-1.4,1.53-1.66,1.89-4.29.87-6.31-1.12-2.21-4.02-3.7-6.42-2.8Z"/>
          <path class="cls-1" d="m645.47,233.99c-4.63,1.72-5.6,8.5-.66,10.5,2.09.85,4.68.27,6.21-1.4s1.89-4.29.87-6.31c-1.12-2.21-4.02-3.7-6.42-2.8Z"/>
        </g>
        <path class="cls-1" d="m657.67,243.53c-3.87.86-5.02,6.03-2.16,8.7,2.13,1.98,5.95,1.69,7.75-.6,3.24-4.13-.9-9.14-5.59-8.1Z"/>
        <path class="cls-1" d="m619.03,243.53c-3.87.86-5.02,6.03-2.16,8.7,2.13,1.98,5.95,1.69,7.75-.6,3.24-4.13-.9-9.14-5.59-8.1Z"/>
      </g>
    </g>
    <g>
      <path class="cls-1" d="m414.64,237.36c1.19-2.01,2.84-3.83,4.68-5.15,10.1-7.24,22.78-1.74,25.79,9.81.77,2.97.91,6.32-.04,9.5-.96,3.18-3.12,6.14-5.85,7.39-2.73,1.25-5.96.5-7.34-2.09-.57-1.07-1-2.43-1.12-3.63-.13-1.29-.25-2.62-1.21-3.59-.41-.42-.94-.71-1.49-.91-1.76-.64-3.51-.35-4.91.83-1.16.98-2.42,2.12-4.02,2.15-1.1.02-2.11-.43-2.98-1.08-4.53-3.39-4.12-8.81-1.5-13.25Z"/>
      <g>
        <g>
          <path class="cls-1" d="m431.99,215.32c-4.93-.18-8.42,5.72-4.62,9.46,1.61,1.58,4.23,2.03,6.27,1.08,2.05-.95,3.39-3.25,3.21-5.5-.19-2.47-2.3-4.95-4.87-5.04Z"/>
          <path class="cls-1" d="m445.6,220.94c-4.93-.18-8.42,5.72-4.62,9.46,1.61,1.58,4.23,2.03,6.27,1.08,2.05-.95,3.39-3.25,3.21-5.5-.19-2.47-2.3-4.95-4.87-5.04Z"/>
        </g>
        <path class="cls-1" d="m453.23,234.41c-3.91-.69-6.95,3.66-5.32,7.22,1.21,2.65,4.86,3.83,7.39,2.4,4.57-2.58,2.65-8.79-2.08-9.62Z"/>
        <path class="cls-1" d="m417.52,219.66c-3.91-.69-6.95,3.66-5.32,7.22,1.21,2.65,4.86,3.83,7.39,2.4,4.57-2.58,2.65-8.79-2.08-9.62Z"/>
      </g>
    </g>
    <g>
      <path class="cls-1" d="m527.56,377.93c-.58-2.27-.69-4.71-.32-6.95,2.03-12.26,14.89-17.32,25.19-11.27,2.65,1.56,5.11,3.83,6.68,6.76,1.57,2.93,2.13,6.55,1.08,9.37-1.05,2.82-3.86,4.56-6.67,3.71-1.16-.35-2.42-1.02-3.35-1.78-1-.82-2.02-1.68-3.4-1.68-.59,0-1.17.16-1.7.41-1.7.8-2.74,2.23-2.89,4.06-.13,1.52-.21,3.21-1.33,4.36-.76.79-1.8,1.19-2.87,1.34-5.6.8-9.14-3.33-10.42-8.32Z"/>
      <g>
        <g>
          <path class="cls-1" d="m524.27,350.07c-3.62,3.36-1.92,10,3.41,9.96,2.26-.02,4.43-1.55,5.2-3.67.78-2.12.11-4.69-1.61-6.16-1.88-1.61-5.13-1.88-7.01-.13Z"/>
          <path class="cls-1" d="m537.87,344.43c-3.62,3.36-1.92,10,3.41,9.96,2.26-.02,4.43-1.55,5.2-3.67.78-2.12.11-4.69-1.61-6.16-1.88-1.61-5.13-1.88-7.01-.13Z"/>
        </g>
        <path class="cls-1" d="m552.79,348.58c-3.25,2.27-2.33,7.5,1.34,8.87,2.73,1.02,6.14-.72,6.93-3.52,1.42-5.05-4.33-8.1-8.27-5.34Z"/>
        <path class="cls-1" d="m517.09,363.37c-3.25,2.27-2.33,7.5,1.34,8.86,2.73,1.02,6.14-.72,6.93-3.52,1.42-5.05-4.33-8.1-8.27-5.34Z"/>
      </g>
    </g>
    <g>
      <path class="cls-1" d="m276.95,143.05c-.45-2.3-.42-4.74.08-6.96,2.74-12.12,15.87-16.43,25.8-9.79,2.55,1.71,4.88,4.12,6.28,7.13,1.4,3.01,1.75,6.66.53,9.42-1.21,2.75-4.12,4.33-6.87,3.31-1.14-.42-2.36-1.15-3.25-1.97-.95-.88-1.92-1.79-3.29-1.88-.59-.04-1.18.1-1.72.31-1.74.7-2.86,2.07-3.12,3.88-.21,1.51-.4,3.19-1.58,4.28-.81.74-1.87,1.08-2.95,1.17-5.64.48-8.93-3.85-9.92-8.91Z"/>
      <g>
        <g>
          <path class="cls-1" d="m275.29,115.05c-3.81,3.14-2.49,9.87,2.83,10.14,2.26.11,4.51-1.29,5.41-3.36.9-2.07.38-4.68-1.25-6.24-1.78-1.72-5.01-2.17-6.99-.54Z"/>
          <path class="cls-1" d="m289.19,110.21c-3.81,3.14-2.49,9.87,2.83,10.14,2.26.11,4.51-1.29,5.41-3.36.9-2.07.38-4.68-1.25-6.24-1.78-1.72-5.01-2.17-6.99-.54Z"/>
        </g>
        <path class="cls-1" d="m303.85,115.21c-3.38,2.08-2.76,7.35.82,8.93,2.66,1.17,6.17-.36,7.12-3.11,1.71-4.96-3.85-8.33-7.94-5.81Z"/>
        <path class="cls-1" d="m267.35,127.91c-3.38,2.08-2.76,7.35.82,8.93,2.66,1.17,6.17-.36,7.12-3.11,1.71-4.96-3.85-8.33-7.94-5.81Z"/>
      </g>
    </g>
    <g>
      <path class="cls-1" d="m14.65,37.44c1.41-1.87,3.25-3.49,5.23-4.6,10.85-6.08,22.83.81,24.53,12.63.44,3.04.2,6.39-1.1,9.44-1.31,3.05-3.78,5.76-6.64,6.7-2.86.94-5.97-.17-7.06-2.89-.45-1.13-.72-2.52-.7-3.73.02-1.3.05-2.63-.81-3.7-.37-.46-.86-.81-1.38-1.07-1.68-.83-3.45-.74-4.97.28-1.26.85-2.64,1.84-4.24,1.69-1.09-.1-2.05-.67-2.84-1.4-4.13-3.87-3.11-9.22-.01-13.33Z"/>
      <g>
        <g>
          <path class="cls-1" d="m34.35,17.47c-4.88-.73-9,4.75-5.64,8.88,1.42,1.75,3.97,2.49,6.11,1.77,2.14-.72,3.73-2.85,3.8-5.1.08-2.47-1.74-5.17-4.28-5.55Z"/>
          <path class="cls-1" d="m47.24,24.57c-4.88-.73-9,4.75-5.64,8.88,1.42,1.75,3.97,2.49,6.11,1.77,2.14-.72,3.73-2.85,3.8-5.1.08-2.47-1.74-5.17-4.28-5.55Z"/>
        </g>
        <path class="cls-1" d="m53.33,38.81c-3.81-1.12-7.31,2.86-6.09,6.58.91,2.77,4.4,4.35,7.08,3.21,4.83-2.05,3.62-8.44-.99-9.79Z"/>
        <path class="cls-1" d="m19.48,20.17c-3.81-1.12-7.31,2.86-6.09,6.58.91,2.77,4.4,4.35,7.08,3.21,4.83-2.05,3.62-8.44-.99-9.79Z"/>
      </g>
    </g>
    <g>
      <path class="cls-1" d="m122.02,169.21c.97-2.13,2.41-4.11,4.11-5.62,9.27-8.28,22.46-4.15,26.68,7.02,1.09,2.87,1.58,6.19.97,9.45-.62,3.26-2.45,6.44-5.03,7.97-2.59,1.54-5.87,1.13-7.52-1.29-.68-1-1.25-2.31-1.5-3.49-.27-1.27-.52-2.58-1.59-3.44-.46-.37-1.01-.6-1.58-.74-1.82-.45-3.53.02-4.79,1.35-1.05,1.1-2.18,2.37-3.77,2.56-1.09.14-2.15-.21-3.08-.76-4.87-2.89-5.03-8.32-2.9-13.01Z"/>
      <g>
        <g>
          <path class="cls-1" d="m136.92,145.44c-4.93.35-7.76,6.58-3.59,9.89,1.77,1.4,4.42,1.57,6.35.41,1.93-1.17,3.02-3.59,2.61-5.81-.45-2.43-2.82-4.68-5.38-4.5Z"/>
          <path class="cls-1" d="m151.05,149.58c-4.93.35-7.76,6.58-3.59,9.89,1.77,1.4,4.42,1.57,6.35.41s3.02-3.59,2.61-5.81c-.45-2.43-2.82-4.68-5.38-4.5Z"/>
        </g>
        <path class="cls-1" d="m160.08,162.17c-3.96-.27-6.52,4.38-4.52,7.74,1.49,2.5,5.24,3.29,7.61,1.6,4.27-3.05,1.7-9.02-3.09-9.35Z"/>
        <path class="cls-1" d="m122.99,151.3c-3.96-.27-6.52,4.38-4.52,7.74,1.49,2.5,5.24,3.29,7.61,1.6,4.27-3.05,1.7-9.02-3.09-9.35Z"/>
      </g>
    </g>
    <g>
      <path class="cls-1" d="m209.28,23.77c.97-2.13,2.41-4.11,4.11-5.62,9.27-8.28,22.46-4.15,26.68,7.02,1.09,2.87,1.58,6.19.97,9.45-.62,3.26-2.45,6.44-5.03,7.97s-5.87,1.13-7.52-1.29c-.68-1-1.25-2.31-1.5-3.49-.27-1.27-.52-2.58-1.59-3.44-.46-.37-1.01-.6-1.58-.74-1.82-.45-3.53.02-4.79,1.35-1.05,1.1-2.18,2.37-3.77,2.56-1.09.14-2.15-.21-3.08-.76-4.87-2.89-5.03-8.32-2.9-13.01Z"/>
      <g>
        <g>
          <path class="cls-1" d="m224.18.01c-4.93.35-7.76,6.58-3.59,9.89,1.77,1.4,4.42,1.57,6.35.41,1.93-1.17,3.02-3.59,2.61-5.81-.45-2.43-2.82-4.68-5.38-4.5Z"/>
          <path class="cls-1" d="m238.31,4.15c-4.93.35-7.76,6.58-3.59,9.89,1.77,1.4,4.42,1.57,6.35.41s3.02-3.59,2.61-5.81c-.45-2.43-2.82-4.68-5.38-4.5Z"/>
        </g>
        <path class="cls-1" d="m247.34,16.74c-3.96-.27-6.52,4.38-4.52,7.74,1.49,2.5,5.24,3.29,7.61,1.6,4.27-3.05,1.7-9.02-3.09-9.35Z"/>
        <path class="cls-1" d="m210.25,5.87c-3.96-.27-6.52,4.38-4.52,7.74,1.49,2.5,5.24,3.29,7.61,1.6,4.27-3.05,1.7-9.02-3.09-9.35Z"/>
      </g>
    </g>
    <g>
      <path class="cls-1" d="m630.03,52.65c-.65-2.25-.84-4.69-.54-6.94,1.64-12.32,14.33-17.78,24.81-12.07,2.69,1.47,5.23,3.66,6.89,6.54,1.66,2.88,2.34,6.48,1.38,9.33-.96,2.85-3.72,4.68-6.55,3.92-1.17-.32-2.45-.94-3.41-1.67-1.03-.79-2.08-1.61-3.45-1.57-.59.02-1.16.2-1.69.47-1.67.85-2.66,2.32-2.76,4.15-.08,1.52-.11,3.21-1.19,4.4-.74.81-1.76,1.24-2.83,1.43-5.57.98-9.24-3.04-10.68-7.98Z"/>
      <g>
        <g>
          <path class="cls-1" d="m625.85,24.91c-3.51,3.47-1.6,10.05,3.73,9.84,2.26-.09,4.38-1.69,5.08-3.83s-.04-4.69-1.8-6.11c-1.93-1.55-5.18-1.71-7.01.09Z"/>
          <path class="cls-1" d="m639.26,18.84c-3.51,3.47-1.6,10.05,3.73,9.84,2.26-.09,4.38-1.69,5.08-3.83.71-2.14-.04-4.69-1.8-6.11-1.93-1.55-5.18-1.71-7.01.09Z"/>
        </g>
        <path class="cls-1" d="m654.31,22.51c-3.18,2.38-2.09,7.57,1.62,8.82,2.76.93,6.12-.91,6.81-3.74,1.26-5.1-4.59-7.95-8.43-5.08Z"/>
        <path class="cls-1" d="m619.1,38.43c-3.18,2.38-2.09,7.57,1.62,8.82,2.76.93,6.12-.91,6.81-3.74,1.26-5.1-4.59-7.95-8.43-5.08Z"/>
      </g>
    </g>
    <g>
      <path class="cls-1" d="m757.18,168.14c1.5-1.8,3.42-3.32,5.45-4.33,11.13-5.53,22.76,1.94,23.88,13.83.29,3.06-.11,6.39-1.57,9.37s-4.07,5.56-6.97,6.36-5.96-.47-6.91-3.24c-.39-1.15-.59-2.56-.52-3.76.08-1.29.18-2.62-.62-3.74-.34-.48-.82-.85-1.33-1.14-1.64-.91-3.41-.91-4.98.03-1.3.78-2.73,1.7-4.32,1.47-1.09-.16-2.02-.77-2.77-1.54-3.93-4.07-2.65-9.36.65-13.32Z"/>
      <g>
        <g>
          <path class="cls-1" d="m777.84,149.17c-4.84-.97-9.23,4.3-6.08,8.59,1.33,1.82,3.85,2.69,6.02,2.07,2.17-.61,3.86-2.66,4.05-4.91.21-2.47-1.48-5.25-4-5.76Z"/>
          <path class="cls-1" d="m790.37,156.9c-4.84-.97-9.23,4.3-6.08,8.59,1.33,1.82,3.85,2.69,6.02,2.07s3.86-2.66,4.05-4.91c.21-2.47-1.48-5.25-4-5.76Z"/>
        </g>
        <path class="cls-1" d="m795.74,171.43c-3.75-1.31-7.44,2.5-6.41,6.27.77,2.81,4.18,4.56,6.91,3.56,4.93-1.81,4.03-8.25-.5-9.83Z"/>
        <path class="cls-1" d="m762.86,151.14c-3.75-1.31-7.44,2.5-6.41,6.27.77,2.81,4.18,4.56,6.91,3.56,4.93-1.81,4.03-8.25-.5-9.83Z"/>
      </g>
    </g>
    <g>
      <path class="cls-1" d="m416.18,46.41c.33-2.32,1.16-4.62,2.36-6.55,6.57-10.55,20.39-10.3,27.58-.77,1.85,2.45,3.26,5.5,3.59,8.8.33,3.31-.54,6.87-2.59,9.07-2.05,2.2-5.31,2.73-7.58.87-.94-.77-1.85-1.87-2.42-2.93-.61-1.14-1.23-2.33-2.49-2.85-.54-.23-1.14-.3-1.73-.27-1.87.08-3.38,1.02-4.22,2.64-.7,1.35-1.43,2.88-2.9,3.52-1.01.44-2.12.41-3.17.14-5.48-1.4-7.17-6.57-6.44-11.67Z"/>
      <g>
        <g>
          <path class="cls-1" d="m423.81,19.42c-4.63,1.72-5.6,8.5-.66,10.5,2.09.85,4.68.27,6.21-1.4,1.53-1.66,1.89-4.29.87-6.31-1.12-2.21-4.02-3.7-6.42-2.8Z"/>
          <path class="cls-1" d="m438.53,19.42c-4.63,1.72-5.6,8.5-.66,10.5,2.09.85,4.68.27,6.21-1.4s1.89-4.29.87-6.31c-1.12-2.21-4.02-3.7-6.42-2.8Z"/>
        </g>
        <path class="cls-1" d="m450.73,28.96c-3.87.86-5.02,6.03-2.16,8.7,2.13,1.98,5.95,1.69,7.75-.6,3.24-4.13-.9-9.14-5.59-8.1Z"/>
        <path class="cls-1" d="m412.09,28.96c-3.87.86-5.02,6.03-2.16,8.7,2.13,1.98,5.95,1.69,7.75-.6,3.24-4.13-.9-9.14-5.59-8.1Z"/>
      </g>
    </g>
    <g>
      <path class="cls-1" d="m523.47,174.2c.33-2.32,1.16-4.62,2.36-6.55,6.57-10.55,20.39-10.3,27.58-.77,1.85,2.45,3.26,5.5,3.59,8.8.33,3.31-.54,6.87-2.59,9.07-2.05,2.2-5.31,2.73-7.58.87-.94-.77-1.85-1.87-2.42-2.93-.61-1.14-1.23-2.33-2.49-2.85-.54-.23-1.14-.3-1.73-.27-1.87.08-3.38,1.02-4.22,2.64-.7,1.35-1.43,2.88-2.9,3.52-1.01.44-2.12.41-3.17.14-5.48-1.4-7.17-6.57-6.44-11.67Z"/>
      <g>
        <g>
          <path class="cls-1" d="m531.09,147.21c-4.63,1.72-5.6,8.5-.66,10.5,2.09.85,4.68.27,6.21-1.4,1.53-1.66,1.89-4.29.87-6.31-1.12-2.21-4.02-3.7-6.42-2.8Z"/>
          <path class="cls-1" d="m545.81,147.21c-4.63,1.72-5.6,8.5-.66,10.5,2.09.85,4.68.27,6.21-1.4s1.89-4.29.87-6.31c-1.12-2.21-4.02-3.7-6.42-2.8Z"/>
        </g>
        <path class="cls-1" d="m558.01,156.75c-3.87.86-5.02,6.03-2.16,8.7,2.13,1.98,5.95,1.69,7.75-.6,3.24-4.13-.9-9.14-5.59-8.1Z"/>
        <path class="cls-1" d="m519.37,156.75c-3.87.86-5.02,6.03-2.16,8.7,2.13,1.98,5.95,1.69,7.75-.6,3.24-4.13-.9-9.14-5.59-8.1Z"/>
      </g>
    </g>
    <g>
      <path class="cls-1" d="m243.25,461.48c.03-2.34.55-4.73,1.48-6.8,5.13-11.32,18.86-12.88,27.24-4.38,2.15,2.19,3.95,5.02,4.71,8.26.76,3.23.37,6.88-1.38,9.33-1.74,2.45-4.91,3.41-7.4,1.86-1.03-.64-2.08-1.61-2.78-2.59-.76-1.05-1.52-2.14-2.85-2.5-.57-.15-1.17-.14-1.75-.04-1.85.33-3.22,1.45-3.84,3.17-.51,1.43-1.04,3.04-2.41,3.87-.94.56-2.05.68-3.12.55-5.62-.67-7.97-5.58-7.91-10.73Z"/>
      <g>
        <g>
          <path class="cls-1" d="m247.27,433.71c-4.36,2.31-4.43,9.16.72,10.5,2.19.57,4.68-.35,5.98-2.2s1.31-4.5.04-6.37c-1.4-2.04-4.47-3.14-6.74-1.94Z"/>
          <path class="cls-1" d="m261.86,431.78c-4.36,2.31-4.43,9.16.72,10.5,2.19.57,4.68-.35,5.98-2.2,1.3-1.85,1.31-4.5.04-6.37-1.4-2.04-4.47-3.14-6.74-1.94Z"/>
        </g>
        <path class="cls-1" d="m275.21,439.64c-3.73,1.36-4.19,6.64-1,8.91,2.37,1.69,6.12.89,7.6-1.61,2.68-4.52-2.09-8.94-6.61-7.3Z"/>
        <path class="cls-1" d="m236.9,444.71c-3.73,1.36-4.19,6.64-1,8.91,2.37,1.69,6.12.89,7.6-1.61,2.68-4.52-2.09-8.94-6.61-7.3Z"/>
      </g>
    </g>
    <g>
      <path class="cls-1" d="m273.29,584.5c.03-2.34.55-4.73,1.48-6.8,5.13-11.32,18.86-12.88,27.24-4.38,2.15,2.19,3.95,5.02,4.71,8.26.76,3.23.37,6.88-1.38,9.33-1.74,2.45-4.91,3.41-7.4,1.86-1.03-.64-2.08-1.61-2.78-2.59-.76-1.05-1.52-2.14-2.85-2.5-.57-.15-1.17-.14-1.75-.04-1.85.33-3.22,1.45-3.84,3.17-.51,1.43-1.04,3.04-2.41,3.87-.94.56-2.05.68-3.12.55-5.62-.67-7.97-5.58-7.91-10.73Z"/>
      <g>
        <g>
          <path class="cls-1" d="m277.31,556.74c-4.36,2.31-4.43,9.16.72,10.5,2.19.57,4.68-.35,5.98-2.2,1.3-1.85,1.31-4.5.04-6.37-1.4-2.04-4.47-3.14-6.74-1.94Z"/>
          <path class="cls-1" d="m291.9,554.81c-4.36,2.31-4.43,9.16.72,10.5,2.19.57,4.68-.35,5.98-2.2,1.3-1.85,1.31-4.5.04-6.37-1.4-2.04-4.47-3.14-6.74-1.94Z"/>
        </g>
        <path class="cls-1" d="m305.25,562.66c-3.73,1.36-4.19,6.64-1,8.91,2.37,1.69,6.12.89,7.6-1.61,2.68-4.52-2.09-8.94-6.61-7.3Z"/>
        <path class="cls-1" d="m266.94,567.73c-3.73,1.36-4.19,6.64-1,8.91,2.37,1.69,6.12.89,7.6-1.61,2.68-4.52-2.09-8.94-6.61-7.3Z"/>
      </g>
    </g>
    <g>
      <path class="cls-1" d="m19.23,445.57c-.4-2.31-.33-4.75.22-6.96,2.98-12.07,16.19-16.11,25.98-9.28,2.52,1.76,4.8,4.21,6.14,7.26,1.34,3.04,1.62,6.7.35,9.42-1.27,2.73-4.21,4.25-6.93,3.18-1.13-.44-2.33-1.2-3.21-2.04-.94-.9-1.89-1.83-3.25-1.94-.59-.05-1.18.07-1.73.28-1.76.66-2.9,2.01-3.19,3.82-.24,1.5-.46,3.18-1.67,4.25-.82.73-1.89,1.04-2.97,1.11-5.65.37-8.85-4.03-9.74-9.1Z"/>
      <g>
        <g>
          <path class="cls-1" d="m18.1,417.54c-3.87,3.07-2.69,9.82,2.63,10.19,2.25.16,4.54-1.2,5.47-3.25.94-2.05.47-4.67-1.13-6.27-1.75-1.75-4.96-2.27-6.98-.67Z"/>
          <path class="cls-1" d="m32.1,412.98c-3.87,3.07-2.69,9.82,2.63,10.19,2.25.16,4.54-1.2,5.47-3.25.94-2.05.47-4.67-1.13-6.27-1.75-1.75-4.96-2.27-6.98-.67Z"/>
        </g>
        <path class="cls-1" d="m46.66,418.27c-3.42,2.02-2.91,7.29.65,8.94,2.64,1.22,6.18-.24,7.18-2.97,1.81-4.93-3.69-8.41-7.83-5.97Z"/>
        <path class="cls-1" d="m9.92,430.25c-3.42,2.02-2.91,7.29.65,8.94,2.64,1.22,6.18-.24,7.18-2.97,1.81-4.93-3.69-8.41-7.83-5.97Z"/>
      </g>
    </g>
    <g>
      <path class="cls-1" d="m121.88,561.81c1.17-2.03,2.79-3.86,4.62-5.2,10.02-7.36,22.75-2,25.9,9.52.81,2.96.99,6.31.06,9.5-.92,3.19-3.05,6.18-5.77,7.46-2.72,1.28-5.95.57-7.36-2-.59-1.07-1.02-2.42-1.16-3.62-.14-1.29-.28-2.61-1.26-3.58-.42-.41-.95-.7-1.51-.89-1.77-.62-3.52-.31-4.9.89-1.15,1-2.39,2.15-4,2.19-1.1.03-2.12-.41-2.99-1.05-4.57-3.34-4.22-8.76-1.65-13.23Z"/>
      <g>
        <g>
          <path class="cls-1" d="m138.97,539.57c-4.94-.12-8.35,5.82-4.51,9.51,1.63,1.56,4.25,1.99,6.29,1.01s3.35-3.28,3.15-5.53c-.22-2.47-2.36-4.92-4.93-4.99Z"/>
          <path class="cls-1" d="m152.64,545.04c-4.94-.12-8.35,5.82-4.51,9.51,1.63,1.56,4.25,1.99,6.29,1.01,2.04-.98,3.35-3.28,3.15-5.53-.22-2.47-2.36-4.92-4.93-4.99Z"/>
        </g>
        <path class="cls-1" d="m160.43,558.42c-3.92-.64-6.91,3.74-5.23,7.28,1.24,2.63,4.9,3.77,7.42,2.32,4.54-2.63,2.55-8.82-2.19-9.6Z"/>
        <path class="cls-1" d="m124.55,544.08c-3.92-.64-6.91,3.74-5.23,7.28,1.24,2.63,4.9,3.77,7.42,2.32,4.54-2.63,2.55-8.82-2.19-9.6Z"/>
      </g>
    </g>
    <g>
      <path class="cls-1" d="m758.45,520.62c-.52-2.28-.56-4.73-.13-6.96,2.38-12.2,15.37-16.89,25.49-10.56,2.6,1.63,5,3.97,6.49,6.94,1.49,2.97,1.95,6.61.82,9.4-1.13,2.79-3.99,4.45-6.77,3.52-1.15-.39-2.39-1.08-3.3-1.87-.98-.85-1.98-1.74-3.35-1.78-.59-.02-1.17.13-1.71.36-1.72.75-2.8,2.16-3,3.97-.17,1.51-.3,3.2-1.45,4.32-.79.77-1.84,1.14-2.91,1.26-5.62.65-9.04-3.58-10.18-8.61Z"/>
      <g>
        <g>
          <path class="cls-1" d="m755.95,492.68c-3.71,3.26-2.2,9.94,3.13,10.05,2.26.05,4.47-1.42,5.31-3.52.84-2.1.24-4.68-1.44-6.2-1.83-1.66-5.07-2.02-7-.33Z"/>
          <path class="cls-1" d="m769.7,487.43c-3.71,3.26-2.2,9.94,3.13,10.05,2.26.05,4.47-1.42,5.31-3.52.84-2.1.24-4.68-1.44-6.2-1.83-1.66-5.07-2.02-7-.33Z"/>
        </g>
        <path class="cls-1" d="m784.5,491.99c-3.31,2.18-2.54,7.43,1.09,8.9,2.7,1.09,6.16-.55,7.02-3.33,1.56-5.01-4.1-8.21-8.11-5.57Z"/>
        <path class="cls-1" d="m748.4,505.77c-3.31,2.18-2.54,7.43,1.09,8.9,2.7,1.09,6.16-.55,7.02-3.33,1.56-5.01-4.1-8.21-8.11-5.57Z"/>
      </g>
    </g>
    <g>
      <path class="cls-1" d="m598.24,469.12c-.52-2.28-.56-4.73-.13-6.96,2.38-12.2,15.37-16.89,25.49-10.56,2.6,1.63,5,3.97,6.49,6.94,1.49,2.97,1.95,6.61.82,9.4-1.13,2.79-3.99,4.45-6.77,3.52-1.15-.39-2.39-1.08-3.3-1.87-.98-.85-1.98-1.74-3.35-1.78-.59-.02-1.17.13-1.71.36-1.72.75-2.8,2.16-3,3.97-.17,1.51-.3,3.2-1.45,4.32-.79.77-1.84,1.14-2.91,1.26-5.62.65-9.04-3.58-10.18-8.61Z"/>
      <g>
        <g>
          <path class="cls-1" d="m595.73,441.18c-3.71,3.26-2.2,9.94,3.13,10.05,2.26.05,4.47-1.42,5.31-3.52.84-2.1.24-4.68-1.44-6.2-1.83-1.66-5.07-2.02-7-.33Z"/>
          <path class="cls-1" d="m609.49,435.93c-3.71,3.26-2.2,9.94,3.13,10.05,2.26.05,4.47-1.42,5.31-3.52.84-2.1.24-4.68-1.44-6.2-1.83-1.66-5.07-2.02-7-.33Z"/>
        </g>
        <path class="cls-1" d="m624.28,440.49c-3.31,2.18-2.54,7.43,1.09,8.9,2.7,1.09,6.16-.55,7.02-3.33,1.56-5.01-4.1-8.21-8.11-5.57Z"/>
        <path class="cls-1" d="m588.18,454.27c-3.31,2.18-2.54,7.43,1.09,8.9,2.7,1.09,6.16-.55,7.02-3.33,1.56-5.01-4.1-8.21-8.11-5.57Z"/>
      </g>
    </g>
    <g>
      <path class="cls-1" d="m630.5,564.38c1.59-1.71,3.59-3.13,5.67-4.03,11.41-4.92,22.62,3.16,23.1,15.09.12,3.07-.45,6.37-2.07,9.28-1.62,2.9-4.36,5.34-7.3,5.98-2.94.64-5.92-.78-6.72-3.6-.33-1.17-.45-2.59-.32-3.78.15-1.29.32-2.61-.42-3.77-.32-.5-.77-.89-1.27-1.21-1.59-1-3.36-1.09-4.97-.24-1.34.71-2.81,1.56-4.39,1.24-1.08-.22-1.97-.87-2.68-1.69-3.71-4.28-2.14-9.49,1.36-13.26Z"/>
      <g>
        <g>
          <path class="cls-1" d="m652.15,546.54c-4.78-1.23-9.44,3.8-6.53,8.26,1.24,1.89,3.7,2.89,5.9,2.39,2.2-.49,4-2.45,4.31-4.69.34-2.45-1.19-5.33-3.68-5.96Z"/>
          <path class="cls-1" d="m664.25,554.93c-4.78-1.23-9.44,3.8-6.53,8.26,1.24,1.89,3.7,2.89,5.9,2.39,2.2-.49,4-2.45,4.31-4.69.34-2.45-1.19-5.33-3.68-5.96Z"/>
        </g>
        <path class="cls-1" d="m668.83,569.72c-3.67-1.5-7.57,2.09-6.73,5.92.62,2.84,3.93,4.78,6.71,3.92,5.02-1.54,4.47-8.02.02-9.84Z"/>
        <path class="cls-1" d="m637.08,547.7c-3.67-1.5-7.57,2.09-6.73,5.92.62,2.84,3.93,4.78,6.71,3.92,5.02-1.54,4.47-8.02.02-9.84Z"/>
      </g>
    </g>
    <g>
      <path class="cls-1" d="m415.03,437.15c.8-2.2,2.09-4.28,3.66-5.92,8.6-8.97,22.07-5.88,27.15,4.93,1.3,2.78,2.06,6.05,1.7,9.35-.36,3.3-1.94,6.61-4.4,8.34-2.46,1.73-5.76,1.58-7.6-.71-.76-.95-1.42-2.21-1.76-3.36-.36-1.24-.72-2.53-1.85-3.31-.48-.33-1.06-.52-1.64-.62-1.85-.3-3.52.3-4.67,1.72-.96,1.18-1.99,2.53-3.56,2.85-1.08.22-2.16-.04-3.13-.52-5.08-2.5-5.66-7.91-3.89-12.75Z"/>
      <g>
        <g>
          <path class="cls-1" d="m428.05,412.3c-4.88.73-7.23,7.17-2.81,10.14,1.87,1.26,4.53,1.23,6.37-.09,1.84-1.31,2.74-3.81,2.15-5.99-.64-2.39-3.17-4.44-5.71-4.07Z"/>
          <path class="cls-1" d="m442.45,415.34c-4.88.73-7.23,7.17-2.81,10.14,1.87,1.26,4.53,1.23,6.37-.09,1.84-1.31,2.74-3.81,2.15-5.99-.64-2.39-3.17-4.44-5.71-4.07Z"/>
        </g>
        <path class="cls-1" d="m452.43,427.18c-3.97.04-6.16,4.87-3.9,8.07,1.68,2.38,5.47,2.88,7.71,1.01,4.03-3.37,1-9.13-3.8-9.08Z"/>
        <path class="cls-1" d="m414.61,419.22c-3.97.04-6.16,4.87-3.9,8.07,1.68,2.38,5.47,2.88,7.71,1.01,4.03-3.37,1-9.13-3.8-9.08Z"/>
      </g>
    </g>
    <g>
      <path class="cls-1" d="m495.76,577.86c-1.44-1.84-2.52-4.04-3.08-6.24-3.05-12.05,6.7-21.84,18.56-20.42,3.05.36,6.22,1.46,8.83,3.51,2.61,2.05,4.58,5.15,4.75,8.15.17,3-1.71,5.73-4.62,6.07-1.21.14-2.62.04-3.79-.29-1.25-.35-2.53-.73-3.79-.18-.54.23-1,.62-1.39,1.06-1.24,1.41-1.61,3.14-1.02,4.87.49,1.44,1.09,3.03.53,4.53-.38,1.03-1.18,1.81-2.09,2.38-4.81,2.98-9.71.61-12.88-3.45Z"/>
      <g>
        <g>
          <path class="cls-1" d="m481.57,553.66c-1.97,4.53,2.25,9.93,7.12,7.75,2.06-.92,3.44-3.19,3.3-5.45s-1.78-4.34-3.94-5c-2.37-.72-5.45.34-6.47,2.69Z"/>
          <path class="cls-1" d="m491.77,543.04c-1.97,4.53,2.25,9.93,7.12,7.75,2.06-.92,3.44-3.19,3.3-5.45-.14-2.25-1.78-4.34-3.94-5-2.37-.72-5.45.34-6.47,2.69Z"/>
        </g>
        <path class="cls-1" d="m507.11,540.86c-2.07,3.39.87,7.8,4.78,7.59,2.91-.16,5.34-3.12,4.93-6-.73-5.2-7.21-5.68-9.71-1.58Z"/>
        <path class="cls-1" d="m480.33,568.72c-2.07,3.39.87,7.8,4.78,7.59,2.91-.16,5.34-3.12,4.93-6-.73-5.2-7.21-5.68-9.71-1.58Z"/>
      </g>
    </g>
  </g>
  <g id="huesos" class="cls-5">
    <g id="hueso">
      <path class="cls-2" d="m212.01,235.35c-2.6,2.27-3.51,5.86-2.47,9.55,1.02,3.96,4.57,5.33,7.3,4.85,5.12-.07,7.44-4.78,10.04-8.87,1.95-3.37,4.95-5.76,8.39-7.47,4.45-2.21,8.97-4.22,13.52-6.24,2-.89,4.04-1.67,6-2.6,3.69-1.73,7.64-3.36,11.78-3.28,4.34.08,8.4,3.49,12.49.73,5.94-4.01,2.87-12.81-3.77-12.98"/>
      <path class="cls-2" d="m273.71,210.53c1.55-1.38,2.67-3.37,2.95-4.99.55-5.39-3.2-8.88-7.98-9.7-5.39-.55-7.17,5.39-9.77,9.48-1.44,2.27-3.54,4.76-6.01,5.86-1.57.7-3.14,1.39-4.7,2.09-4.48,1.99-8.95,3.97-13.43,5.96-2.88,1.28-5.76,2.56-8.64,3.84-1.22.54-2.28,1.07-3.6,1.33-3.1.6-5.9.04-8.86-.84-2.57-.76-5.17-1.18-7.49.49-5.86,4.23-2.36,13.07,4.47,12.83"/>
    </g>
    <polygon class="cls-3" points="482.93 122.57 480.81 123.75 478.07 124.18 475.21 123.75 473.17 122.15 471.73 120.23 471.13 118.12 471.28 115.68 472.33 113.21 474.77 110.97 478.17 109.22 480.85 107.45 482.77 105.4 484.62 102.64 486.19 99.51 494.89 78.79 496.27 74.77 496.92 70.7 496.61 66.46 495.82 62.37 495.46 59.43 495.82 55.97 497.82 52.72 500.15 50.68 503.78 50.03 507.13 51.87 509.52 54.04 510.72 56.27 511.13 57.89 513.16 56.46 515.55 55.82 518.22 56.17 521.24 57.85 523.26 61.06 522.91 65.69 519.57 68.84 515.98 70.79 512.76 73.11 510.48 75.97 508.53 80.51 498.71 103.58 497.06 108.25 497.12 112.4 498.11 117.08 498.97 121.23 498.72 124.71 496.35 127.7 493.47 128.97 490.18 129.29 487.51 128.73 484.99 126.74 483.46 124.21 482.93 122.57"/>
    <g id="hueso-2" data-name="hueso">
      <path class="cls-2" d="m675.6,90.92c-3.45.21-6.36,2.5-7.78,6.06-1.61,3.76.37,7.01,2.82,8.3,4.1,3.07,8.81.76,13.37-.9,3.6-1.48,7.43-1.54,11.21-.79,4.88.96,9.68,2.13,14.52,3.3,2.12.52,4.22,1.14,6.34,1.61,3.98.88,8.1,2,11.34,4.59,3.38,2.71,4.52,7.89,9.44,8.2,7.15.45,10.09-8.4,4.93-12.59"/>
      <path class="cls-2" d="m739.63,108.91c2.07-.15,4.18-1.04,5.38-2.15,3.73-3.94,2.88-8.99-.41-12.55-3.94-3.73-8.97-.11-13.52,1.55-2.52.92-5.71,1.61-8.34.97-1.67-.41-3.33-.81-5-1.22-4.76-1.16-9.52-2.32-14.28-3.47-3.06-.75-6.13-1.49-9.19-2.24-1.29-.31-2.46-.54-3.66-1.14-2.82-1.42-4.7-3.57-6.51-6.07-1.57-2.17-3.37-4.09-6.24-4.18-7.22-.23-9.84,8.92-4.29,12.89"/>
    </g>
    <polygon class="cls-3" points="275.5 208.88 277.85 209.46 280.15 211.02 281.94 213.29 282.34 215.84 282.08 218.23 281.09 220.18 279.31 221.87 276.86 222.96 273.54 222.93 269.87 221.89 266.7 221.35 263.9 221.54 260.66 222.3 257.38 223.52 236.88 232.74 233.13 234.74 229.88 237.27 227.21 240.58 225.01 244.11 223.26 246.5 220.64 248.79 216.96 249.81 213.87 249.71 210.77 247.7 209.57 244.07 209.3 240.86 209.95 238.41 210.76 236.94 208.29 236.61 206.11 235.44 204.4 233.36 203.33 230.07 204.05 226.35 207.46 223.2 212.05 223.18 216.01 224.21 219.94 224.7 223.57 224.16 228.09 222.18 251.01 212 255.39 209.71 258.18 206.64 260.65 202.54 262.85 198.92 265.41 196.55 269.18 195.97 272.15 197.01 274.77 199.02 276.34 201.25 276.83 204.43 276.23 207.32 275.5 208.88"/>
    <g>
      <g id="hueso-3" data-name="hueso">
        <path class="cls-2" d="m212.01,100.41c-2.6,2.27-3.51,5.86-2.47,9.55,1.02,3.96,4.57,5.33,7.3,4.85,5.12-.07,7.44-4.78,10.04-8.87,1.95-3.37,4.95-5.76,8.39-7.47,4.45-2.21,8.97-4.22,13.52-6.24,2-.89,4.04-1.67,6-2.6,3.69-1.73,7.64-3.36,11.78-3.28,4.34.08,8.4,3.49,12.49.73,5.94-4.01,2.87-12.81-3.77-12.98"/>
        <path class="cls-2" d="m273.71,75.59c1.55-1.38,2.67-3.37,2.95-4.99.55-5.39-3.2-8.88-7.98-9.7-5.39-.55-7.17,5.39-9.77,9.48-1.44,2.27-3.54,4.76-6.01,5.86-1.57.7-3.14,1.39-4.7,2.09-4.48,1.99-8.95,3.97-13.43,5.96-2.88,1.28-5.76,2.56-8.64,3.84-1.22.54-2.28,1.07-3.6,1.33-3.1.6-5.9.04-8.86-.84-2.57-.76-5.17-1.18-7.49.49-5.86,4.23-2.36,13.07,4.47,12.83"/>
      </g>
      <polygon class="cls-3" points="275.5 73.94 277.85 74.52 280.15 76.07 281.94 78.34 282.34 80.9 282.08 83.29 281.09 85.24 279.31 86.93 276.86 88.02 273.54 87.99 269.87 86.95 266.7 86.41 263.9 86.6 260.66 87.36 257.38 88.58 236.88 97.79 233.13 99.8 229.88 102.33 227.21 105.64 225.01 109.17 223.26 111.56 220.64 113.85 216.96 114.86 213.87 114.77 210.77 112.76 209.57 109.13 209.3 105.91 209.95 103.47 210.76 102 208.29 101.67 206.11 100.5 204.4 98.42 203.33 95.13 204.05 91.41 207.46 88.26 212.05 88.24 216.01 89.27 219.94 89.76 223.57 89.22 228.09 87.23 251.01 77.06 255.39 74.77 258.18 71.7 260.65 67.6 262.85 63.98 265.41 61.6 269.18 61.03 272.15 62.07 274.77 64.08 276.34 66.31 276.83 69.48 276.23 72.38 275.5 73.94"/>
    </g>
    <g>
      <g id="hueso-4" data-name="hueso">
        <path class="cls-2" d="m88.92,70.13c-3.08-1.57-6.75-1.07-9.78,1.27-3.29,2.43-3.24,6.23-1.77,8.58,1.97,4.73,7.21,5.12,11.98,6,3.85.55,7.19,2.44,10.06,5,3.71,3.3,7.26,6.74,10.84,10.21,1.57,1.52,3.06,3.12,4.65,4.6,2.99,2.77,5.97,5.83,7.44,9.71,1.54,4.05-.1,9.1,3.98,11.86,5.94,4.02,12.95-2.12,10.64-8.35"/>
        <path class="cls-2" d="m134.98,118.11c1.86.92,4.13,1.22,5.73.87,5.21-1.5,7.04-6.29,6.02-11.02-1.5-5.21-7.68-4.64-12.44-5.52-2.64-.49-5.73-1.51-7.68-3.39-1.23-1.19-2.46-2.39-3.69-3.58-3.51-3.41-7.03-6.82-10.54-10.23l-6.79-6.59c-.95-.93-1.84-1.71-2.57-2.84-1.71-2.65-2.24-5.46-2.53-8.53-.26-2.67-.83-5.24-3.25-6.76-6.11-3.86-13.01,2.69-10.24,8.93"/>
      </g>
      <polygon class="cls-3" points="137.17 119.15 137.51 121.55 136.93 124.27 135.49 126.77 133.27 128.1 130.95 128.75 128.77 128.56 126.55 127.54 124.62 125.67 123.41 122.58 123 118.78 122.32 115.65 121.09 113.12 119.18 110.39 116.83 107.8 100.63 92.23 97.37 89.5 93.81 87.43 89.74 86.19 85.65 85.46 82.78 84.73 79.67 83.15 77.36 80.12 76.29 77.21 77 73.58 79.93 71.12 82.81 69.67 85.31 69.36 86.98 69.56 86.37 67.15 86.64 64.69 87.93 62.32 90.58 60.11 94.3 59.38 98.5 61.37 100.23 65.62 100.75 69.68 101.76 73.51 103.61 76.67 107.14 80.13 125.14 97.59 128.9 100.81 132.79 102.25 137.52 103.01 141.69 103.7 144.85 105.19 146.79 108.48 146.94 111.62 146.05 114.8 144.57 117.09 141.8 118.72 138.89 119.24 137.17 119.15"/>
    </g>
    <g>
      <g id="hueso-5" data-name="hueso">
        <path class="cls-2" d="m87.02,268.97c-3.08-1.57-6.75-1.07-9.78,1.27-3.29,2.43-3.24,6.23-1.77,8.58,1.97,4.73,7.21,5.12,11.98,6,3.85.55,7.19,2.44,10.06,5,3.71,3.3,7.26,6.74,10.84,10.21,1.57,1.52,3.06,3.12,4.65,4.6,2.99,2.77,5.97,5.83,7.44,9.71,1.54,4.05-.1,9.1,3.98,11.86,5.94,4.02,12.95-2.12,10.64-8.35"/>
        <path class="cls-2" d="m133.07,316.95c1.86.92,4.13,1.22,5.73.87,5.21-1.5,7.04-6.29,6.02-11.02-1.5-5.21-7.68-4.64-12.44-5.52-2.64-.49-5.73-1.51-7.68-3.39-1.23-1.19-2.46-2.39-3.69-3.58-3.51-3.41-7.03-6.82-10.54-10.23-2.26-2.2-4.52-4.39-6.79-6.59-.95-.93-1.84-1.71-2.57-2.84-1.71-2.65-2.24-5.46-2.53-8.53-.26-2.67-.83-5.24-3.25-6.76-6.11-3.86-13.01,2.69-10.24,8.93"/>
      </g>
      <polygon class="cls-3" points="135.26 317.99 135.6 320.38 135.02 323.1 133.58 325.61 131.36 326.94 129.04 327.59 126.87 327.39 124.64 326.38 122.71 324.51 121.5 321.42 121.1 317.62 120.41 314.49 119.19 311.95 117.28 309.23 114.92 306.64 98.72 291.07 95.47 288.33 91.9 286.26 87.84 285.02 83.74 284.3 80.87 283.57 77.77 281.99 75.45 278.95 74.39 276.05 75.09 272.42 78.02 269.96 80.9 268.51 83.41 268.19 85.07 268.4 84.46 265.99 84.73 263.53 86.02 261.16 88.68 258.94 92.39 258.22 96.59 260.21 98.32 264.46 98.84 268.51 99.85 272.35 101.71 275.51 105.24 278.97 123.23 296.43 126.99 299.65 130.88 301.09 135.61 301.85 139.78 302.54 142.94 304.03 144.88 307.31 145.03 310.45 144.14 313.64 142.66 315.93 139.89 317.56 136.99 318.08 135.26 317.99"/>
    </g>
    <g>
      <g id="hueso-6" data-name="hueso">
        <path class="cls-2" d="m276.61,373.46c2.73-2.12,3.83-5.66,3-9.39-.8-4.01-4.27-5.57-7.02-5.25-5.12-.22-7.7,4.35-10.52,8.29-2.13,3.25-5.27,5.47-8.8,6.99-4.57,1.96-9.19,3.71-13.85,5.48-2.04.77-4.13,1.44-6.14,2.26-3.78,1.53-7.81,2.93-11.95,2.62-4.32-.32-8.19-3.96-12.43-1.43-6.16,3.67-3.58,12.63,3.04,13.17"/>
        <path class="cls-2" d="m213.61,394.78c-1.62,1.29-2.86,3.22-3.23,4.82-.85,5.35,2.7,9.04,7.43,10.13,5.35.85,7.46-4.98,10.28-8.92,1.56-2.18,3.8-4.55,6.33-5.51,1.6-.61,3.21-1.21,4.81-1.82,4.58-1.73,9.16-3.47,13.74-5.2,2.95-1.12,5.9-2.23,8.85-3.35,1.24-.47,2.33-.94,3.67-1.12,3.13-.42,5.89.29,8.8,1.33,2.52.9,5.09,1.47,7.51-.07,6.08-3.89,3.09-12.92-3.74-13.06"/>
      </g>
      <polygon class="cls-3" points="211.74 396.32 209.43 395.61 207.21 393.93 205.55 391.57 205.29 388.99 205.69 386.62 206.79 384.73 208.66 383.14 211.17 382.19 214.48 382.41 218.09 383.65 221.22 384.36 224.03 384.33 227.31 383.76 230.65 382.72 251.63 374.67 255.49 372.88 258.87 370.54 261.72 367.38 264.12 363.98 266 361.69 268.75 359.55 272.48 358.75 275.56 359.02 278.55 361.19 279.53 364.89 279.62 368.11 278.84 370.52 277.95 371.94 280.39 372.41 282.51 373.7 284.1 375.87 284.98 379.21 284.06 382.89 280.47 385.84 275.89 385.61 272 384.36 268.1 383.64 264.45 383.98 259.82 385.71 236.37 394.58 231.86 396.62 228.9 399.54 226.2 403.49 223.81 406.98 221.12 409.21 217.32 409.57 214.42 408.37 211.91 406.21 210.47 403.9 210.16 400.7 210.92 397.85 211.74 396.32"/>
    </g>
    <g>
      <g id="hueso-7" data-name="hueso">
        <path class="cls-2" d="m83.66,467.07c-3.23-1.23-6.82-.35-9.59,2.3-3.02,2.76-2.56,6.54-.85,8.72,2.46,4.49,7.71,4.33,12.54,4.7,3.89.14,7.41,1.67,10.54,3.9,4.04,2.89,7.94,5.93,11.86,9,1.72,1.35,3.37,2.78,5.11,4.08,3.26,2.44,6.55,5.17,8.43,8.86,1.96,3.87.86,9.06,5.22,11.37,6.33,3.36,12.65-3.48,9.69-9.43"/>
        <path class="cls-2" d="m134.55,509.89c1.94.72,4.23.78,5.79.26,5.02-2.05,6.33-7,4.81-11.6-2.05-5.02-8.13-3.8-12.96-4.17-2.68-.2-5.86-.89-7.99-2.56-1.35-1.06-2.7-2.11-4.05-3.17-3.86-3.02-7.71-6.04-11.57-9.06-2.48-1.94-4.96-3.89-7.45-5.83-1.05-.82-2.01-1.51-2.86-2.55-1.98-2.45-2.8-5.19-3.42-8.22-.54-2.63-1.38-5.12-3.95-6.38-6.48-3.19-12.65,4.06-9.23,9.97"/>
      </g>
      <polygon class="cls-3" points="136.84 510.69 137.43 513.04 137.14 515.8 135.98 518.45 133.91 520 131.68 520.9 129.49 520.93 127.17 520.16 125.05 518.5 123.52 515.56 122.71 511.83 121.7 508.78 120.22 506.39 118.03 503.89 115.41 501.56 97.65 487.8 94.12 485.43 90.36 483.75 86.18 482.94 82.03 482.66 79.1 482.23 75.85 481 73.22 478.22 71.86 475.44 72.17 471.76 74.82 469.01 77.53 467.26 79.99 466.68 81.67 466.7 80.81 464.37 80.81 461.9 81.84 459.41 84.25 456.92 87.87 455.81 92.25 457.34 94.43 461.38 95.38 465.36 96.79 469.07 98.97 472.01 102.84 475.07 122.59 490.53 126.67 493.33 130.69 494.35 135.47 494.61 139.7 494.85 143 495.99 145.27 499.05 145.75 502.16 145.21 505.42 143.98 507.85 141.4 509.77 138.56 510.6 136.84 510.69"/>
    </g>
    <g>
      <g id="hueso-8" data-name="hueso">
        <path class="cls-2" d="m350.6,309.41c-1.95-2.85-5.42-4.16-9.2-3.55-4.05.56-5.82,3.93-5.66,6.69-.52,5.09,3.89,7.94,7.65,10.99,3.12,2.32,5.15,5.58,6.45,9.2,1.68,4.68,3.16,9.39,4.64,14.15.65,2.08,1.2,4.21,1.89,6.26,1.3,3.86,2.46,7.97,1.9,12.08-.58,4.3-4.44,7.94-2.17,12.32,3.3,6.37,12.39,4.32,13.33-2.25"/>
        <path class="cls-2" d="m368.14,373.56c1.19,1.7,3.04,3.04,4.62,3.51,5.29,1.17,9.19-2.16,10.55-6.81,1.17-5.29-4.53-7.74-8.3-10.79-2.09-1.69-4.32-4.06-5.12-6.65-.51-1.64-1.02-3.28-1.53-4.91-1.46-4.68-2.92-9.35-4.37-14.03-.94-3.01-1.88-6.02-2.82-9.03-.4-1.27-.8-2.38-.9-3.73-.24-3.15.64-5.87,1.85-8.7,1.05-2.47,1.77-5,.37-7.5-3.52-6.3-12.71-3.85-13.26,2.96"/>
      </g>
      <polygon class="cls-3" points="369.57 375.53 368.73 377.79 366.92 379.9 364.45 381.42 361.87 381.52 359.52 380.99 357.7 379.78 356.23 377.82 355.43 375.25 355.84 371.96 357.3 368.43 358.2 365.35 358.33 362.54 357.95 359.24 357.12 355.84 350.33 334.42 348.78 330.46 346.63 326.94 343.65 323.91 340.4 321.31 338.23 319.3 336.26 316.43 335.67 312.66 336.13 309.6 338.48 306.75 342.22 305.98 345.45 306.08 347.8 307.01 349.17 307.98 349.78 305.57 351.19 303.54 353.46 302.08 356.85 301.4 360.46 302.54 363.2 306.29 362.69 310.85 361.21 314.66 360.27 318.51 360.38 322.18 361.83 326.9 369.3 350.84 371.06 355.46 373.8 358.58 377.58 361.51 380.92 364.11 382.99 366.93 383.12 370.74 381.75 373.57 379.45 375.94 377.06 377.25 373.85 377.36 371.04 376.43 369.57 375.53"/>
    </g>
    <g>
      <g id="hueso-9" data-name="hueso">
        <path class="cls-2" d="m340.59,479.64c-1.95-2.85-5.42-4.16-9.2-3.55-4.05.56-5.82,3.93-5.66,6.69-.52,5.09,3.89,7.94,7.65,10.99,3.12,2.32,5.15,5.58,6.45,9.2,1.68,4.68,3.16,9.39,4.64,14.15.65,2.08,1.2,4.21,1.89,6.26,1.3,3.86,2.46,7.97,1.9,12.08-.58,4.3-4.44,7.94-2.17,12.32,3.3,6.37,12.39,4.32,13.33-2.25"/>
        <path class="cls-2" d="m358.13,543.79c1.19,1.7,3.04,3.04,4.62,3.51,5.29,1.17,9.19-2.16,10.55-6.81,1.17-5.29-4.53-7.74-8.3-10.79-2.09-1.69-4.32-4.06-5.12-6.65-.51-1.64-1.02-3.28-1.53-4.91-1.46-4.68-2.92-9.35-4.37-14.03-.94-3.01-1.88-6.02-2.82-9.03-.4-1.27-.8-2.38-.9-3.73-.24-3.15.64-5.87,1.85-8.7,1.05-2.47,1.77-5,.37-7.5-3.52-6.3-12.71-3.85-13.26,2.96"/>
      </g>
      <polygon class="cls-3" points="359.56 545.76 358.71 548.02 356.9 550.13 354.44 551.65 351.86 551.75 349.51 551.22 347.69 550.01 346.22 548.05 345.42 545.48 345.83 542.19 347.29 538.66 348.18 535.58 348.32 532.77 347.94 529.47 347.11 526.06 340.32 504.64 338.76 500.69 336.62 497.17 333.64 494.14 330.39 491.54 328.22 489.53 326.24 486.66 325.66 482.89 326.11 479.82 328.46 476.98 332.21 476.21 335.43 476.31 337.79 477.23 339.15 478.21 339.77 475.8 341.18 473.77 343.44 472.3 346.83 471.63 350.45 472.76 353.18 476.52 352.67 481.08 351.2 484.89 350.25 488.74 350.37 492.41 351.82 497.13 359.28 521.06 361.05 525.69 363.79 528.81 367.57 531.74 370.91 534.34 372.98 537.16 373.11 540.97 371.74 543.8 369.44 546.17 367.04 547.47 363.83 547.59 361.03 546.66 359.56 545.76"/>
    </g>
    <g>
      <g id="hueso-10" data-name="hueso">
        <path class="cls-2" d="m484.95,464.36c-3.21-1.28-6.82-.43-9.61,2.18-3.05,2.72-2.64,6.5-.96,8.71,2.4,4.52,7.66,4.43,12.48,4.86,3.88.19,7.38,1.76,10.49,4.04,4.01,2.94,7.86,6.04,11.75,9.15,1.7,1.37,3.34,2.82,5.06,4.14,3.23,2.48,6.49,5.25,8.32,8.97,1.91,3.89.75,9.07,5.07,11.43,6.29,3.45,12.7-3.32,9.81-9.3"/>
        <path class="cls-2" d="m535.29,507.83c1.93.74,4.22.83,5.79.33,5.04-1.98,6.42-6.92,4.96-11.54-1.98-5.04-8.08-3.9-12.91-4.33-2.67-.24-5.85-.96-7.96-2.66-1.34-1.07-2.67-2.15-4.01-3.22-3.82-3.07-7.64-6.14-11.45-9.2-2.46-1.97-4.91-3.95-7.37-5.92-1.04-.83-2-1.53-2.83-2.59-1.95-2.48-2.74-5.23-3.32-8.26-.5-2.63-1.32-5.14-3.87-6.43-6.44-3.27-12.7,3.89-9.36,9.85"/>
      </g>
      <polygon class="cls-3" points="537.57 508.66 538.13 511.01 537.8 513.77 536.61 516.4 534.52 517.93 532.27 518.79 530.09 518.8 527.77 518 525.68 516.32 524.19 513.36 523.43 509.61 522.45 506.56 521 504.15 518.84 501.62 516.25 499.26 498.67 485.27 495.17 482.85 491.43 481.12 487.27 480.27 483.12 479.93 480.19 479.47 476.96 478.19 474.37 475.38 473.04 472.59 473.4 468.91 476.08 466.19 478.82 464.47 481.28 463.92 482.96 463.97 482.13 461.63 482.16 459.15 483.23 456.68 485.66 454.22 489.3 453.15 493.66 454.74 495.78 458.81 496.68 462.8 498.05 466.52 500.19 469.5 504.03 472.61 523.57 488.32 527.62 491.17 531.63 492.24 536.4 492.56 540.62 492.85 543.91 494.04 546.15 497.13 546.59 500.24 546 503.49 544.74 505.91 542.14 507.8 539.29 508.59 537.57 508.66"/>
    </g>
    <g>
      <g id="hueso-11" data-name="hueso">
        <path class="cls-2" d="m684.45,458.45c-1.69-3.01-5.02-4.63-8.84-4.37-4.09.19-6.15,3.39-6.24,6.16-.98,5.03,3.15,8.26,6.63,11.64,2.9,2.59,4.62,6.02,5.59,9.74,1.26,4.81,2.3,9.64,3.35,14.51.46,2.13.81,4.3,1.31,6.41.94,3.96,1.73,8.16.8,12.21-.97,4.23-5.13,7.51-3.27,12.07,2.71,6.64,11.95,5.42,13.48-1.04"/>
        <path class="cls-2" d="m696.13,523.93c1.03,1.8,2.76,3.31,4.28,3.91,5.17,1.64,9.34-1.32,11.12-5.83,1.64-5.17-3.81-8.12-7.29-11.5-1.93-1.87-3.93-4.44-4.5-7.08-.36-1.68-.72-3.35-1.08-5.03-1.03-4.79-2.06-9.58-3.09-14.36-.66-3.08-1.33-6.16-1.99-9.25-.28-1.3-.58-2.45-.56-3.79.05-3.15,1.17-5.78,2.63-8.5,1.27-2.36,2.21-4.82,1.05-7.43-2.94-6.6-12.31-4.98-13.47,1.75"/>
      </g>
      <polygon class="cls-3" points="697.38 526.01 696.33 528.19 694.34 530.13 691.75 531.42 689.16 531.29 686.88 530.54 685.17 529.17 683.89 527.09 683.32 524.46 684.03 521.22 685.8 517.84 686.97 514.85 687.36 512.07 687.28 508.74 686.75 505.28 681.92 483.33 680.73 479.25 678.91 475.55 676.22 472.26 673.21 469.39 671.23 467.19 669.53 464.15 669.28 460.34 670.01 457.33 672.61 454.71 676.41 454.28 679.61 454.68 681.87 455.81 683.14 456.9 683.98 454.55 685.56 452.66 687.95 451.41 691.39 451.04 694.89 452.5 697.27 456.48 696.35 460.98 694.54 464.64 693.25 468.39 693.04 472.05 694.06 476.88 699.33 501.4 700.67 506.16 703.11 509.52 706.62 512.77 709.71 515.66 711.51 518.66 711.31 522.47 709.68 525.16 707.18 527.32 704.68 528.4 701.47 528.22 698.76 527.04 697.38 526.01"/>
    </g>
    <g>
      <g id="hueso-12" data-name="hueso">
        <path class="cls-2" d="m749.82,309.18c-2.15-2.7-5.7-3.76-9.43-2.88-4,.85-5.52,4.33-5.17,7.08-.16,5.12,4.44,7.65,8.42,10.42,3.28,2.09,5.53,5.2,7.09,8.71,2.01,4.54,3.83,9.14,5.64,13.78.8,2.03,1.49,4.11,2.33,6.11,1.57,3.76,3.02,7.78,2.76,11.92-.27,4.33-3.86,8.24-1.28,12.44,3.74,6.11,12.67,3.43,13.14-3.2"/>
        <path class="cls-2" d="m771.91,371.92c1.31,1.61,3.25,2.82,4.86,3.17,5.36.78,9.01-2.81,10.04-7.55.78-5.36-5.07-7.4-9.05-10.17-2.2-1.54-4.6-3.74-5.59-6.26-.63-1.6-1.25-3.19-1.88-4.79-1.79-4.56-3.58-9.12-5.37-13.68-1.15-2.93-2.3-5.87-3.45-8.8-.49-1.24-.97-2.32-1.17-3.65-.46-3.12.22-5.9,1.23-8.82.87-2.54,1.41-5.11-.16-7.51-3.96-6.04-12.95-2.93-13.01,3.9"/>
      </g>
      <polygon class="cls-3" points="773.48 373.77 772.79 376.09 771.14 378.33 768.79 380.02 766.22 380.3 763.84 379.94 761.94 378.86 760.33 377.01 759.35 374.51 759.53 371.2 760.73 367.58 761.4 364.44 761.34 361.63 760.72 358.36 759.65 355.02 751.34 334.14 749.51 330.31 747.12 326.95 743.93 324.14 740.5 321.78 738.19 319.93 736.02 317.21 735.17 313.49 735.4 310.4 737.54 307.39 741.22 306.36 744.45 306.23 746.86 306.99 748.29 307.86 748.73 305.41 749.99 303.28 752.15 301.66 755.48 300.74 759.17 301.62 762.16 305.17 761.98 309.75 760.78 313.66 760.12 317.57 760.49 321.22 762.28 325.82 771.44 349.17 773.53 353.65 776.48 356.57 780.46 359.22 783.98 361.57 786.24 364.24 786.65 368.03 785.48 370.95 783.36 373.48 781.06 374.95 777.87 375.3 775.01 374.57 773.48 373.77"/>
    </g>
    <g>
      <g id="hueso-13" data-name="hueso">
        <path class="cls-2" d="m486.11,266.91c-3.25-1.16-6.83-.19-9.53,2.52-2.95,2.83-2.41,6.59-.66,8.74,2.56,4.43,7.81,4.15,12.65,4.41,3.89.05,7.44,1.5,10.62,3.66,4.11,2.8,8.07,5.75,12.06,8.73,1.75,1.31,3.44,2.7,5.2,3.96,3.32,2.37,6.67,5.02,8.63,8.67,2.05,3.82,1.07,9.03,5.47,11.25,6.4,3.22,12.57-3.77,9.47-9.64"/>
        <path class="cls-2" d="m537.95,308.57c1.96.67,4.25.68,5.8.13,4.97-2.16,6.17-7.14,4.55-11.71-2.16-4.97-8.21-3.61-13.05-3.87-2.68-.14-5.88-.76-8.05-2.38-1.37-1.03-2.75-2.05-4.12-3.08-3.92-2.93-7.85-5.86-11.77-8.79-2.53-1.89-5.05-3.77-7.58-5.66-1.07-.8-2.05-1.46-2.92-2.49-2.04-2.41-2.92-5.13-3.61-8.14-.6-2.61-1.5-5.09-4.1-6.29-6.55-3.04-12.55,4.34-9,10.18"/>
      </g>
      <polygon class="cls-3" points="540.26 309.32 540.91 311.65 540.68 314.42 539.58 317.09 537.54 318.69 535.33 319.63 533.15 319.72 530.8 319 528.65 317.39 527.06 314.49 526.17 310.77 525.08 307.75 523.54 305.4 521.3 302.94 518.63 300.68 500.56 287.32 496.98 285.03 493.18 283.43 488.99 282.72 484.83 282.53 481.89 282.17 478.61 281.01 475.93 278.3 474.49 275.55 474.73 271.86 477.31 269.05 479.98 267.24 482.43 266.6 484.11 266.59 483.19 264.28 483.14 261.81 484.12 259.29 486.47 256.75 490.06 255.56 494.48 256.99 496.74 260.98 497.78 264.94 499.28 268.61 501.52 271.51 505.47 274.48 525.55 289.48 529.7 292.19 533.75 293.12 538.53 293.27 542.76 293.41 546.08 294.48 548.43 297.49 548.98 300.59 548.51 303.86 547.33 306.32 544.8 308.29 541.98 309.18 540.26 309.32"/>
    </g>
    <g>
      <g id="hueso-14" data-name="hueso">
        <path class="cls-2" d="m673.6,172.66c2.52-2.37,3.28-5.99,2.1-9.63-1.17-3.92-4.77-5.15-7.48-4.57-5.11.26-7.26,5.06-9.69,9.25-1.82,3.44-4.73,5.94-8.1,7.78-4.36,2.38-8.8,4.56-13.27,6.75-1.96.96-3.97,1.83-5.9,2.82-3.62,1.87-7.5,3.65-11.65,3.73-4.34.08-8.53-3.17-12.51-.26-5.79,4.23-2.38,12.91,4.27,12.83"/>
        <path class="cls-2" d="m612.88,199.82c-1.49,1.44-2.54,3.47-2.76,5.1-.34,5.41,3.54,8.75,8.35,9.39,5.41.34,6.96-5.66,9.4-9.85,1.35-2.32,3.35-4.89,5.79-6.08l4.62-2.27c4.4-2.16,8.79-4.31,13.19-6.47,2.83-1.39,5.66-2.78,8.49-4.16,1.19-.59,2.23-1.16,3.54-1.46,3.07-.71,5.9-.26,8.89.5,2.6.66,5.21.98,7.47-.78,5.69-4.45,1.86-13.15-4.96-12.65"/>
      </g>
      <polygon class="cls-3" points="611.16 201.53 608.8 201.04 606.43 199.57 604.56 197.37 604.06 194.84 604.23 192.44 605.15 190.45 606.86 188.7 609.27 187.52 612.58 187.42 616.3 188.32 619.48 188.73 622.27 188.44 625.48 187.56 628.72 186.21 648.84 176.22 652.52 174.08 655.67 171.43 658.21 168.02 660.28 164.4 661.93 161.95 664.46 159.56 668.1 158.41 671.2 158.39 674.37 160.27 675.7 163.86 676.09 167.06 675.54 169.53 674.79 171.03 677.27 171.27 679.49 172.35 681.28 174.36 682.47 177.61 681.9 181.36 678.61 184.63 674.02 184.83 670.03 183.95 666.08 183.61 662.48 184.28 658.03 186.44 635.52 197.48 631.22 199.93 628.55 203.11 626.24 207.3 624.18 211 621.71 213.47 617.97 214.19 614.96 213.27 612.26 211.36 610.61 209.19 610 206.03 610.5 203.12 611.16 201.53"/>
    </g>
    <g>
      <g id="hueso-15" data-name="hueso">
        <path class="cls-2" d="m511.28,60.38c.35-3.44-1.44-6.68-4.71-8.66-3.45-2.2-6.98-.77-8.65,1.44-3.7,3.54-2.18,8.57-1.28,13.33.88,3.79.31,7.59-1.04,11.19-1.74,4.65-3.67,9.21-5.62,13.79-.85,2.01-1.81,3.98-2.61,5.99-1.51,3.78-3.29,7.67-6.37,10.44-3.22,2.9-8.52,3.18-9.63,7.99-1.61,6.99,6.65,11.32,11.62,6.91"/>
        <path class="cls-2" d="m483.12,120.64c-.19,2.06.35,4.29,1.25,5.66,3.28,4.32,8.4,4.3,12.45,1.64,4.32-3.28,1.56-8.83.66-13.6-.5-2.64-.66-5.89.4-8.38.67-1.58,1.34-3.16,2.01-4.74,1.92-4.51,3.83-9.02,5.75-13.52,1.23-2.9,2.47-5.8,3.7-8.7.52-1.22.93-2.34,1.72-3.42,1.86-2.55,4.29-4.05,7.05-5.44,2.4-1.2,4.58-2.67,5.14-5.47,1.4-7.08-7.2-11.16-12.02-6.33"/>
      </g>
      <polygon class="cls-3" points="482.94 123.06 480.83 124.23 478.09 124.67 475.23 124.24 473.19 122.64 471.75 120.72 471.15 118.62 471.29 116.17 472.34 113.7 474.79 111.46 478.18 109.71 480.86 107.94 482.78 105.89 484.63 103.12 486.2 99.99 494.89 79.27 496.26 75.24 496.91 71.17 496.6 66.93 495.8 62.85 495.45 59.91 495.8 56.45 497.79 53.2 500.12 51.15 503.76 50.5 507.11 52.35 509.5 54.51 510.7 56.74 511.11 58.36 513.14 56.92 515.53 56.29 518.2 56.64 521.23 58.32 523.24 61.52 522.9 66.15 519.56 69.3 515.97 71.25 512.75 73.58 510.47 76.44 508.52 80.98 498.72 104.06 497.07 108.73 497.13 112.88 498.12 117.56 498.99 121.7 498.74 125.19 496.37 128.18 493.5 129.45 490.2 129.77 487.54 129.21 485.01 127.22 483.48 124.7 482.94 123.06"/>
    </g>
    <polygon class="cls-3" points="367.86 177.95 367.01 180.21 365.21 182.32 362.75 183.85 360.16 183.96 357.82 183.42 355.99 182.22 354.52 180.26 353.72 177.7 354.12 174.41 355.57 170.87 356.46 167.79 356.59 164.98 356.21 161.68 355.37 158.28 348.54 136.87 346.97 132.92 344.83 129.4 341.84 126.37 338.58 123.78 336.41 121.78 334.43 118.91 333.84 115.14 334.29 112.08 336.63 109.22 340.38 108.45 343.6 108.55 345.96 109.46 347.32 110.43 347.94 108.03 349.34 105.99 351.6 104.52 354.99 103.84 358.61 104.97 361.35 108.72 360.85 113.28 359.38 117.1 358.44 120.95 358.57 124.61 360.03 129.33 367.53 153.26 369.31 157.88 372.05 161 375.84 163.91 379.19 166.51 381.26 169.32 381.4 173.13 380.03 175.97 377.73 178.34 375.34 179.65 372.13 179.77 369.33 178.84 367.86 177.95"/>
    <g>
      <g id="hueso-16" data-name="hueso">
        <path class="cls-2" d="m349.05,112.23c-1.96-2.84-5.43-4.15-9.21-3.53-4.05.57-5.81,3.94-5.64,6.71-.51,5.09,3.9,7.93,7.68,10.98,3.13,2.31,5.16,5.57,6.47,9.18,1.7,4.67,3.18,9.39,4.68,14.14.65,2.08,1.21,4.2,1.9,6.26,1.31,3.86,2.48,7.97,1.93,12.08-.57,4.3-4.42,7.95-2.14,12.32,3.31,6.36,12.4,4.29,13.32-2.28"/>
        <path class="cls-2" d="m366.75,176.34c1.19,1.69,3.05,3.04,4.63,3.5,5.3,1.15,9.18-2.18,10.54-6.84,1.15-5.3-4.55-7.73-8.32-10.77-2.09-1.68-4.33-4.05-5.14-6.64-.51-1.64-1.03-3.27-1.54-4.91-1.47-4.67-2.94-9.34-4.41-14.02-.95-3.01-1.89-6.01-2.84-9.02-.4-1.27-.81-2.38-.91-3.72-.24-3.14.63-5.87,1.83-8.71,1.04-2.47,1.76-5,.35-7.5-3.54-6.3-12.72-3.82-13.25,2.99"/>
      </g>
      <polygon class="cls-3" points="368.18 178.3 367.34 180.57 365.54 182.68 363.08 184.21 360.49 184.32 358.15 183.79 356.33 182.58 354.85 180.62 354.04 178.06 354.45 174.77 355.9 171.24 356.78 168.16 356.91 165.34 356.53 162.04 355.69 158.64 348.84 137.24 347.28 133.29 345.13 129.77 342.14 126.75 338.88 124.16 336.71 122.15 334.73 119.29 334.13 115.52 334.58 112.45 336.92 109.6 340.67 108.82 343.89 108.92 346.25 109.83 347.61 110.8 348.22 108.39 349.63 106.36 351.89 104.89 355.28 104.2 358.9 105.33 361.64 109.08 361.14 113.64 359.68 117.46 358.74 121.31 358.87 124.97 360.33 129.69 367.85 153.61 369.63 158.23 372.37 161.35 376.16 164.27 379.51 166.86 381.58 169.67 381.72 173.48 380.36 176.32 378.06 178.7 375.67 180 372.46 180.13 369.66 179.2 368.18 178.3"/>
    </g>
    <polygon class="cls-3" points="742.05 108.7 743.55 110.59 744.43 113.23 744.46 116.12 743.22 118.39 741.56 120.12 739.58 121.06 737.14 121.31 734.53 120.68 731.93 118.63 729.65 115.56 727.47 113.21 725.13 111.65 722.1 110.27 718.76 109.23 696.9 104.03 692.71 103.32 688.59 103.35 684.45 104.34 680.55 105.79 677.71 106.62 674.24 106.83 670.7 105.39 668.31 103.43 667.07 99.94 668.35 96.34 670.1 93.63 672.1 92.08 673.63 91.41 671.89 89.65 670.87 87.39 670.78 84.7 671.95 81.44 674.78 78.93 679.41 78.51 683.06 81.3 685.57 84.53 688.38 87.32 691.58 89.11 696.38 90.29 720.74 96.22 725.61 97.09 729.7 96.35 734.16 94.61 738.1 93.09 741.59 92.77 744.92 94.62 746.64 97.25 747.49 100.45 747.38 103.17 745.82 105.98 743.58 107.9 742.05 108.7"/>
    <polygon class="cls-3" points="670.31 362.9 672.66 363.48 674.97 365.03 676.76 367.3 677.16 369.86 676.9 372.25 675.91 374.2 674.13 375.89 671.67 376.97 668.36 376.95 664.68 375.9 661.52 375.37 658.71 375.56 655.48 376.32 652.19 377.54 631.7 386.75 627.95 388.75 624.7 391.29 622.03 394.6 619.83 398.13 618.08 400.52 615.46 402.81 611.78 403.82 608.68 403.73 605.58 401.72 604.39 398.08 604.12 394.87 604.76 392.43 605.57 390.96 603.11 390.63 600.93 389.46 599.21 387.38 598.15 384.09 598.86 380.37 602.27 377.22 606.86 377.2 610.82 378.22 614.75 378.72 618.38 378.18 622.9 376.19 645.82 366.02 650.21 363.73 653 360.65 655.47 356.56 657.66 352.94 660.23 350.56 664 349.99 666.97 351.03 669.59 353.04 671.16 355.27 671.64 358.44 671.04 361.33 670.31 362.9"/>
    <g id="hueso-17" data-name="hueso">
      <path class="cls-2" d="m606.83,389.37c-2.6,2.27-3.51,5.86-2.47,9.55,1.02,3.96,4.57,5.33,7.3,4.85,5.12-.07,7.44-4.78,10.04-8.87,1.95-3.37,4.95-5.76,8.39-7.47,4.45-2.21,8.97-4.22,13.52-6.24,2-.89,4.04-1.67,6-2.6,3.69-1.73,7.64-3.36,11.78-3.28,4.34.08,8.4,3.49,12.49.73,5.94-4.01,2.87-12.81-3.77-12.98"/>
      <path class="cls-2" d="m668.53,364.55c1.55-1.38,2.67-3.37,2.95-4.99.55-5.39-3.2-8.88-7.98-9.7-5.39-.55-7.17,5.39-9.77,9.48-1.44,2.27-3.54,4.76-6.01,5.86-1.57.7-3.14,1.39-4.7,2.09-4.48,1.99-8.95,3.97-13.43,5.96-2.88,1.28-5.76,2.56-8.64,3.84-1.22.54-2.28,1.07-3.6,1.33-3.1.6-5.9.04-8.86-.84-2.57-.76-5.17-1.18-7.49.49-5.86,4.23-2.36,13.07,4.47,12.83"/>
    </g>
  </g>
  <g id="circulos" class="cls-5">
    <path class="cls-4" d="m315.57,524.53c-4.61,1.71-5.57,8.46-.66,10.45,2.08.84,4.66.27,6.18-1.39s1.88-4.27.87-6.27c-1.11-2.2-4-3.68-6.39-2.79Z"/>
    <path class="cls-4" d="m41.32,350.73c-7.72,2.86-9.33,14.17-1.1,17.51,3.49,1.41,7.8.44,10.35-2.33,2.55-2.77,3.15-7.15,1.45-10.51-1.86-3.68-6.69-6.16-10.71-4.67Z"/>
    <path class="cls-4" d="m149.56,228.19c-7.72,2.86-9.33,14.17-1.1,17.51,3.49,1.41,7.8.44,10.35-2.33,2.55-2.77,3.15-7.15,1.45-10.51-1.86-3.68-6.69-6.16-10.71-4.67Z"/>
    <path class="cls-4" d="m246.36,311.63c-7.72,2.86-9.33,14.17-1.1,17.51,3.49,1.41,7.8.44,10.35-2.33,2.55-2.77,3.15-7.15,1.45-10.51-1.86-3.68-6.69-6.16-10.71-4.67Z"/>
    <path class="cls-4" d="m143.92,265.61c-4.61,1.71-5.57,8.46-.66,10.45,2.08.84,4.66.27,6.18-1.39s1.88-4.27.87-6.27c-1.11-2.2-4-3.68-6.39-2.79Z"/>
    <path class="cls-4" d="m213.06,333.32c-4.61,1.71-5.57,8.46-.66,10.45,2.08.84,4.66.27,6.18-1.39s1.88-4.27.87-6.27c-1.11-2.2-4-3.68-6.39-2.79Z"/>
    <path class="cls-4" d="m329.88,356.21c-4.61,1.71-5.57,8.46-.66,10.45,2.08.84,4.66.27,6.18-1.39s1.88-4.27.87-6.27c-1.11-2.2-4-3.68-6.39-2.79Z"/>
    <path class="cls-4" d="m197.3,291.51c-3.23,1.2-3.91,5.93-.46,7.33,1.46.59,3.27.19,4.33-.97,1.07-1.16,1.32-3,.61-4.4-.78-1.54-2.8-2.58-4.48-1.96Z"/>
    <path class="cls-4" d="m363.18,217.7c-7.72,2.86-9.33,14.17-1.1,17.51,3.49,1.41,7.8.44,10.35-2.33,2.55-2.77,3.15-7.15,1.45-10.51-1.86-3.68-6.69-6.16-10.71-4.67Z"/>
    <path class="cls-4" d="m344.66,242.72c-4.61,1.71-5.57,8.46-.66,10.45,2.08.84,4.66.27,6.18-1.39s1.88-4.27.87-6.27c-1.11-2.2-4-3.68-6.39-2.79Z"/>
    <path class="cls-4" d="m320.32,224.75c-3.23,1.2-3.91,5.93-.46,7.33,1.46.59,3.27.19,4.33-.97,1.07-1.16,1.32-3,.61-4.4-.78-1.54-2.8-2.58-4.48-1.96Z"/>
    <path class="cls-4" d="m378.97,322.98c-3.23,1.2-3.91,5.93-.46,7.33,1.46.59,3.27.19,4.33-.97,1.07-1.16,1.32-3,.61-4.4-.78-1.54-2.8-2.58-4.48-1.96Z"/>
    <path class="cls-4" d="m37.11,286.59c-4.61,1.71-5.57,8.46-.66,10.45,2.08.84,4.66.27,6.18-1.39s1.88-4.27.87-6.27c-1.11-2.2-4-3.68-6.39-2.79Z"/>
    <path class="cls-4" d="m2.75,278.63c-3.23,1.2-3.91,5.93-.46,7.33,1.46.59,3.27.19,4.33-.97,1.07-1.16,1.32-3,.61-4.4-.78-1.54-2.8-2.58-4.48-1.96Z"/>
    <path class="cls-4" d="m70.46,376.86c-3.23,1.2-3.91,5.93-.46,7.33,1.46.59,3.27.19,4.33-.97,1.07-1.16,1.32-3,.61-4.4-.78-1.54-2.8-2.58-4.48-1.96Z"/>
    <path class="cls-4" d="m441.38,350.73c-7.72,2.86-9.33,14.17-1.1,17.51,3.49,1.41,7.8.44,10.35-2.33,2.55-2.77,3.15-7.15,1.45-10.51-1.86-3.68-6.69-6.16-10.71-4.67Z"/>
    <path class="cls-4" d="m549.62,228.19c-7.72,2.86-9.33,14.17-1.1,17.51,3.49,1.41,7.8.44,10.35-2.33,2.55-2.77,3.15-7.15,1.45-10.51-1.86-3.68-6.69-6.16-10.71-4.67Z"/>
    <path class="cls-4" d="m678.37,294.94c-7.72,2.86-9.33,14.17-1.1,17.51,3.49,1.41,7.8.44,10.35-2.33,2.55-2.77,3.15-7.15,1.45-10.51-1.86-3.68-6.69-6.16-10.71-4.67Z"/>
    <path class="cls-4" d="m543.98,265.61c-4.61,1.71-5.57,8.46-.66,10.45,2.08.84,4.66.27,6.18-1.39s1.88-4.27.87-6.27c-1.11-2.2-4-3.68-6.39-2.79Z"/>
    <path class="cls-4" d="m645.06,316.63c-4.61,1.71-5.57,8.46-.66,10.45,2.08.84,4.66.27,6.18-1.39s1.88-4.27.87-6.27c-1.11-2.2-4-3.68-6.39-2.79Z"/>
    <path class="cls-4" d="m729.94,356.21c-4.61,1.71-5.57,8.46-.66,10.45,2.08.84,4.66.27,6.18-1.39s1.88-4.27.87-6.27c-1.11-2.2-4-3.68-6.39-2.79Z"/>
    <path class="cls-4" d="m610.71,308.67c-3.23,1.2-3.91,5.93-.46,7.33,1.46.59,3.27.19,4.33-.97,1.07-1.16,1.32-3,.61-4.4-.78-1.54-2.8-2.58-4.48-1.96Z"/>
    <path class="cls-4" d="m763.24,217.7c-7.72,2.86-9.33,14.17-1.1,17.51,3.49,1.41,7.8.44,10.35-2.33,2.55-2.77,3.15-7.15,1.45-10.51-1.86-3.68-6.69-6.16-10.71-4.67Z"/>
    <path class="cls-4" d="m744.72,242.72c-4.61,1.71-5.57,8.46-.66,10.45,2.08.84,4.66.27,6.18-1.39s1.88-4.27.87-6.27c-1.11-2.2-4-3.68-6.39-2.79Z"/>
    <path class="cls-4" d="m720.38,224.75c-3.23,1.2-3.91,5.93-.46,7.33,1.46.59,3.27.19,4.33-.97,1.07-1.16,1.32-3,.61-4.4-.78-1.54-2.8-2.58-4.48-1.96Z"/>
    <path class="cls-4" d="m779.03,322.98c-3.23,1.2-3.91,5.93-.46,7.33,1.46.59,3.27.19,4.33-.97,1.07-1.16,1.32-3,.61-4.4-.78-1.54-2.8-2.58-4.48-1.96Z"/>
    <path class="cls-4" d="m437.17,286.59c-4.61,1.71-5.57,8.46-.66,10.45,2.08.84,4.66.27,6.18-1.39s1.88-4.27.87-6.27c-1.11-2.2-4-3.68-6.39-2.79Z"/>
    <path class="cls-4" d="m402.81,278.63c-3.23,1.2-3.91,5.93-.46,7.33,1.46.59,3.27.19,4.33-.97,1.07-1.16,1.32-3,.61-4.4-.78-1.54-2.8-2.58-4.48-1.96Z"/>
    <path class="cls-4" d="m470.52,376.86c-3.23,1.2-3.91,5.93-.46,7.33,1.46.59,3.27.19,4.33-.97,1.07-1.16,1.32-3,.61-4.4-.78-1.54-2.8-2.58-4.48-1.96Z"/>
    <path class="cls-4" d="m41.32,152.85c-7.72,2.86-9.33,14.17-1.1,17.51,3.49,1.41,7.8.44,10.35-2.33,2.55-2.77,3.15-7.15,1.45-10.51-1.86-3.68-6.69-6.16-10.71-4.67Z"/>
    <path class="cls-4" d="m149.56,30.3c-7.72,2.86-9.33,14.17-1.1,17.51,3.49,1.41,7.8.44,10.35-2.33,2.55-2.77,3.15-7.15,1.45-10.51-1.86-3.68-6.69-6.16-10.71-4.67Z"/>
    <path class="cls-4" d="m235.39,154.28c-7.72,2.86-9.33,14.17-1.1,17.51,3.49,1.41,7.8.44,10.35-2.33,2.55-2.77,3.15-7.15,1.45-10.51-1.86-3.68-6.69-6.16-10.71-4.67Z"/>
    <path class="cls-4" d="m143.92,67.73c-4.61,1.71-5.57,8.46-.66,10.45,2.08.84,4.66.27,6.18-1.39s1.88-4.27.87-6.27c-1.11-2.2-4-3.68-6.39-2.79Z"/>
    <path class="cls-4" d="m202.09,175.97c-4.61,1.71-5.57,8.46-.66,10.45,2.08.84,4.66.27,6.18-1.39s1.88-4.27.87-6.27c-1.11-2.2-4-3.68-6.39-2.79Z"/>
    <path class="cls-4" d="m329.88,158.32c-4.61,1.71-5.57,8.46-.66,10.45,2.08.84,4.66.27,6.18-1.39s1.88-4.27.87-6.27c-1.11-2.2-4-3.68-6.39-2.79Z"/>
    <path class="cls-4" d="m178.7,127.48c-3.23,1.2-3.91,5.93-.46,7.33,1.46.59,3.27.19,4.33-.97,1.07-1.16,1.32-3,.61-4.4-.78-1.54-2.8-2.58-4.48-1.96Z"/>
    <path class="cls-4" d="m281.7,5.89c-3.23,1.2-3.91,5.93-.46,7.33,1.46.59,3.27.19,4.33-.97,1.07-1.16,1.32-3,.61-4.4-.78-1.54-2.8-2.58-4.48-1.96Z"/>
    <path class="cls-4" d="m363.18,19.81c-7.72,2.86-9.33,14.17-1.1,17.51,3.49,1.41,7.8.44,10.35-2.33,2.55-2.77,3.15-7.15,1.45-10.51-1.86-3.68-6.69-6.16-10.71-4.67Z"/>
    <path class="cls-4" d="m344.66,44.84c-4.61,1.71-5.57,8.46-.66,10.45,2.08.84,4.66.27,6.18-1.39s1.88-4.27.87-6.27c-1.11-2.2-4-3.68-6.39-2.79Z"/>
    <path class="cls-4" d="m320.32,26.87c-3.23,1.2-3.91,5.93-.46,7.33,1.46.59,3.27.19,4.33-.97,1.07-1.16,1.32-3,.61-4.4-.78-1.54-2.8-2.58-4.48-1.96Z"/>
    <path class="cls-4" d="m378.97,125.09c-3.23,1.2-3.91,5.93-.46,7.33,1.46.59,3.27.19,4.33-.97,1.07-1.16,1.32-3,.61-4.4-.78-1.54-2.8-2.58-4.48-1.96Z"/>
    <path class="cls-4" d="m37.11,88.71c-4.61,1.71-5.57,8.46-.66,10.45,2.08.84,4.66.27,6.18-1.39s1.88-4.27.87-6.27c-1.11-2.2-4-3.68-6.39-2.79Z"/>
    <path class="cls-4" d="m2.75,80.75c-3.23,1.2-3.91,5.93-.46,7.33,1.46.59,3.27.19,4.33-.97,1.07-1.16,1.32-3,.61-4.4-.78-1.54-2.8-2.58-4.48-1.96Z"/>
    <path class="cls-4" d="m70.46,178.98c-3.23,1.2-3.91,5.93-.46,7.33,1.46.59,3.27.19,4.33-.97,1.07-1.16,1.32-3,.61-4.4-.78-1.54-2.8-2.58-4.48-1.96Z"/>
    <path class="cls-4" d="m441.38,152.85c-7.72,2.86-9.33,14.17-1.1,17.51,3.49,1.41,7.8.44,10.35-2.33,2.55-2.77,3.15-7.15,1.45-10.51-1.86-3.68-6.69-6.16-10.71-4.67Z"/>
    <path class="cls-4" d="m549.62,30.3c-7.72,2.86-9.33,14.17-1.1,17.51,3.49,1.41,7.8.44,10.35-2.33,2.55-2.77,3.15-7.15,1.45-10.51-1.86-3.68-6.69-6.16-10.71-4.67Z"/>
    <path class="cls-4" d="m646.42,113.75c-7.72,2.86-9.33,14.17-1.1,17.51,3.49,1.41,7.8.44,10.35-2.33,2.55-2.77,3.15-7.15,1.45-10.51-1.86-3.68-6.69-6.16-10.71-4.67Z"/>
    <path class="cls-4" d="m578.78,85.37c-4.61,1.71-5.57,8.46-.66,10.45,2.08.84,4.66.27,6.18-1.39s1.88-4.27.87-6.27c-1.11-2.2-4-3.68-6.39-2.79Z"/>
    <path class="cls-4" d="m613.12,135.44c-4.61,1.71-5.57,8.46-.66,10.45,2.08.84,4.66.27,6.18-1.39s1.88-4.27.87-6.27c-1.11-2.2-4-3.68-6.39-2.79Z"/>
    <path class="cls-4" d="m729.94,158.32c-4.61,1.71-5.57,8.46-.66,10.45,2.08.84,4.66.27,6.18-1.39s1.88-4.27.87-6.27c-1.11-2.2-4-3.68-6.39-2.79Z"/>
    <path class="cls-4" d="m578.76,127.48c-3.23,1.2-3.91,5.93-.46,7.33,1.46.59,3.27.19,4.33-.97,1.07-1.16,1.32-3,.61-4.4-.78-1.54-2.8-2.58-4.48-1.96Z"/>
    <path class="cls-4" d="m763.24,19.81c-7.72,2.86-9.33,14.17-1.1,17.51,3.49,1.41,7.8.44,10.35-2.33,2.55-2.77,3.15-7.15,1.45-10.51-1.86-3.68-6.69-6.16-10.71-4.67Z"/>
    <path class="cls-4" d="m744.72,44.84c-4.61,1.71-5.57,8.46-.66,10.45,2.08.84,4.66.27,6.18-1.39s1.88-4.27.87-6.27c-1.11-2.2-4-3.68-6.39-2.79Z"/>
    <path class="cls-4" d="m720.38,26.87c-3.23,1.2-3.91,5.93-.46,7.33,1.46.59,3.27.19,4.33-.97,1.07-1.16,1.32-3,.61-4.4-.78-1.54-2.8-2.58-4.48-1.96Z"/>
    <path class="cls-4" d="m779.03,125.09c-3.23,1.2-3.91,5.93-.46,7.33,1.46.59,3.27.19,4.33-.97,1.07-1.16,1.32-3,.61-4.4-.78-1.54-2.8-2.58-4.48-1.96Z"/>
    <path class="cls-4" d="m437.17,88.71c-4.61,1.71-5.57,8.46-.66,10.45,2.08.84,4.66.27,6.18-1.39s1.88-4.27.87-6.27c-1.11-2.2-4-3.68-6.39-2.79Z"/>
    <path class="cls-4" d="m402.81,80.75c-3.23,1.2-3.91,5.93-.46,7.33,1.46.59,3.27.19,4.33-.97,1.07-1.16,1.32-3,.61-4.4-.78-1.54-2.8-2.58-4.48-1.96Z"/>
    <path class="cls-4" d="m470.52,178.98c-3.23,1.2-3.91,5.93-.46,7.33,1.46.59,3.27.19,4.33-.97,1.07-1.16,1.32-3,.61-4.4-.78-1.54-2.8-2.58-4.48-1.96Z"/>
    <path class="cls-4" d="m41.32,547.19c-7.72,2.86-9.33,14.17-1.1,17.51,3.49,1.41,7.8.44,10.35-2.33,2.55-2.77,3.15-7.15,1.45-10.51-1.86-3.68-6.69-6.16-10.71-4.67Z"/>
    <path class="cls-4" d="m149.56,424.64c-7.72,2.86-9.33,14.17-1.1,17.51,3.49,1.41,7.8.44,10.35-2.33,2.55-2.77,3.15-7.15,1.45-10.51-1.86-3.68-6.69-6.16-10.71-4.67Z"/>
    <path class="cls-4" d="m236.82,519.53c-7.72,2.86-9.33,14.17-1.1,17.51,3.49,1.41,7.8.44,10.35-2.33,2.55-2.77,3.15-7.15,1.45-10.51-1.86-3.68-6.69-6.16-10.71-4.67Z"/>
    <path class="cls-4" d="m143.92,462.07c-4.61,1.71-5.57,8.46-.66,10.45,2.08.84,4.66.27,6.18-1.39s1.88-4.27.87-6.27c-1.11-2.2-4-3.68-6.39-2.79Z"/>
    <path class="cls-4" d="m203.52,541.22c-4.61,1.71-5.57,8.46-.66,10.45,2.08.84,4.66.27,6.18-1.39s1.88-4.27.87-6.27c-1.11-2.2-4-3.68-6.39-2.79Z"/>
    <path class="cls-4" d="m197.3,481.76c-3.23,1.2-3.91,5.93-.46,7.33,1.46.59,3.27.19,4.33-.97,1.07-1.16,1.32-3,.61-4.4-.78-1.54-2.8-2.58-4.48-1.96Z"/>
    <path class="cls-4" d="m363.18,414.15c-7.72,2.86-9.33,14.17-1.1,17.51,3.49,1.41,7.8.44,10.35-2.33,2.55-2.77,3.15-7.15,1.45-10.51-1.86-3.68-6.69-6.16-10.71-4.67Z"/>
    <path class="cls-4" d="m344.66,439.18c-4.61,1.71-5.57,8.46-.66,10.45,2.08.84,4.66.27,6.18-1.39s1.88-4.27.87-6.27c-1.11-2.2-4-3.68-6.39-2.79Z"/>
    <path class="cls-4" d="m320.32,421.21c-3.23,1.2-3.91,5.93-.46,7.33,1.46.59,3.27.19,4.33-.97,1.07-1.16,1.32-3,.61-4.4-.78-1.54-2.8-2.58-4.48-1.96Z"/>
    <path class="cls-4" d="m378.97,506.08c-3.23,1.2-3.91,5.93-.46,7.33,1.46.59,3.27.19,4.33-.97,1.07-1.16,1.32-3,.61-4.4-.78-1.54-2.8-2.58-4.48-1.96Z"/>
    <path class="cls-4" d="m37.11,483.05c-4.61,1.71-5.57,8.46-.66,10.45,2.08.84,4.66.27,6.18-1.39s1.88-4.27.87-6.27c-1.11-2.2-4-3.68-6.39-2.79Z"/>
    <path class="cls-4" d="m2.75,475.09c-3.23,1.2-3.91,5.93-.46,7.33,1.46.59,3.27.19,4.33-.97,1.07-1.16,1.32-3,.61-4.4-.78-1.54-2.8-2.58-4.48-1.96Z"/>
    <path class="cls-4" d="m70.46,573.31c-3.23,1.2-3.91,5.93-.46,7.33,1.46.59,3.27.19,4.33-.97,1.07-1.16,1.32-3,.61-4.4-.78-1.54-2.8-2.58-4.48-1.96Z"/>
    <path class="cls-4" d="m434.71,522.87c-7.72,2.86-9.33,14.17-1.1,17.51,3.49,1.41,7.8.44,10.35-2.33,2.55-2.77,3.15-7.15,1.45-10.51-1.86-3.68-6.69-6.16-10.71-4.67Z"/>
    <path class="cls-4" d="m549.62,424.64c-7.72,2.86-9.33,14.17-1.1,17.51,3.49,1.41,7.8.44,10.35-2.33,2.55-2.77,3.15-7.15,1.45-10.51-1.86-3.68-6.69-6.16-10.71-4.67Z"/>
    <path class="cls-4" d="m624.96,503.32c-7.72,2.86-9.33,14.17-1.1,17.51,3.49,1.41,7.8.44,10.35-2.33,2.55-2.77,3.15-7.15,1.45-10.51-1.86-3.68-6.69-6.16-10.71-4.67Z"/>
    <path class="cls-4" d="m543.98,462.07c-4.61,1.71-5.57,8.46-.66,10.45,2.08.84,4.66.27,6.18-1.39s1.88-4.27.87-6.27c-1.11-2.2-4-3.68-6.39-2.79Z"/>
    <path class="cls-4" d="m578.31,520.72c-4.61,1.71-5.57,8.46-.66,10.45,2.08.84,4.66.27,6.18-1.39s1.88-4.27.87-6.27c-1.11-2.2-4-3.68-6.39-2.79Z"/>
    <path class="cls-4" d="m729.94,552.66c-4.61,1.71-5.57,8.46-.66,10.45,2.08.84,4.66.27,6.18-1.39s1.88-4.27.87-6.27c-1.11-2.2-4-3.68-6.39-2.79Z"/>
    <path class="cls-4" d="m563.5,563.3c-3.23,1.2-3.91,5.93-.46,7.33,1.46.59,3.27.19,4.33-.97,1.07-1.16,1.32-3,.61-4.4-.78-1.54-2.8-2.58-4.48-1.96Z"/>
    <path class="cls-4" d="m763.24,414.15c-7.72,2.86-9.33,14.17-1.1,17.51,3.49,1.41,7.8.44,10.35-2.33,2.55-2.77,3.15-7.15,1.45-10.51-1.86-3.68-6.69-6.16-10.71-4.67Z"/>
    <path class="cls-4" d="m744.72,439.18c-4.61,1.71-5.57,8.46-.66,10.45,2.08.84,4.66.27,6.18-1.39s1.88-4.27.87-6.27c-1.11-2.2-4-3.68-6.39-2.79Z"/>
    <path class="cls-4" d="m720.38,421.21c-3.23,1.2-3.91,5.93-.46,7.33,1.46.59,3.27.19,4.33-.97,1.07-1.16,1.32-3,.61-4.4-.78-1.54-2.8-2.58-4.48-1.96Z"/>
    <path class="cls-4" d="m784.27,568.07c-3.23,1.2-3.91,5.93-.46,7.33,1.46.59,3.27.19,4.33-.97,1.07-1.16,1.32-3,.61-4.4-.78-1.54-2.8-2.58-4.48-1.96Z"/>
    <path class="cls-4" d="m437.17,483.05c-4.61,1.71-5.57,8.46-.66,10.45,2.08.84,4.66.27,6.18-1.39s1.88-4.27.87-6.27c-1.11-2.2-4-3.68-6.39-2.79Z"/>
    <path class="cls-4" d="m366.12,574.6c-4.61,1.71-5.57,8.46-.66,10.45,2.08.84,4.66.27,6.18-1.39s1.88-4.27.87-6.27c-1.11-2.2-4-3.68-6.39-2.79Z"/>
    <path class="cls-4" d="m402.81,475.09c-3.23,1.2-3.91,5.93-.46,7.33,1.46.59,3.27.19,4.33-.97,1.07-1.16,1.32-3,.61-4.4-.78-1.54-2.8-2.58-4.48-1.96Z"/>
    <path class="cls-4" d="m451.92,573.31c-3.23,1.2-3.91,5.93-.46,7.33,1.46.59,3.27.19,4.33-.97,1.07-1.16,1.32-3,.61-4.4-.78-1.54-2.8-2.58-4.48-1.96Z"/>
  </g>
</svg>