<?xml version="1.0" encoding="UTF-8"?>
<svg id="Capa_2" data-name="Capa 2" xmlns="http://www.w3.org/2000/svg" xmlns:xlink="http://www.w3.org/1999/xlink" viewBox="0 0 1878.42 2823.35">
  <defs>
    <style>
      .cls-1 {
        fill: #f0c9ae;
      }

      .cls-1, .cls-2, .cls-3, .cls-4, .cls-5, .cls-6, .cls-7, .cls-8, .cls-9, .cls-10, .cls-11, .cls-12, .cls-13, .cls-14, .cls-15, .cls-16, .cls-17, .cls-18, .cls-19, .cls-20, .cls-21, .cls-22, .cls-23, .cls-24, .cls-25, .cls-26, .cls-27, .cls-28, .cls-29, .cls-30, .cls-31, .cls-32, .cls-33, .cls-34, .cls-35, .cls-36, .cls-37, .cls-38, .cls-39, .cls-40, .cls-41, .cls-42, .cls-43, .cls-44, .cls-45, .cls-46, .cls-47, .cls-48, .cls-49, .cls-50, .cls-51, .cls-52, .cls-53, .cls-54, .cls-55, .cls-56, .cls-57, .cls-58, .cls-59, .cls-60, .cls-61, .cls-62, .cls-63, .cls-64, .cls-65, .cls-66, .cls-67, .cls-68, .cls-69, .cls-70, .cls-71, .cls-72, .cls-73, .cls-74, .cls-75, .cls-76, .cls-77, .cls-78, .cls-79, .cls-80, .cls-81, .cls-82, .cls-83, .cls-84, .cls-85, .cls-86, .cls-87, .cls-88, .cls-89, .cls-90, .cls-91, .cls-92, .cls-93, .cls-94, .cls-95, .cls-96, .cls-97, .cls-98, .cls-99, .cls-100 {
        fill-rule: evenodd;
      }

      .cls-2 {
        fill: #f7d9c1;
      }

      .cls-3 {
        fill: #f7dac2;
      }

      .cls-4 {
        fill: #edc3a7;
      }

      .cls-5 {
        fill: #f9ddc6;
      }

      .cls-6 {
        opacity: .5;
      }

      .cls-6, .cls-16, .cls-21, .cls-22, .cls-97 {
        fill: #fff;
      }

      .cls-7 {
        fill: #fee9d3;
      }

      .cls-8 {
        fill: #f8dcc5;
      }

      .cls-9 {
        fill: #fbe1cb;
      }

      .cls-10 {
        fill: #fce5cf;
      }

      .cls-11 {
        fill: #fbe2cc;
      }

      .cls-12 {
        fill: #fae1ca;
      }

      .cls-13 {
        fill: #efc6ab;
      }

      .cls-14 {
        fill: #fee8d2;
      }

      .cls-15 {
        fill: #f6d7be;
      }

      .cls-17 {
        fill: #fee8d3;
      }

      .cls-18 {
        fill: #f5d5bd;
      }

      .cls-19 {
        fill: #f8dcc4;
      }

      .cls-20 {
        fill: #f9dec7;
      }

      .cls-21 {
        opacity: .46;
      }

      .cls-22 {
        opacity: .8;
      }

      .cls-23 {
        fill: #e8b79a;
      }

      .cls-24 {
        fill: #f4d3ba;
      }

      .cls-25 {
        fill: #f0c9af;
      }

      .cls-26 {
        fill: #f1cbb1;
      }

      .cls-27 {
        fill: #f3d1b7;
      }

      .cls-28 {
        fill: #edc2a6;
      }

      .cls-29 {
        fill: #ffead5;
      }

      .cls-30 {
        fill: #eabb9e;
      }

      .cls-31 {
        fill: #eabb9f;
      }

      .cls-32 {
        fill: #e9ba9e;
      }

      .cls-33 {
        fill: #ecbfa3;
      }

      .cls-34 {
        fill: #ffebd5;
      }

      .cls-35 {
        fill: #f0c8ae;
      }

      .cls-36 {
        fill: #f7d8c0;
      }

      .cls-37 {
        fill: #f3d0b7;
      }

      .cls-38 {
        fill: #f7d8c1;
      }

      .cls-39 {
        fill: #eec6ab;
      }

      .cls-40 {
        fill: #efc6ac;
      }

      .cls-41 {
        fill: #f2cfb5;
      }

      .cls-42 {
        fill: #f2cdb3;
      }

      .cls-101, .cls-59 {
        fill: #50124c;
      }

      .cls-43 {
        fill: #fce4cd;
      }

      .cls-44 {
        fill: #f1ccb2;
      }

      .cls-45 {
        fill: #f5d4bb;
      }

      .cls-46 {
        fill: #fde6d0;
      }

      .cls-47 {
        fill: #f2cdb4;
      }

      .cls-48 {
        fill: #f8dbc3;
      }

      .cls-49 {
        fill: #f6d6be;
      }

      .cls-50 {
        fill: #ebbea1;
      }

      .cls-51 {
        fill: #f8dac3;
      }

      .cls-52 {
        fill: #efc8ad;
      }

      .cls-53 {
        fill: #f3d1b8;
      }

      .cls-54 {
        fill: #f2ceb4;
      }

      .cls-102 {
        clip-path: url(#clippath);
      }

      .cls-55 {
        fill: #fbe3cd;
      }

      .cls-103 {
        stroke: #50124c;
        stroke-linecap: round;
        stroke-linejoin: round;
        stroke-width: 55px;
      }

      .cls-103, .cls-104 {
        fill: none;
      }

      .cls-56 {
        fill: #fae0ca;
      }

      .cls-104 {
        clip-rule: evenodd;
      }

      .cls-57 {
        fill: #fee9d4;
      }

      .cls-58 {
        fill: #eec4a9;
      }

      .cls-59, .cls-84 {
        opacity: .2;
      }

      .cls-60 {
        fill: #fce4ce;
      }

      .cls-61 {
        fill: #f0cab0;
      }

      .cls-62 {
        fill: #eabda0;
      }

      .cls-63 {
        fill: #ebbfa3;
      }

      .cls-64 {
        fill: #fde7d2;
      }

      .cls-65 {
        fill: #efc7ac;
      }

      .cls-66 {
        fill: #edc2a7;
      }

      .cls-67 {
        fill: #edc3a8;
      }

      .cls-68 {
        fill: #f5d5bc;
      }

      .cls-69 {
        fill: #f6d7bf;
      }

      .cls-70 {
        fill: #f2ceb5;
      }

      .cls-71 {
        fill: #f6d6bd;
      }

      .cls-72 {
        fill: #ebbea2;
      }

      .cls-73 {
        fill: #feead4;
      }

      .cls-74 {
        fill: #eabca0;
      }

      .cls-75 {
        fill: #f4d1b8;
      }

      .cls-76 {
        fill: #f3d0b6;
      }

      .cls-77 {
        fill: #eec5aa;
      }

      .cls-78 {
        fill: #f7d9c2;
      }

      .cls-79 {
        fill: #efc7ad;
      }

      .cls-80 {
        fill: #eabc9f;
      }

      .cls-81 {
        fill: #f6d8c0;
      }

      .cls-82 {
        fill: #f1cdb3;
      }

      .cls-83 {
        fill: #e9ba9d;
      }

      .cls-84 {
        fill: #4a2860;
      }

      .cls-85 {
        fill: #f9dcc5;
      }

      .cls-86 {
        fill: #fbe2cb;
      }

      .cls-87 {
        fill: #ecc0a4;
      }

      .cls-88 {
        fill: #f3cfb6;
      }

      .cls-89 {
        fill: #ecc1a5;
      }

      .cls-90 {
        fill: #ffebd6;
      }

      .cls-91 {
        fill: #e8b89b;
      }

      .cls-92 {
        fill: #ebbda1;
      }

      .cls-93 {
        fill: #f8dbc4;
      }

      .cls-94 {
        fill: #fadfc8;
      }

      .cls-95 {
        fill: #fbe3cc;
      }

      .cls-96 {
        fill: #fde7d1;
      }

      .cls-97 {
        opacity: .75;
      }

      .cls-98 {
        fill: #f4d2b9;
      }

      .cls-99 {
        fill: #fae0c9;
      }

      .cls-100 {
        fill: #e9b99c;
      }
    </style>
    <clipPath id="clippath">
      <path class="cls-104" d="m1281.41,1503.64c682.41-179.84,788.71,804.73,115.63,735.86-83.48,364.69-530.71,232.24-608.36-61.16-34.56-130.53,7.13-256.18,88.78-379.73-157.37-441.62-335.66-784.75-534.86-1029.39C-1.93,824.08-115.88,206.18,267.22,223.83,317.47,96.16,445.73,16.76,582.4,28.68c136.67,11.91,249.22,112.33,276.6,246.76,27.39,134.43-36.91,270.86-158.02,335.32,168.18,389.81,361.68,687.43,580.42,892.88"/>
    </clipPath>
  </defs>
  <g id="Layer_1" data-name="Layer 1">
    <g>
      <g>
        <g class="cls-102">
          <polyline class="cls-90" points="2494.94 1945.38 2379.95 2043.66 419.22 -251.03 534.23 -349.29"/>
          <polyline class="cls-34" points="2384.6 2039.65 2370.6 2051.63 409.9 -243.05 423.9 -255.03"/>
          <polyline class="cls-29" points="2375.28 2047.64 2361.26 2059.6 400.56 -235.09 414.54 -247.04"/>
          <polyline class="cls-73" points="2365.94 2055.6 2351.95 2067.56 391.24 -227.11 405.22 -239.06"/>
          <polyline class="cls-57" points="2356.62 2063.58 2342.62 2075.56 381.89 -219.14 395.91 -231.1"/>
          <polyline class="cls-7" points="2347.27 2071.55 2333.27 2083.53 372.57 -211.16 386.57 -223.13"/>
          <polyline class="cls-17" points="2337.95 2079.53 2323.96 2091.48 363.23 -203.19 377.24 -215.13"/>
          <polyline class="cls-14" points="2328.61 2087.5 2314.61 2099.47 353.91 -195.21 367.91 -207.19"/>
          <polyline class="cls-64" points="2319.28 2095.48 2305.29 2107.46 344.56 -187.24 358.59 -199.2"/>
          <polyline class="cls-96" points="2309.94 2103.45 2295.94 2115.42 335.24 -179.26 349.23 -191.22"/>
          <polyline class="cls-96" points="2300.62 2111.43 2286.61 2123.37 325.92 -171.28 339.88 -183.25"/>
          <polyline class="cls-46" points="2291.28 2119.4 2277.28 2131.37 316.58 -163.31 330.58 -175.29"/>
          <polyline class="cls-46" points="2281.96 2127.37 2267.96 2139.35 307.23 -155.35 321.26 -167.31"/>
          <polyline class="cls-10" points="2272.64 2135.36 2258.63 2147.3 297.91 -147.37 311.9 -159.32"/>
          <polyline class="cls-10" points="2263.29 2143.32 2249.29 2155.3 288.57 -139.4 302.58 -151.34"/>
          <polyline class="cls-60" points="2253.95 2151.29 2239.95 2163.27 279.25 -131.42 293.25 -143.39"/>
          <polyline class="cls-60" points="2244.63 2159.27 2230.63 2171.25 269.91 -123.45 283.91 -135.39"/>
          <polyline class="cls-43" points="2235.28 2167.24 2221.3 2179.19 260.59 -115.47 274.57 -127.42"/>
          <polyline class="cls-55" points="2225.96 2175.22 2211.96 2187.19 251.24 -107.5 265.26 -119.47"/>
          <polyline class="cls-95" points="2216.62 2183.19 2202.62 2195.16 241.92 -99.52 255.92 -111.5"/>
          <polyline class="cls-11" points="2207.3 2191.17 2193.31 2203.12 232.58 -91.55 246.56 -103.51"/>
          <polyline class="cls-86" points="2197.98 2199.15 2183.96 2211.11 223.25 -83.57 237.25 -95.55"/>
          <polyline class="cls-9" points="2188.63 2207.12 2174.63 2219.09 213.91 -75.6 227.93 -87.57"/>
          <polyline class="cls-12" points="2179.29 2215.08 2165.29 2227.06 204.59 -67.62 218.58 -79.58"/>
          <polyline class="cls-56" points="2169.97 2223.06 2155.98 2235.02 195.25 -59.66 209.26 -71.6"/>
          <polyline class="cls-99" points="2160.62 2231.03 2146.62 2243.01 185.93 -51.68 199.92 -63.65"/>
          <polyline class="cls-99" points="2151.3 2239.01 2137.3 2250.99 176.58 -43.71 190.6 -55.67"/>
          <polyline class="cls-94" points="2141.96 2246.98 2127.97 2258.93 167.26 -35.73 181.25 -47.68"/>
          <polyline class="cls-94" points="2132.64 2254.96 2118.65 2266.91 157.92 -27.76 171.9 -39.71"/>
          <polyline class="cls-20" points="2123.32 2262.94 2109.3 2274.9 148.6 -19.78 162.6 -31.76"/>
          <polyline class="cls-20" points="2113.97 2270.91 2099.98 2282.89 139.25 -11.81 153.26 -23.75"/>
          <polyline class="cls-5" points="2104.65 2278.89 2090.64 2290.83 129.93 -3.83 143.92 -15.79"/>
          <polyline class="cls-5" points="2095.31 2286.86 2081.31 2298.83 120.59 4.14 134.61 -7.83"/>
          <polyline class="cls-85" points="2085.97 2294.83 2071.97 2306.8 111.27 12.12 125.26 .14"/>
          <polyline class="cls-8" points="2076.64 2302.81 2062.66 2314.76 101.92 20.08 115.93 8.14"/>
          <polyline class="cls-19" points="2067.3 2310.77 2053.32 2322.73 92.6 28.06 106.6 16.09"/>
          <polyline class="cls-93" points="2057.98 2318.75 2043.98 2330.73 83.26 36.03 97.28 24.07"/>
          <polyline class="cls-48" points="2048.66 2326.73 2034.64 2338.7 73.94 44.01 87.92 32.06"/>
          <polyline class="cls-51" points="2039.31 2334.7 2025.33 2346.65 64.59 51.98 78.6 40.04"/>
          <polyline class="cls-3" points="2029.97 2342.67 2015.97 2354.65 55.27 59.96 69.27 47.99"/>
          <polyline class="cls-78" points="2020.65 2350.65 2006.65 2362.62 45.93 67.93 59.95 55.96"/>
          <polyline class="cls-2" points="2011.31 2358.62 1997.32 2370.57 36.61 75.91 50.59 63.96"/>
          <polyline class="cls-38" points="2001.99 2366.6 1988 2378.55 27.26 83.88 41.27 71.94"/>
          <polyline class="cls-36" points="1992.64 2374.57 1978.64 2386.54 17.94 91.86 31.94 79.88"/>
          <polyline class="cls-81" points="1983.32 2382.55 1969.32 2394.52 8.6 99.83 22.61 87.89"/>
          <polyline class="cls-69" points="1973.98 2390.52 1959.99 2402.47 -.72 107.8 13.27 95.85"/>
          <polyline class="cls-15" points="1964.66 2398.49 1950.63 2410.46 -10.04 115.78 3.96 103.81"/>
          <polyline class="cls-49" points="1955.31 2406.46 1941.31 2418.44 -19.39 123.75 -5.39 111.78"/>
          <polyline class="cls-71" points="1945.99 2414.44 1932 2426.4 -28.73 131.72 -14.72 119.78"/>
          <polyline class="cls-18" points="1936.67 2422.42 1922.66 2434.36 -38.05 139.7 -24.05 127.73"/>
          <polyline class="cls-68" points="1927.33 2430.39 1913.33 2442.37 -47.4 147.67 -33.37 135.71"/>
          <polyline class="cls-68" points="1917.98 2438.36 1904 2450.31 -56.72 155.65 -42.73 143.7"/>
          <polyline class="cls-45" points="1908.66 2446.34 1894.68 2458.29 -66.06 163.62 -52.05 151.68"/>
          <polyline class="cls-45" points="1899.32 2454.31 1885.32 2466.28 -75.38 171.6 -61.38 159.62"/>
          <polyline class="cls-24" points="1890 2462.29 1876 2474.26 -84.72 179.57 -70.7 167.6"/>
          <polyline class="cls-24" points="1880.65 2470.26 1866.65 2482.23 -94.05 187.55 -80.06 175.59"/>
          <polyline class="cls-98" points="1871.33 2478.24 1857.35 2490.19 -103.39 195.51 -89.37 183.55"/>
          <polyline class="cls-98" points="1862.01 2486.22 1847.99 2498.18 -112.71 203.49 -98.71 191.52"/>
          <polyline class="cls-75" points="1852.67 2494.18 1838.67 2506.16 -122.05 211.46 -108.05 199.52"/>
          <polyline class="cls-53" points="1843.32 2502.15 1829.34 2514.11 -131.37 219.44 -117.39 207.49"/>
          <polyline class="cls-27" points="1834 2510.13 1820.01 2522.11 -140.72 227.41 -126.7 215.45"/>
          <polyline class="cls-37" points="1824.66 2518.1 1810.66 2530.08 -150.04 235.39 -136.04 223.42"/>
          <polyline class="cls-76" points="1815.34 2526.08 1801.35 2538.03 -159.38 243.36 -145.37 231.42"/>
          <polyline class="cls-88" points="1806 2534.05 1792.01 2546 -168.7 251.34 -154.71 239.36"/>
          <polyline class="cls-41" points="1796.67 2542.03 1782.67 2554 -178.05 259.31 -164.03 247.34"/>
          <polyline class="cls-70" points="1787.35 2550.01 1773.35 2561.95 -187.37 267.29 -173.38 255.33"/>
          <polyline class="cls-54" points="1778.01 2557.98 1764.02 2569.93 -196.71 275.26 -182.7 263.31"/>
          <polyline class="cls-47" points="1768.69 2565.96 1754.67 2577.92 -206.03 283.23 -192.03 271.26"/>
          <polyline class="cls-42" points="1759.34 2573.92 1745.35 2585.9 -215.38 291.2 -201.35 279.24"/>
          <polyline class="cls-82" points="1750 2581.89 1736.01 2593.84 -224.7 299.18 -210.71 287.23"/>
          <polyline class="cls-44" points="1740.68 2589.87 1726.69 2601.83 -234.04 307.15 -220.02 295.19"/>
          <polyline class="cls-44" points="1731.34 2597.84 1717.34 2609.82 -243.36 315.13 -229.36 303.16"/>
          <polyline class="cls-26" points="1722.02 2605.82 1708.02 2617.8 -252.71 323.1 -238.7 311.16"/>
          <polyline class="cls-26" points="1712.69 2613.8 1698.69 2625.74 -262.03 331.08 -248.04 319.13"/>
          <polyline class="cls-61" points="1703.35 2621.77 1689.35 2633.75 -271.35 339.06 -257.36 327.11"/>
          <polyline class="cls-61" points="1694.03 2629.75 1680.01 2641.71 -280.69 347.03 -266.69 335.05"/>
          <polyline class="cls-25" points="1684.69 2637.72 1670.7 2649.67 -290.03 355 -276.03 343.06"/>
          <polyline class="cls-25" points="1675.36 2645.7 1661.36 2657.64 -299.36 362.98 -285.37 351.02"/>
          <polyline class="cls-1" points="1666.02 2653.67 1652.02 2665.64 -308.7 370.95 -294.68 358.98"/>
          <polyline class="cls-35" points="1656.68 2661.63 1642.69 2673.58 -318.02 378.92 -304.04 366.97"/>
          <polyline class="cls-52" points="1647.36 2669.61 1633.37 2681.57 -327.37 386.89 -313.36 374.95"/>
          <polyline class="cls-79" points="1638.01 2677.58 1624.02 2689.56 -336.69 394.87 -322.69 382.9"/>
          <polyline class="cls-65" points="1628.69 2685.56 1614.69 2697.54 -346.01 402.85 -332.01 390.88"/>
          <polyline class="cls-40" points="1619.35 2693.53 1605.36 2705.48 -355.35 410.82 -341.36 398.87"/>
          <polyline class="cls-13" points="1610.03 2701.51 1596.04 2713.46 -364.69 418.79 -350.67 406.83"/>
          <polyline class="cls-39" points="1600.71 2709.49 1586.68 2721.45 -374.02 426.77 -360.02 414.79"/>
          <polyline class="cls-77" points="1591.36 2717.46 1577.36 2729.43 -383.36 434.74 -369.35 422.8"/>
          <polyline class="cls-77" points="1582.02 2725.43 1568.03 2737.38 -392.68 442.72 -378.69 430.76"/>
          <polyline class="cls-58" points="1572.7 2733.41 1558.7 2745.38 -402.02 450.69 -388 438.72"/>
          <polyline class="cls-58" points="1563.35 2741.37 1549.36 2753.35 -411.35 458.67 -397.35 446.69"/>
          <polyline class="cls-67" points="1554.03 2749.35 1540.05 2761.31 -420.67 466.64 -406.68 454.69"/>
          <polyline class="cls-4" points="1544.69 2757.32 1530.7 2769.28 -430.01 474.61 -416.02 462.66"/>
          <polyline class="cls-66" points="1535.37 2765.3 1521.37 2777.28 -439.33 482.6 -425.33 470.62"/>
          <polyline class="cls-28" points="1526.05 2773.28 1512.04 2785.22 -448.67 490.56 -434.69 478.61"/>
          <polyline class="cls-28" points="1516.7 2781.25 1502.72 2793.2 -458.02 498.53 -444.01 486.59"/>
          <polyline class="cls-89" points="1507.38 2789.23 1493.36 2801.19 -467.34 506.51 -453.34 494.53"/>
          <polyline class="cls-89" points="1498.04 2797.2 1484.05 2809.15 -476.68 514.48 -462.66 502.51"/>
          <polyline class="cls-87" points="1488.69 2805.17 1474.71 2817.12 -486 522.46 -472.02 510.51"/>
          <polyline class="cls-87" points="1479.37 2813.15 1465.39 2825.1 -495.35 530.43 -481.33 518.46"/>
          <polyline class="cls-33" points="1470.03 2821.12 1456.03 2833.09 -504.67 538.41 -490.67 526.43"/>
          <polyline class="cls-63" points="1460.71 2829.1 1446.71 2841.07 -513.99 546.39 -500 534.43"/>
          <polyline class="cls-72" points="1451.39 2837.08 1437.38 2849.02 -523.33 554.35 -509.35 542.4"/>
          <polyline class="cls-72" points="1442.05 2845.04 1428.05 2857.02 -532.68 562.32 -518.66 550.36"/>
          <polyline class="cls-50" points="1432.72 2853.02 1418.7 2864.99 -542 570.3 -528 558.33"/>
          <polyline class="cls-92" points="1423.38 2860.99 1409.39 2872.94 -551.34 578.27 -537.33 566.33"/>
          <polyline class="cls-62" points="1414.04 2868.96 1400.05 2880.91 -560.66 586.25 -546.68 574.3"/>
          <polyline class="cls-74" points="1404.71 2876.94 1390.72 2888.91 -570 594.22 -555.98 582.26"/>
          <polyline class="cls-80" points="1395.37 2884.91 1381.39 2896.86 -579.33 602.2 -565.34 590.25"/>
          <polyline class="cls-31" points="1386.05 2892.89 1372.06 2904.84 -588.65 610.18 -574.66 598.23"/>
          <polyline class="cls-30" points="1376.73 2900.87 1362.71 2912.83 -597.99 618.15 -583.99 606.17"/>
          <polyline class="cls-32" points="1367.39 2908.84 1353.4 2920.79 -607.31 626.13 -593.31 614.15"/>
          <polyline class="cls-83" points="1358.07 2916.82 1344.06 2928.76 -616.66 634.1 -602.67 622.14"/>
          <polyline class="cls-83" points="1348.72 2924.78 1334.74 2936.74 -626 642.06 -611.98 630.1"/>
          <polyline class="cls-100" points="1339.4 2932.76 1325.38 2944.73 -635.32 650.04 -621.32 638.07"/>
          <polyline class="cls-100" points="1330.06 2940.73 1316.06 2952.71 -644.66 658.01 -630.66 646.07"/>
          <polyline class="cls-91" points="1320.71 2948.7 1306.73 2960.65 -653.99 665.99 -639.99 654.02"/>
          <polyline class="cls-91" points="1311.39 2956.68 1297.39 2968.66 -663.31 673.97 -649.31 662"/>
          <polyline class="cls-23" points="1302.07 2964.66 1293.65 2971.83 -667.07 677.16 -658.65 669.96"/>
        </g>
        <path class="cls-59" d="m1179.58,2315.71c-134.34,60.38-266.56-66.44-282.62-247.94,18.51-150.68,87.58-142.96,184.64,61.75,8.09,36.86,313.68,44.03,97.98,186.19M229.22,416.21c3.96,6.97,8.26,13.68,12.9,20.13-4.63-6.47-8.94-13.16-12.9-20.13Zm-12.38-25.26v-.03c3.09,7.48,6.59,14.76,10.43,21.79-3.84-7.02-7.32-14.29-10.43-21.75Zm505.19-213.5c-434.58-293.69-362,559.65-6.5,357.72,83.74-47.58,98.6-160.77,80.43-249.54-14.45-42.64-40.51-78.35-73.93-108.18Zm262.09,1174.68h-.02m-422.32-525.73c15.38,18.92,19.45,41.03,9.14,49.45-10.33,8.39-31.16-.11-46.55-19.01-15.39-18.89-19.46-41.01-9.13-49.42,10.31-8.42,31.15.07,46.54,18.97Zm306.52,614.48c10.69,4.4,22.94,2.41,31.66-5.16,8.75-7.55,12.47-19.39,9.65-30.58-81.81-172.06-175.96-337.96-281.7-496.43-9.09-9.99-24.38-11.15-34.84-2.63-10.45,8.52-12.46,23.75-4.51,34.63,30.66,55.21,260.63,492.32,279.74,500.16Zm751.9,690.74c132.96-49.94,207.4-191.61,173.05-329.45-34.36-116.15-126.61-211.8-251.51-245.22-48.92-8.47-99.33-9.37-149.55-2.19-45.3,5.25-94.66,15.2-129.26,48.24-296.63,283.21,90.41,591.17,357.26,528.62Zm234-168.91c-2.39,24.17-9.38,48.15-21.2,70.63-15.35,29.18-37.37,53.1-63.44,70.52h0c-9.53,10.88-19.82,21.25-30.88,30.97l-.22.15c-114.48,104.35-278.86,150.74-392.74,74.27,20.09,12.37,42.24,25.8,51.32,30.26-9.03,71.77-48.22,136.28-107.73,177.36-59.55,41.06-133.74,54.82-204.06,37.81-33.51-7.14-65.44-18.49-95.13-33.49-207.52-156.07-287.23-412-43.58-675.15-10.13-.58-65.68,33.88-75.68,34.22,17.37-20.37-.91-57.25-21.26-111.88-128.65-345.45-259.99-604.64-423.88-808.23-35.5-44.08,9.81-39.47-44.93-81.76-212.3,3.8-374.79-105.53-334.53-348.52-5.73,4.49-11.19,9.19-16.43,14.09-.55-3.39-1.08-6.77-1.6-10.22-6.83-61.21,16.03-122.02,61.51-163.6,45.49-41.57,108.09-58.89,168.47-46.6,14.87-6.93,17.64,46.57,2.03,90.46-1.03.45-2.02.95-3.05,1.41,1.75,23.2,6.65,45.69,14.36,66.94-5.91-17.18-9.5-35.17-10.78-54,8.33,57.59,36.07,111.91,80.59,152.91-24.1-20.77-42.84-43.42-56.19-68,27.47,52.51,73.14,94.76,130.4,117.45-28.67-15.05-53.36-31.48-74.09-49.34-44.99-77.61-74.2-176.46-46.26-261.72,27.95-85.22,110.36-148.73,192.54-184.64,59.36-13.3,122.89-9.26,182.66,14.63,142.99,57.11,208.36,192.09,190.33,340.47-.02-.01-41.43,117.9-77.14,156.76-25.4,34.94-58.81,62.41-96.76,80.65,11.56,7.96,23.12,18.03,34.74,30.26-89.49,4.73-109.47,44.19-59.92,118.42h0c127.22,187.57,231.87,380.57,322.45,575.93,81.46,165.62,182.17,178.2,227.95,82.4,31.42,37.57,12.93,22.89,34.3,54.29,15.33,1.59,30.54,4.52,45.46,8.87,106.9-43.04,228.97-38.49,333.97,16.05,40.29,20.91,76.02,48.13,106.24,80.04l.08.07c137.8,118.89,160.97,253.12,122.08,368.85ZM191.53,633.64c-69.59-60-90.8-168.43-26.55-249.69,21.85-24.33,38.29-24.17,49.24.42.8,2.14,1.67,4.27,2.53,6.39l.08.19c25.56,123.65,199.69,175.91,76.27,248.48-31.98,18.81-72.14,16.47-101.74-5.93l.16.14Z"/>
        <path class="cls-16" d="m388.74,784.8c32.35-37.27,57.33-81.52,72.37-130.68C166.14,871.54-90.54,438.69,228.81,219.87c-50.79-2.42-100.96,15.41-139.09,50.25-45.47,41.58-68.33,102.38-61.51,163.6.52,3.46,1.05,6.84,1.6,10.22,5.24-4.9,10.7-9.59,16.43-14.09-40.26,242.99,122.23,352.32,334.53,348.52,2.95,2.28,5.57,4.4,7.96,6.42"/>
        <path class="cls-16" d="m392.59,741.1c-25.09,10.11-49.18,21.88-72.2,35.15,19.58,1.78,39.73,2.49,60.39,2.12,54.74,42.29,9.43,37.68,44.93,81.76,163.89,203.58,295.23,462.78,423.88,808.23,20.35,54.63,38.63,91.51,21.26,111.88,5.89-.2,27.49-12.17,46.36-21.91v-.02c-110.34-368.64-288.25-713.55-524.63-1017.22"/>
        <path class="cls-101" d="m298.03,231.53s-1.88,5.56-5.2,15.26c-.84,2.42-1.73,5.11-2.73,8.01-.61,2.48-1.26,5.15-1.94,8.01-1.47,5.68-3.32,12.14-4.2,20.12-1.47,7.79-2.29,16.28-2.54,25.41-.98,9.13.26,18.7.39,28.82,1.49,9.88,2.18,20.44,4.99,30.75,1.96,10.59,5.79,20.8,9.12,31.35,4.4,10.01,8.33,20.47,13.96,29.87,4.85,9.93,11.41,18.56,17.18,27.47,6.78,7.99,12.66,16.64,19.83,23.28,6.67,7.2,13.45,13.58,20.23,18.91,6.42,5.84,13.01,10.27,18.85,14.26,5.72,4.18,10.97,7.47,15.51,9.78,8.94,5,14.06,7.88,14.06,7.88,0,0-5.55-1.96-15.22-5.39-4.96-1.56-10.76-3.94-17.23-7.18-6.58-3-14.08-6.4-21.64-11.2-7.93-4.32-16.06-9.69-24.31-16-8.74-5.78-16.41-13.62-25.19-21.05-7.74-8.34-16.46-16.59-23.59-26.41-7.9-9.31-14.23-19.92-21.08-30.4-5.75-11.01-12.05-21.96-16.36-33.59-5.21-11.37-8.22-23.24-11.87-34.67-2.31-11.65-5.56-22.95-6.39-33.98-1.55-10.99-2.34-21.46-2.24-31.2-.52-9.6.25-19.01,1-27.42.37-4.19.71-8.11,1.04-11.73.48-3.08.95-5.9,1.35-8.44,1.64-10.16,2.58-15.94,2.58-15.94,2.79-17.39,19.17-29.22,36.56-26.4,17.37,2.81,29.18,19.18,26.4,36.56-.28,1.75-.76,3.61-1.33,5.24Z"/>
        <path class="cls-101" d="m1381.71,2267.32l-46.06-31.2-45.85-37.08-40.99-40.1-36.87-43.31,1.83,1.58-11-7.81-12.47-5.84-13.57-3.49-14.24-.98-14.44,1.72c-4.62,1.45-9.41,2.76-14.11,4.37-4.37,2.29-8.9,4.52-13.33,6.98l-12.04,9.47,10.28-11.68c3.98-3.34,8.21-6.49,12.44-9.79,4.59-2.61,9.4-4.96,14.2-7.48l15.62-4.84,16.47-1.9c5.52.34,11.16.56,16.8,1.13,5.45,1.35,11.06,2.64,16.59,4.24l15.74,7.3,1.85,1.59,42.2,34.25,44.78,30.03,45.87,24.96,50.97,22.27c16.16,7.05,23.53,25.85,16.48,42.01-7.06,16.16-25.87,23.52-42.03,16.47-1.75-.78-3.56-1.79-5.11-2.84Z"/>
        <path class="cls-16" d="m1381.91,2290.29c-112.01,300.28-519.46,166.84-593.23-111.95-34.56-130.53,7.13-256.18,88.78-379.73-6.05-16.93-12.13-33.73-18.23-50.39,28.48-3.35,57.68-4.16,87.31-2.2-310.25,517.2,157.43,818.93,435.37,544.26"/>
        <path class="cls-101" d="m855.91,1775.27s5.95-2.8,14.89-7.01c4.32-2.05,9.59-4.6,16.71-7.25,6.71-2.58,13.64-5.3,20.44-7.44,6.8-1.53,13.59-3.04,19.96-4.48,6.13-1.59,12.2-1.91,17.2-2.46,9.89-.9,16.47-1.52,16.47-1.52,0,0-5,4.26-12.5,10.63-3.64,3.2-7.98,6.55-11.91,11.18-3.92,4.33-8.09,8.92-12.27,13.53-3.63,4.84-6.7,9.71-9.61,13.97-2.78,3.83-5.58,8.75-8.08,13.22-4.9,8.58-8.18,14.31-8.18,14.31-9.1,15.99-29.45,21.55-45.46,12.44-15.98-9.12-21.54-29.47-12.44-45.46,3.53-6.21,8.78-10.84,14.8-13.66Z"/>
        <path class="cls-101" d="m329.38,740.33s2.63-.66,7.2-1.79c4.09-1.15,12.19-2.73,17.85-4.75,3.19-1.01,6.63-2.09,10.27-3.24,3.74-.95,7.69-3.22,11.87-4.94,8.61-3.36,16.77-8.64,25.61-13.6,7.99-5.84,16.72-11.42,23.61-18.11,7.53-6.15,13.52-12.96,18.91-18.8,5.56-5.73,8.93-11.4,11.96-15.04,2.85-3.79,4.45-5.95,4.45-5.95,0,0-.73,2.6-1.99,7.11-1.47,4.46-2.68,11.36-5.88,18.92-2.99,7.66-6.38,16.87-11.53,26.05-4.49,9.68-11.04,18.85-17.36,28.62-7.2,8.9-14.23,18.46-22.29,25.99-4.03,3.87-7.35,7.96-11.7,11.28-4.2,3.43-8.22,6.66-11.9,9.66-7.86,6.38-12.44,9.02-16.58,12.11-3.87,2.73-6.05,4.27-6.05,4.27-14.61,10.31-34.78,6.81-45.06-7.79-10.29-14.6-6.79-34.77,7.81-45.06,3.34-2.33,7.09-4.01,10.82-4.94Z"/>
        <path class="cls-101" d="m710.09,641.19s-5.75-.34-14.36-.87c-2.18-.13-4.51-.27-6.97-.43-2.22-.06-6.21-.64-9.31-1.02-6.67-.88-13.47-2.01-19.89-3.26-12.31-4.5-23.59-7.99-31.21-13.29-7.45-4.51-12.4-7.53-12.4-7.53,0,0,5.65-.91,14.14-2.25,8.12-.66,18.67-5.36,27.95-8.66,3.95-2.51,7.93-5,11.64-7.34,1.84-1.28,2.89-1.72,5.07-3.41,1.99-1.5,3.87-2.9,5.6-4.18,6.91-5.18,11.53-8.63,11.53-8.63,14.97-11.2,36.19-8.15,47.39,6.82,11.2,14.96,8.15,36.19-6.82,47.39-6.69,4.98-14.64,7.14-22.37,6.66Z"/>
        <path class="cls-6" d="m1091.98,2239.85c5.66-9.74,4.9-21.94-1.95-30.87-16.21-10.56-27.58-26.38-44.13.86-14.32,23.62-.04,32.87,18.25,43.53,11.14,1.55,22.14-3.8,27.82-13.52"/>
        <path class="cls-6" d="m998.88,2183.75c10.49-1.43,19.24-8.78,22.47-18.85,1.72-5.38,1.72-11.02.17-16.25-2.67-3.92-5.15-7.98-7.45-12.17-6.69-12.15-11.81-25.34-15.02-39.28-2.94-9.62-10.91-16.86-20.76-18.86-9.85-2-20,1.5-26.48,9.2-4.95,5.84-7.12,13.41-6.29,20.81.53,2.33,1.09,4.58,1.68,6.85,5.43,20.37,13.94,39.35,24.95,56.44.03.05.04.08.12.21,5.88,8.71,16.19,13.32,26.59,11.91"/>
        <path class="cls-97" d="m694.4,316.42c6,14.62,22.13,22.68,37.67,18.27,14.82-4.21,24.15-18.43,22.69-33.3-.28-1.69-.59-3.38-.94-5.05-7.31-37.21-25.86-71.74-53.81-98.6-34.19-32.87-79.32-51.24-126.1-52.06-2.9-.04-5.77-.03-8.68.05-13.11,1.92-24.08,11.96-26.62,25.61-3.06,16.57,7.36,32.64,23.74,36.6,61.36,8.33,112.28,50.89,132.03,108.48"/>
        <path class="cls-97" d="m744.15,374c14.16,4.25,20.94,23.46,15.11,42.89-5.85,19.43-22.08,31.75-36.25,27.47-14.18-4.26-20.96-23.47-15.13-42.91,5.85-19.43,22.1-31.73,36.27-27.45"/>
        <path class="cls-22" d="m1658.14,1785.18c6,14.63,22.16,22.7,37.67,18.27,14.84-4.2,24.18-18.42,22.69-33.3-.28-1.7-.59-3.38-.92-5.08-7.29-37.2-25.87-71.72-53.82-98.58-34.17-32.85-79.31-51.26-126.1-52.07-2.87-.05-5.77-.03-8.68.05-13.11,1.92-24.08,11.96-26.62,25.61-3.06,16.57,7.38,32.65,23.77,36.61,61.34,8.3,112.27,50.89,132.01,108.47"/>
        <path class="cls-22" d="m1442.38,1626.99c-11.53-9.29-31.21-4.02-43.92,11.79-12.74,15.8-13.7,36.16-2.17,45.45,11.53,9.29,31.2,3.98,43.94-11.81,12.71-15.81,13.7-36.16,2.16-45.43"/>
        <path class="cls-21" d="m244.62,529.89c6.56,3.13,9.84,10.74,7.4,17.75-2.33,6.69-9.09,10.59-15.87,9.53-.77-.2-1.53-.37-2.3-.57-16.87-4.33-32.21-13.76-43.77-27.27-14.17-16.56-21.42-37.74-20.54-59.21.06-1.34.15-2.67.26-3.99,1.22-5.97,6.12-10.72,12.45-11.53,7.67-.96,14.78,4.25,16.14,11.87,2.2,28.34,20.37,52.83,46.24,63.42"/>
        <path class="cls-101" d="m1355.5,1513.59s-3.9.9-10.66,2.48c-6.41,1.74-17.32,3.47-27.29,6.9-5.25,1.65-10.92,3.42-16.94,5.31-6.1,1.64-12.35,4.8-19,7.32-13.5,4.87-26.8,12.36-40.69,19.19-12.99,8.12-26.71,15.68-38.17,24.73-5.79,4.44-11.93,8.21-16.84,12.76-5.12,4.4-9.96,8.58-14.44,12.42-9.18,7.56-15.45,15.18-20.54,19.96-4.9,4.96-7.69,7.82-7.69,7.82,0,0,2.17-3.33,5.97-9.16,4.03-5.65,8.79-14.63,16.4-23.96,3.69-4.78,7.72-9.93,11.95-15.42,4.12-5.66,9.45-10.66,14.47-16.41,9.92-11.67,22.3-22.24,34.31-33.55,12.89-10.04,25.56-20.88,38.83-29.03,6.61-4.18,12.52-8.78,19.09-12.16,6.48-3.54,12.61-6.89,18.25-10,11.6-6.54,20.11-9.54,26.61-12.78,6.32-2.9,9.94-4.55,9.94-4.55,12.85-5.86,28-.21,33.87,12.61,5.87,12.83.21,28-12.62,33.87-1.53.69-3.24,1.27-4.81,1.64Z"/>
        <path class="cls-103" d="m1281.41,1503.64c682.41-179.84,788.71,804.73,115.63,735.86-83.48,364.69-530.71,232.24-608.36-61.16-34.56-130.53,7.13-256.18,88.78-379.73-157.37-441.62-335.66-784.75-534.86-1029.39C-1.93,824.08-115.88,206.18,267.22,223.83,317.47,96.16,445.73,16.76,582.4,28.68c136.67,11.91,249.22,112.33,276.6,246.76,27.39,134.43-36.91,270.86-158.02,335.32,168.18,389.81,361.68,687.43,580.42,892.88Z"/>
      </g>
      <path class="cls-84" d="m898.12,2610.13c493.24,0,893.09,47.72,893.09,106.61s-399.85,106.61-893.09,106.61S5.02,2775.6,5.02,2716.74s399.86-106.61,893.1-106.61"/>
    </g>
  </g>
</svg>