<?xml version="1.0" ?>
<!-- Uploaded to: SVG Repo, www.svgrepo.com, Generator: SVG Repo Mixer Tools -->
<svg width="800px" height="800px" viewBox="-0.26 0 7.4083335 7.4083335" id="svg8" version="1.1" xmlns="http://www.w3.org/2000/svg" xmlns:cc="http://creativecommons.org/ns#" xmlns:dc="http://purl.org/dc/elements/1.1/" xmlns:rdf="http://www.w3.org/1999/02/22-rdf-syntax-ns#" xmlns:svg="http://www.w3.org/2000/svg">
<defs id="defs2"/>
<g id="layer1" transform="translate(-1.0498858,-289.06249)">
<path d="m 13,2 c -0.549215,0.0022 -0.993898,0.4468784 -0.996094,0.9960938 l -0.0078,9.0058592 c -0.03025,1.363243 2.030246,1.363243 2,0 V 4 H 28 V 28 H 13.996094 v -6.998047 c 0.03025,-1.363243 -2.030246,-1.363243 -2,0 l 0.0078,8.001953 C 12.006102,29.553121 12.450785,29.997804 13,30 H 29.003906 C 29.553121,29.997804 29.997804,29.553121 30,29.003906 V 2.9960938 C 29.997804,2.4468784 29.553121,2.0021956 29.003906,2 Z m 4.294922,8.710938 3.228516,3.228515 C 13.412685,14.302836 7.1629325,17.116409 4.0742188,23.628906 3.4930021,24.899132 5.4668482,25.693662 5.9277344,24.375 9.0201066,18.833557 15.506455,15.838467 20.908203,15.941406 l -3.679687,4.417969 c -0.855468,1.024739 0.681641,2.307942 1.537109,1.283203 l 5.003906,-6 c 0.334361,-0.397396 0.308905,-0.984593 -0.05859,-1.351562 L 18.705078,9.2929688 C 17.634144,8.2220353 16.259967,9.6759829 17.294922,10.710938 Z" id="icon-1" style="color:#000000;font-style:normal;font-variant:normal;font-weight:normal;font-stretch:normal;font-size:medium;line-height:normal;font-family:sans-serif;font-variant-ligatures:normal;font-variant-position:normal;font-variant-caps:normal;font-variant-numeric:normal;font-variant-alternates:normal;font-feature-settings:normal;text-indent:0;text-align:start;text-decoration:none;text-decoration-line:none;text-decoration-style:solid;text-decoration-color:#000000;letter-spacing:normal;word-spacing:normal;text-transform:none;writing-mode:lr-tb;direction:ltr;text-orientation:mixed;dominant-baseline:auto;baseline-shift:baseline;text-anchor:start;white-space:normal;shape-padding:0;clip-rule:nonzero;display:inline;overflow:visible;visibility:visible;opacity:1;isolation:auto;mix-blend-mode:normal;color-interpolation:sRGB;color-interpolation-filters:linearRGB;solid-color:#000000;solid-opacity:1;vector-effect:none;fill:#000000;fill-opacity:1;fill-rule:nonzero;stroke:none;stroke-width:2;stroke-linecap:round;stroke-linejoin:miter;stroke-miterlimit:4;stroke-dasharray:none;stroke-dashoffset:0;stroke-opacity:1;color-rendering:auto;image-rendering:auto;shape-rendering:auto;text-rendering:auto;enable-background:accumulate" transform="matrix(0.26458333,0,0,0.26458333,0,288.53332)"/>
</g>
</svg>