<?xml version="1.0" encoding="UTF-8"?>
<svg id="Capa_2" data-name="Capa 2" xmlns="http://www.w3.org/2000/svg" viewBox="0 0 2034.14 2870.43">
  <defs>
    <style>
      .cls-1 {
        fill: #fff;
      }

      .cls-2 {
        fill: #c97043;
      }

      .cls-3 {
        fill: #650000;
      }

      .cls-4 {
        opacity: .6;
      }

      .cls-5 {
        fill: #f28475;
      }

      .cls-6 {
        fill: #e5c5ae;
      }

      .cls-7 {
        opacity: .2;
      }

      .cls-8 {
        fill: #934e3e;
      }

      .cls-9 {
        fill: #7c3b2e;
      }

      .cls-10 {
        opacity: .35;
      }

      .cls-11 {
        opacity: .3;
      }

      .cls-12 {
        fill: #ef9d59;
      }

      .cls-13 {
        fill: #e8ba9a;
      }

      .cls-14 {
        fill: #a56856;
      }

      .cls-15 {
        fill: #ffe8d9;
      }

      .cls-16 {
        fill: #e0b299;
      }

      .cls-17 {
        fill: #b25b36;
      }

      .cls-18 {
        fill: #b5cfdd;
      }

      .cls-19 {
        fill: #fec267;
      }
    </style>
  </defs>
  <g id="Layer_1" data-name="Layer 1">
    <g>
      <g>
        <g>
          <path class="cls-19" d="m1487.2,1972.22c3.05,24.37,103.51,295.04,331.2,291.62,159.98-2.71,207.92-152.98,200.01-234.58-9.31-96.08-87.79-167.88-124.85-161.7-31.35,5.23-15.73,66.58-33.4,117.35-27.44,78.85-139.93,100.79-215.16-3.53l-157.79-9.16Z"/>
          <g class="cls-4">
            <path class="cls-1" d="m1912.52,1915.96c-.34,3.64-.63,7.34-.89,10.65-1.66,20.74-3.72,46.55-12.49,71.77-24.61,70.73-97.13,108.62-172.42,90.12,0,0,94.22,43.65,152.53-5.93,66.8-56.8,33.28-166.6,33.28-166.6Z"/>
          </g>
          <path class="cls-12" d="m1759.42,2216.24c18.79,4.62,38.43,6.81,58.35,6.51,47.13-.8,85.3-17.1,113.39-48.45,19.44-21.7,32.23-48.71,39.44-75.1-59.12,147.14-268.99,47.93-265.63-28.83l-156.73-53.43c32.03,66.05,101.68,172.39,211.17,199.3Z"/>
        </g>
        <path class="cls-3" d="m1814.15,2278.8c-233.37,0-338.02-274.8-341.77-304.73-1.02-8.16,4.76-15.56,12.92-16.61,8.18-1.06,15.63,4.75,16.72,12.9,1.34,10.04,26.07,80.95,78.62,149.29,45.52,59.2,122.82,129.28,233.57,129.28,1.32,0,2.64,0,3.97-.03,54.97-.93,99.69-20.26,132.9-57.47,42.41-47.52,56.91-114.97,52.48-160.73-6.03-62.2-42.46-110.57-71.82-133.1-16.81-12.9-29.76-16.28-35.71-15.31-7.35,1.23-9.02,22.08-10.62,42.25-1.62,20.26-3.45,43.22-11.13,65.28-14.32,41.16-48.76,69.51-92.12,75.83-53.68,7.84-109.5-20.4-149.26-75.54-4.82-6.69-3.31-16.03,3.38-20.85,6.7-4.82,16.03-3.31,20.85,3.38,33.62,46.63,77.64,69.74,120.72,63.46,32.13-4.69,57.64-25.66,68.23-56.1,6.42-18.44,8.09-39.37,9.56-57.84,2.52-31.6,5.13-64.27,35.48-69.33,16.58-2.75,37.48,4.71,58.8,21.07,34.12,26.17,76.42,82.19,83.37,153.92,5.06,52.24-11.5,129.24-59.92,183.5-38.43,43.07-91.93,66.39-154.7,67.45-1.5.02-3.01.03-4.5.03Z"/>
      </g>
      <path class="cls-12" d="m1403.63,2542.46s6.76,366.85,250.67,306.27c230.03-58.64,0-438.88,0-438.88"/>
      <path class="cls-19" d="m1731.28,2770.38c-13.09,20.96-58.6,65.36-154.81,38.35-84.2-23.64-76.12-106.94-34.38-118.62,45.51-12.73,140.19,31.67,187.05,8.54,32.21-15.9,16.42,48.87,2.14,71.73Z"/>
      <path class="cls-3" d="m1602.43,2870.43c-38.18,0-72.14-11.27-101.42-33.75-107.2-82.25-112.15-285.33-112.31-293.94l29.86-.55c.03,1.96,4.88,197.39,100.67,270.83,35.22,27.01,79.46,34.15,131.46,21.23,40.5-10.33,66.82-31.44,80.37-64.52,49.23-120.2-88.16-349.83-89.55-352.14l25.56-15.45c6.01,9.93,146.53,244.81,91.64,378.89-17.14,41.87-51.03,69.52-100.73,82.18-19.39,4.82-37.92,7.22-55.55,7.22Z"/>
      <path class="cls-3" d="m1608.17,2706.57c20.87,50.02,40.34,134.97-23.77,161.72,0,0-8.65-28.59-8.65-28.59,50.02-11.56,40.77-94.4,32.42-133.13h0Z"/>
      <path class="cls-3" d="m1699.18,2694.38c22.17,47.26,41.26,121.52-9.52,157.68,0,0-14.75-25.97-14.75-25.97,42.62-19.54,34.35-93.61,24.27-131.72h0Z"/>
      <path class="cls-2" d="m1757.32,2037.18c29.59,35,281.6,380.92,157.78,580-68.64,101.19-236.65,114.09-357.76,20.19,0,0-72.28-113.63-14.31-268.3,57.97-154.67,214.29-331.89,214.29-331.89Z"/>
      <path class="cls-19" d="m1937.77,2567.16c-5.39,17.44-12.83,34.17-22.67,50.01-68.63,101.2-236.64,114.1-357.75,20.2,0,0-72.3-113.61-14.33-268.29,57.97-154.67,214.28-331.89,214.28-331.89,12.27,14.49,62.76,82.42,108.84,171.14,56.25,108.36,106,247.75,71.62,358.83Z"/>
      <path class="cls-12" d="m1937.77,2567.16c-5.39,17.44-12.83,34.17-22.67,50.01-68.63,101.2-236.64,114.1-357.75,20.2,0,0-72.3-113.61-14.33-268.29,57.97-154.67,214.28-331.89,214.28-331.89,12.27,14.49,62.76,82.42,108.84,171.14-44.55-9.39-61.84,73.66-89.35,121.59-21.04,36.64-65.94,89.43-115.01,135.48-70.5,66.1-43.01,171.93,114.08,173.79,77.95.93,129.64-35.29,161.91-72.03Z"/>
      <path class="cls-3" d="m1768.72,2027.54c99.27,124.63,205.8,316.41,196.52,479.84-4.12,69.03-35.15,139.59-98.05,173.98-98.36,56.64-228.73,30.68-309.86-43.99,99.82,66.53,257.15,81.11,338.63-19.97,70.79-103.56,24.68-247-21.93-352.48-34.99-76.42-77.89-150.64-128.13-218.1,0,0,22.81-19.28,22.81-19.28h0Z"/>
      <path class="cls-2" d="m771.49,2201.39c-16.27,3.02-31.53,5.18-45.07,6.63-159.15,16.95-168.2-254.69-168.2-254.69,21.32-41.62,97.81-95.69,178.93-104.37,14.59,1.34,29.81-.04,44.92-3.58,66.69,101.28,84.3,274.4-10.58,356Z"/>
      <path class="cls-17" d="m837.32,2029.24c1.23,66.66-18.03,131.01-65.83,172.15-16.31,3.02-31.53,5.18-45.07,6.63-159.15,16.95-168.2-254.69-168.2-254.69,14.25-27.8,52.44-46.91,99.3-64.17l85.88,11.7c24.72,29.62,13.09,148.19,56.03,143.01,13.61-1.64,26.26-6.93,37.89-14.64Z"/>
      <path class="cls-2" d="m558.22,1953.33s9.06,271.65,168.21,254.69c100.55-10.71,310.73-77,322.87-198.82,22.92-107.19,24.87-507.09-58.42-435.71-83.22,32.14-69.66,141.6-100.05,217.05-28.36,23.44-107.06,50.77-153.67,58.43-81.12,8.67-157.61,62.76-178.94,104.36Z"/>
      <path class="cls-2" d="m1049.28,2009.2c-12.12,121.81-222.32,188.1-322.85,198.83-159.15,16.95-168.2-254.69-168.2-254.69,21.32-41.62,97.81-95.69,178.93-104.37,46.6-7.64,125.3-34.99,153.69-58.43,18.89-46.95,20.8-107.09,39.61-153.56,11.37-28.21,28.99-51.35,60.4-63.49,25.51-21.87,43.01.48,54.38,45.12,25.77,101.02,19.94,316.2,4.04,390.58Z"/>
      <path class="cls-19" d="m1049.28,2009.2c-2.84,28.54-16.57,54.07-37.22,76.5-67.4,73.33-208.67,114.1-285.64,122.33-68.93,7.34-109.74-39.46-133.79-94.91-31.49-72.51-34.41-159.78-34.41-159.78,21.32-41.62,97.81-95.69,178.93-104.37,46.6-7.64,125.3-34.99,153.69-58.43,18.89-46.95,20.8-107.09,39.61-153.56,11.37-28.21,28.99-51.35,60.4-63.49,25.51-21.87,43.01.48,54.38,45.12,25.77,101.02,19.94,316.2,4.04,390.58Z"/>
      <path class="cls-12" d="m1012.07,2085.7c-67.4,73.33-208.67,114.1-285.64,122.33-68.93,7.34-109.74-39.46-133.79-94.91l136.59-204.9c34.77,28.26,42.69,69.26,41.44,117.39,12.47,39.08,12.19,71.91,33.96,80.73,81.54,33.04,180.8-133.51,180.8-133.51l26.63,112.87Z"/>
      <path class="cls-12" d="m1045.24,1618.62c-43.35,9.13-83.07,15.05-114.79,18.37,11.37-28.21,28.99-51.35,60.4-63.49,25.51-21.87,43.01.48,54.38,45.12Z"/>
      <path class="cls-17" d="m1412.94,1437.19c-91.52,117.34-303.26,173.98-437.57,194.02,26.78-45.27,98.26-153.59,187.09-188.92,88.53-35.21,204.03-15.46,250.48-5.11Z"/>
      <path class="cls-3" d="m712.33,2223.72c-31.16,0-58.9-10.41-82.65-31.06-79.83-69.4-86.15-231.95-86.37-238.83l-.13-3.87,1.77-3.44c24.06-46.93,106.17-103.2,190.21-112.34,43.28-7.2,115.53-32.39,143.27-52.87,8.06-21.39,12.91-46.4,17.62-70.62,11.88-61.21,24.17-124.48,87.17-150.21,19.61-15.57,35.48-10.29,43.34-5.61,29.19,17.35,46.14,88.07,50.39,210.17,3.22,92.4-2.19,195.8-12.85,246.48-14.13,132.83-236.53,200.74-336.06,211.35-5.32.57-10.55.85-15.69.85Zm-138.98-266.91c1.47,24.75,12.24,158,75.95,213.34,21.44,18.62,46.15,26.14,75.55,23.02,102.6-10.93,298.74-76.55,309.59-185.45l.26-1.65c10.16-47.53,15.49-150.71,12.38-240-4.31-123.79-21.98-177.31-35.81-185.54-.82-.5-3.35-1.99-10.67,4.29l-1.95,1.67-2.39.92c-49.6,19.16-59.96,72.49-70.92,128.96-5.24,27-10.66,54.92-20.66,79.74l-1.42,3.52-2.92,2.42c-32.96,27.25-115.85,54.28-160.76,61.66l-.84.11c-77.71,8.3-145.36,58.98-165.4,92.98Z"/>
      <path class="cls-18" d="m726.43,2208.02c-197.9,20.81-228.62-227.4-178.23-307.89,34.04-54.38,136.5-47.57,158.78-23.8,21.9,23.35,37.56,70.54,30.17,132.87,29.33,78.25,10.86,144.19-63.87,155.35l53.14,43.47Z"/>
      <path class="cls-19" d="m673.28,2164.54l53.15,43.5c-150.89,15.84-204.59-124.66-199.28-228.01v-.04c1.7-32.19,9.06-60.74,21.05-79.84,34.06-54.39,136.52-47.57,158.8-23.8,9.61,10.25,18.03,25.08,23.81,43.76,7.4,23.89,10.5,54.13,6.33,89.12,29.34,78.23,10.88,144.19-63.86,155.33Z"/>
      <path class="cls-12" d="m673.28,2164.54l53.15,43.5c-150.89,15.84-204.59-124.66-199.28-228.01,6.63,50.49,29.89,144.02,111.48,144.82,103.32.97,91.03-90.94,61.27-138.47-25.51-40.79,19.01-27.87,17.73-53.16-.34-6.86,5.1-10.89,13.18-13.13,7.4,23.89,10.5,54.13,6.33,89.12,29.34,78.23,10.88,144.19-63.86,155.33Z"/>
      <path class="cls-3" d="m727.99,2222.87c-114.73,15.26-193.22-63.44-213.43-171.58-9.96-53.83-9.85-128.32,27.4-172.73,38.39-41.7,114.34-47.75,163.57-24.34,47.33,28.3,53.43,108.66,46.5,156.75,0,0-.85-7.02-.85-7.02,26.42,69.24,11.92,160.28-77.9,160.61,15.86-5.23,30.72-12.41,41.7-23.11,34.71-33.58,24.04-86.51,8.13-126.98,0,0-1.23-3.15-1.23-3.15l.39-3.87c3.34-36.21.43-72.89-16.74-104-4.96-7.71-7.93-14.38-16.14-18.69-32.4-13.74-76.34-10.73-106.63,6.45-23.62,13.9-30.58,40.59-35.24,66.51-8.38,56.35,2.03,119.11,32.33,167.61,31.06,50.61,86.34,74.04,145,67.85,19.38-1.27,22.41,26.84,3.12,29.7h0Z"/>
      <path class="cls-3" d="m608.57,2007.12c35.44-20.19,84.43-43.17,124.35-21.13,11.9,7.25,29.96,24.11,14.47,37-7.55,5.9-19.09,2.92-22.89-5.85-18.02-36.82-84.44-20.32-115.94-10.02h0Z"/>
      <path class="cls-19" d="m741.26,1886.17s27.01,94.54-39.36,94.46c-46.1-.06-110.37-119.18-29.06-165.38,47.5-26.99,100.26,12.94,126.58,68.43"/>
      <path class="cls-3" d="m741.26,1886.17c18.82,28.38,26.61,74.63-3.47,98.96-38.88,27.5-77.92,2.49-99.22-32.75-29.01-45.59-30.42-113.01,19.21-145.35,64-44.9,130.09,10.55,141.63,76.65-24.5-28.17-55.35-56.29-90.94-60.91-33.67-4.03-62.26,28.78-58.56,62.06,1.79,25.23,14.88,52.3,33.64,69.62,11.65,11.14,23.73,13.04,36.38,6.29,4.82-2.97,8.94-8.64,11.97-16.58,6.43-17.66,7.47-38.3,9.36-58h0Z"/>
      <path class="cls-2" d="m1287.76,2507.11c-244.51-19.26-451.63,362.17-589.94,328.06-111.64,17.82-154.55-340.38-154.55-340.38,120.51-231.95,313.72-386.53,469.49-458.57"/>
      <path class="cls-19" d="m1287.76,2507.09c-31.16-2.46-61.71,1.6-91.6,10.47-204.59,60.77-377.65,347.36-498.34,317.62-71.74,11.44-115.09-132.39-136.93-236.65-12.16-57.98-17.62-103.74-17.62-103.74,120.51-231.96,313.69-386.52,469.47-458.58l275.02,470.88Z"/>
      <path class="cls-12" d="m1223.24,2448.22l-27.08,69.34c-204.59,60.77-377.65,347.36-498.34,317.62-71.74,11.44-115.09-132.39-136.93-236.65l100.39-194.54c93.51,24.67,113.96,211.95,207.13,203.52,134.16-12.11,34.11-216.57,42.15-280.58,2.02-15.91,312.68,121.29,312.68,121.29Z"/>
      <path class="cls-3" d="m716.01,2852.28c-6.36,0-12.65-.63-18.88-1.95-17.44,2-34.24-3-49.96-14.87-84.92-64.11-117.4-327.7-118.74-338.89-.36-2.98.19-6,1.57-8.66,104.86-201.84,282.98-375.76,476.47-465.24l12.53,27.11c-186.38,86.19-358.18,253.38-460.36,447.81,9.64,76.15,45.67,268.11,106.52,314.04,10.03,7.57,19.93,10.46,30.29,8.8,1.97-.33,3.99-.23,5.93.25,54.43,13.39,130.63-55.25,211.36-127.95,110.15-99.19,235.04-211.55,376.18-200.5l-2.34,29.78c-128.37-10.12-248.17,97.75-353.85,192.92-81.24,73.15-152.54,137.36-216.72,137.36Z"/>
      <path class="cls-13" d="m603.91,2471.76c-11.37,12.07-15.35,36.4,9.21,60.4,15.09,14.75,47.43,28.04,59.05,11.04,3.92-5.7,5.8-12.64,5.9-20.04-18.45-18.43-41.82-37.35-74.15-51.4Z"/>
      <path class="cls-13" d="m508.71,2511.71c15.12,14.81,44.38,27.17,56.27,12.22,11.21-14.19,10.61-34.56-4.01-57.31-2.45-3.83-5.38-7.24-8.58-10.22-22.7-2.72-43.46,3.4-60.23,16.26-1.06,11.67,2.8,25.6,16.54,39.05Z"/>
      <path class="cls-13" d="m450.98,2566.51c2.12,3.74,4.86,7.44,8.2,11.02,14.31,15.33,42.76,25.24,53.84,10.11,8.11-11.13,7.67-30.85-6.21-51.22-12.75-18.68-32.22-23.81-46.47-20.09-5.84,14.71-9.12,31.65-9.36,50.17Z"/>
      <path class="cls-2" d="m836.13,2734.2c-13.71,69.87-71.53,109.46-147.51,100.07-95.46-9.47-206.25-107.68-255.27-233.71-56.39-144.98,40.7-266.12,171.07-234.69,111.57,26.9,169.13,132.7,185.72,197.82,0,0,22.61,18.67,38.97,69.9s7.01,100.61,7.01,100.61Z"/>
      <path class="cls-19" d="m836.13,2734.2c-13.73,69.87-71.55,109.48-147.51,100.09-94.14-9.39-203.24-105.04-253.25-228.64-.67-1.68-1.35-3.39-2.02-5.1-56.4-144.95,40.69-266.09,171.08-234.68,97.62,23.55,153.91,107.46,177.55,171.74,3.37,9.17,6.1,17.96,8.15,26.08,0,0,22.63,18.67,39.01,69.9,16.34,51.24,6.99,100.61,6.99,100.61Z"/>
      <path class="cls-12" d="m836.13,2734.2c-13.73,69.87-71.55,109.48-147.51,100.09-94.14-9.39-203.24-105.04-253.25-228.64-7.85-61.17-.37-159.61,80.38-189.73,101.49-37.85,214.73,47.44,263.35,127,3.37,9.17,8.98,12.64,11.03,20.77,0,0,22.63,18.67,39.01,69.9,16.34,51.24,6.99,100.61,6.99,100.61Z"/>
      <path class="cls-3" d="m836.13,2734.2c3.07,56.64-42.32,105.99-98.28,114.25-27.22,4.66-54.91,2.5-81.54-4.05-114.18-32.2-202.73-136.61-243.17-244.69-23.93-64.24-20.93-142.59,24.1-197.54,77.55-96,218.12-62.1,291.26,20.07,35.78,38.33,61.99,88.25,61.65,141.44-25.52-43.31-49.89-84.5-83.79-120.41-154.19-151.03-340.33-18.09-244.13,177.01,30.92,64.95,78.25,123.77,138.51,163.49,83.47,56.07,191.59,53.23,235.4-49.58h0Z"/>
      <path class="cls-6" d="m553.29,2716.83c33.35,32.86,105.05,62.13,130.74,24.5,22.54-33.03,17.36-74.01-15.03-124.37-27.57-42.86-80.88-60.7-117.04-47.62-27.69,10.02-65.99,81.17,1.33,147.5Z"/>
      <path class="cls-6" d="m613.11,2532.15c15.12,14.78,47.44,28.06,59.04,11.06,10.18-14.92,6.92-37.85-6.79-56.16-13.8-18.42-37.02-28.35-52.85-21.5-16.66,7.21-29.51,37.16.6,66.61Z"/>
      <path class="cls-6" d="m508.72,2511.72c15.12,14.78,44.38,27.19,56.26,12.19,11.22-14.16,10.62-34.55-4.01-57.29-12.45-19.35-36.81-28.85-52.85-21.5-12.09,5.54-29.51,37.16.6,66.61Z"/>
      <path class="cls-6" d="m459.15,2577.54c14.34,15.31,42.77,25.24,53.84,10.09,8.12-11.11,7.72-30.85-6.19-51.22-13.27-19.43-33.84-24.21-48.2-19.61-14.82,4.75-23.24,35.33.55,60.74Z"/>
      <path class="cls-2" d="m1433.63,1442.28c264.62,213.19,359.47,523.9,352.97,706.92,0,0,6.63,92.53-26.06,167.67-32.68,75.14-143.69,148.51-143.69,148.51-92.21,60.15-388,144.92-587.17,13.97,0,0-77.61-48.88-106.6-118.49-28.99-69.62-34.03-134.67-34.03-134.67-23.95-249.34,93.25-332.58,74.87-574.73,0,0,85.07-164.07,198.53-209.2,113.45-45.12,271.16,0,271.16,0Z"/>
      <path class="cls-19" d="m1760.56,2316.87c-32.69,75.16-143.7,148.53-143.7,148.53-92.23,60.14-388.01,144.91-587.17,13.97,0,0-77.61-48.89-106.6-118.49-4.82-11.55-8.94-22.95-12.53-33.95-17.99-55.45-21.51-100.72-21.51-100.72-23.94-249.36,93.24-332.6,74.88-574.73,0,0,85.09-164.1,198.53-209.19,113.44-45.12,271.16,0,271.16,0,205.34,165.41,308.45,389.57,341.29,567.24,9.5,51.27,13.13,98.67,11.67,139.66,0,0,6.62,92.52-26.03,167.68Z"/>
      <path class="cls-12" d="m1760.56,2316.87c-32.69,75.16-143.7,148.53-143.7,148.53-92.23,60.14-388.01,144.91-587.17,13.97,0,0-77.61-48.89-106.6-118.49-4.82-11.55-8.94-22.95-12.53-33.95,87.18,46.99,269.33,119.8,493.07,66.89,338.26-79.96,364.71-357.12,371.29-384.28,9.5,51.27,13.13,98.67,11.67,139.66,0,0,6.62,92.52-26.03,167.68Z"/>
      <path class="cls-16" d="m1537.6,2345.08c-40.54,70.39-118.45,124.38-258.26,133.88-126.57,8.57-245.36-35.88-316.08-126.47,97.88,42.63,254.82,85.22,440.37,41.32,51.54-12.18,95.86-28.95,133.97-48.74Z"/>
      <path class="cls-12" d="m1412.94,1437.19c-91.52,117.34-303.26,173.98-437.57,194.02,26.78-45.27,98.26-153.59,187.09-188.92,88.53-35.21,204.03-15.46,250.48-5.11Z"/>
      <path class="cls-15" d="m1279.34,2478.96c-210.39,14.28-399.27-118.09-381.81-365.06,9.25-122.03,21.69-94.77,40.52-207.54,49.25-136.01,55.17-236.92,182.34-270.46,237.32-62.58,409.86,270.56,442.28,421.99,32.42,151.43,32.3,399.63-283.32,421.06Z"/>
      <path class="cls-16" d="m1537.6,2345.08c-40.54,70.39-118.45,124.38-258.26,133.88-126.57,8.57-245.36-35.88-316.08-126.47,97.88,42.63,254.82,85.22,440.37,41.32,51.54-12.18,95.86-28.95,133.97-48.74Z"/>
      <path class="cls-3" d="m963.94,1651.47c30.12,162.78-32.64,278.35-59.27,430.92-8.27,46.93-11.88,94.6-15.6,143.81-15.34-59.51-16.88-123.37-6.29-184.27,14.28-83.99,49.29-163.6,65.38-246.58,9.9-46.9,14.12-94.98,15.79-143.87h0Z"/>
      <path class="cls-3" d="m1029.68,2479.36c160.98,79.14,348.47,61.94,515.72,13.01,24.26-7.4,48.12-16.03,71.45-26.99-19.84,16.63-42.82,29.23-66.11,40.64-159.26,72.95-378.13,89.03-521.06-26.66h0Z"/>
      <path class="cls-3" d="m1786.6,2149.2c-18.97-269.14-158.83-521.31-362.34-695.29,0,0,18.73-23.26,18.73-23.26,78.38,60.88,146.82,135.32,201.52,218.2,4.75,6.47,29.03,47.56,33.81,55.32,24.08,44.17,47.62,94.15,64.46,141.26,34.03,96.77,54.36,201.1,43.81,303.77h0Z"/>
      <path class="cls-3" d="m857.1,1794.11c24.85-2.97,48.82-.97,72.77,3.65-21.99,5.21-44.38,13.09-63.26,24.65,0,0-9.51-28.31-9.51-28.31h0Z"/>
      <g>
        <path class="cls-14" d="m15.9,628.63c13.74,106.75,160.08,422.18,235.34,429.08,44.29,4.06,129.78-85.24,130.69-233.87,1.19-196.54-86.73-198.44-60.82-368.06,0,0,234.3-136.72,73.45-135.74C233.71,321.01-2.01,489.41,15.9,628.63Z"/>
        <path class="cls-8" d="m251.24,1057.72c-45.35-4.18-116.52-120.4-168.97-235.49-34.53-75.85-60.92-151.21-66.38-193.63C.69,510.37,168.55,371.01,318.03,331.19c26.42-7.06,52.35-11.01,76.52-11.14,160.86-1-73.44,135.72-73.44,135.72-25.91,169.64,62.01,171.51,60.84,368.05-.92,148.66-86.41,237.95-130.7,233.89Z"/>
        <path class="cls-9" d="m251.24,1057.72c-45.35-4.18-116.52-120.4-168.97-235.49,34.93,4.74,66.3-1.47,73.98-62.52,12.48-99.31,40.9-342.77,161.78-428.53,26.42-7.06,52.35-11.01,76.52-11.14,160.86-1-73.44,135.72-73.44,135.72-25.91,169.64,62.01,171.51,60.84,368.05-.92,148.66-86.41,237.95-130.7,233.89Z"/>
        <path class="cls-3" d="m254.18,1072.77c-1.45,0-2.89-.06-4.3-.19-50.08-4.59-110.66-103.22-152.67-185.15C47.64,790.73,8.11,685.09,1.09,630.54c-6.4-49.69,15.38-104.73,62.98-159.18,82.29-94.14,224.33-165.61,330.4-166.25,26.76-.16,63.26,2.63,70.38,28.64,6.21,22.7-14.27,50.07-66.4,88.76-25.78,19.13-51.93,35.4-63.58,42.45-10.93,79.47,5.05,119.05,23.46,164.69,18.34,45.45,39.13,96.96,38.54,194.28-.65,107.13-43.98,184.39-84.32,220.98-19.95,18.1-40.49,27.86-58.36,27.86ZM30.71,626.72c14.98,116.39,163.32,410.75,221.89,416.12,7.79.68,22.37-4.18,39.87-20.05,35.64-32.32,73.93-101.58,74.52-199.04.55-91.43-18.22-137.94-36.37-182.93-19.73-48.89-38.37-95.08-24.28-187.3.68-4.46,3.34-8.37,7.23-10.64.33-.19,33.58-19.66,65.63-43.3,56.76-41.85,56.83-57.62,56.81-58.02-.06.03-5.76-6.6-39.79-6.6-.52,0-1.05,0-1.58,0-98.39.6-230.85,67.68-308.09,156.05-29.15,33.34-62.5,83.96-55.84,135.71Z"/>
        <g class="cls-11">
          <path class="cls-1" d="m1409.38,122.43c-34.15-9.51-69.5-16.22-105.68-20.57-381.94-45.49-833.3,157.92-957.57,310.15-31.9,39.12-77.64,104.15-97.63,149.32,19.45-73.4,51.24-142.07,99.78-201.51C459.3,223.81,880.64,22.07,1221.83,62.73c60.68,7.23,118.78,22.15,172.21,46.39,5.14,4.44,10.28,8.89,15.34,13.31Z"/>
        </g>
        <path class="cls-19" d="m1026.09,1592.19c-651.42,127.54-783.35-232.92-746.66-402.36-59.41-250.34-114.36-605.55,68.84-830C479.01,199.64,1040.24-51.7,1394.04,109.13c164.79,79.94,439.13,511.23,455.96,814.2,15.16,203.42-108.03,491.59-823.91,668.86Z"/>
        <path class="cls-19" d="m1755.81,583.89c51.96,115.31,88.39,234.99,94.18,339.44,15.18,203.41-108.06,491.59-823.9,668.85-651.43,127.56-783.35-232.92-746.67-402.32-59.39-250.36-114.35-605.56,68.86-830.03C459.3,223.81,880.62,22.09,1221.84,62.72l.02.03c60.63,7.22,118.77,22.13,172.16,46.38,108,52.37,263.03,255.62,361.79,474.76Z"/>
        <path class="cls-12" d="m1849.92,987c-15.5,196.54-179.9,445.71-823.83,605.18-526.44,103.08-713.63-112.56-746.71-288.5,53.62,151.03,249.77,344.68,759.66,240.12,409.33-97.16,764.1-368.33,810.88-556.8Z"/>
        <path class="cls-12" d="m1755.81,583.89c-74.63,143.6-194.81,161.64-246.21,14.09-97.18-278.95-200.61-424.02-287.74-535.23,60.63,7.22,118.77,22.13,172.16,46.38,108,52.37,263.03,255.62,361.79,474.76Z"/>
        <path class="cls-3" d="m1026.08,1592.19c-215.16,61.97-500.17,70.56-668.6-100.75-45.96-47.53-78.65-108.16-92.16-172.92-9.01-43.08-10.74-88.12-.5-131.84,0-.01.08,6.67.06,6.59-70.26-286.51-126.75-700.37,135.54-907.47C648.64,99.45,1103.3-41.33,1399.16,91.47c108.23,55.06,201.31,187.38,265.99,287.59,103.41,169.86,191.55,358.83,201.53,560.51,8.84,214.79-152.08,379.59-330.4,473.07-70.36,37.86-144.54,67.46-220.34,90.61,203.37-96.9,440.94-217.56,506.91-449.59,52.4-206.92-78.42-482.14-186.92-656.17-60.55-93.33-161.58-235.87-264.99-278.45-264.98-104.28-612.54-3.55-851.53,131.08-49.92,29.18-98.6,61.33-139.51,101.82-148.67,159.67-154.14,397.02-128.57,602.71,8.77,80.06,28.36,159.21,42.69,238.34-14.02,78.02,7.85,161.65,51.75,227.22,150.75,214.93,447.36,194.76,680.31,171.97h0Z"/>
        <path class="cls-8" d="m1340.45,881.41c-36.96,83.07-199.7,152.22-296.9,111.92-144.02-59.72-135.74-328.9,36.5-369.51,141.34-33.32,315.71,133.26,260.4,257.59Z"/>
        <path class="cls-8" d="m521.08,1159.23c79.3-1.75,142.81-83.18,152.42-124.07,27.63-117.59-78.12-325.28-238.91-216.78-117.29,79.15-139.92,345.83,86.49,340.85Z"/>
        <path class="cls-3" d="m985.14,466.71c10.89-68.81,80.45-104.15,146.94-95.69,45.88,4.52,88.67,28.33,122.02,57.32,26.5,23.34,49.76,50.45,66.49,81.5-26.17-23.07-52.7-44.48-80.6-63.01-79.13-56.06-198.63-78.95-254.86,19.88h0Z"/>
        <path class="cls-3" d="m489.77,601.81c-62.53-22.93-114.47,2.14-150.13,52.26-16.38,23.49-26.92,52.56-35.31,82.12-8.33,29.77-14.22,60.61-19.26,92.07-4.81-31.84-4.17-64.05-.28-96.03,5.47-40.88,18.23-82.85,46.5-114.46,17.16-19.65,38.01-36.65,64.04-43.91,33.46-9.92,72.99.94,94.44,27.95h0Z"/>
        <path class="cls-8" d="m1233.35,65.27c38.11-33.19,126.65-63.11,210.86-44.67,62.25,13.63,152.8,68.11,292.86,102.36,142.42,34.83,80.3,498.49-95.73,515.3-105.13,10.04-136.11-316.95-407.99-572.99Z"/>
        <g class="cls-11">
          <path class="cls-1" d="m1755.22,547.73c64.46-144.89,62.46-368.24-34.7-391.98-140.02-34.25-230.6-88.76-292.82-102.38-66.69-14.6-136.07,1.13-181.01,24.77-4.36-4.33-8.83-8.59-13.35-12.86,38.12-33.2,126.63-63.11,210.88-44.67,62.22,13.62,152.75,68.12,292.82,102.38,104.84,25.63,98.86,283.7,18.18,424.75Z"/>
        </g>
        <path class="cls-9" d="m1752.03,553.15c-28.52,47.67-65.95,80.85-110.68,85.1-105.1,10.06-136.12-316.64-407.64-572.63,203.36,34.05,342.34,533.41,445.83,523.48,26.95-2.56,51.2-15.6,72.49-35.95Z"/>
        <path class="cls-3" d="m1636.2,653.45c-55.06,0-88.42-68.84-137.97-171.08-55.36-114.22-131.18-270.65-275.13-406.22-3.07-2.89-4.77-6.95-4.69-11.16.08-4.22,1.94-8.2,5.12-10.97,43.15-37.59,136.27-67.19,223.86-48,27.25,5.97,59.42,19.29,96.67,34.72,51.67,21.4,115.98,48.03,196.54,67.73,76.35,18.67,95.87,131.33,88.69,230.53-10.74,148.28-78.27,303.8-186.55,314.14-2.22.21-4.4.31-6.55.31ZM1256.39,66.68c139.65,136.35,214,289.76,268.73,402.67,44.38,91.57,76.59,157.8,114.8,154.06,87.51-8.35,149.87-152.26,159.6-286.56,7.8-107.68-18.72-187.8-66-199.36-82.77-20.24-148.25-47.36-200.86-69.15-35.94-14.88-66.98-27.73-91.64-33.13-73.26-16.05-146.35,6.61-184.63,31.48Z"/>
        <g>
          <path class="cls-9" d="m577.48,1445.48c109.48,81.04,593.85,44.34,771.93-139.67,178.72-184.66-298.73-241.61-298.73-241.61l-328.81,3.08-125.49,239.63"/>
          <path class="cls-3" d="m784.94,1504.85c-98.93,0-179.53-15.47-218.56-44.37-8.29-6.14-10.03-17.83-3.9-26.11,6.13-8.29,17.82-10.03,26.11-3.9,49.17,36.4,194.92,47.37,346.54,26.08,178.28-25.03,324.4-84.71,400.87-163.73,29.53-30.51,40.29-57.83,31.98-81.21-27.47-77.31-237.92-118.97-318.33-128.75l-316.43,2.96-120.31,229.73c-4.79,9.13-16.07,12.65-25.2,7.88-9.13-4.78-12.66-16.06-7.88-25.2l130.68-249.53,341.18-3.2,1.19.14c31.61,3.77,309.98,40.11,350.26,153.45,13.46,37.86-.11,78.12-40.33,119.68-82.15,84.88-236.15,148.57-422.51,174.73-54.34,7.63-107.05,11.33-155.38,11.33Z"/>
        </g>
        <g>
          <ellipse class="cls-3" cx="1122.66" cy="832.07" rx="131.35" ry="151.15" transform="translate(-129.49 211.73) rotate(-10.19)"/>
          <ellipse class="cls-1" cx="1159.61" cy="824.06" rx="42.82" ry="54.02" transform="translate(-126.41 215.85) rotate(-10.09)"/>
          <g class="cls-7">
            <ellipse class="cls-1" cx="1066.74" cy="875.63" rx="23.72" ry="36.56" transform="translate(-136.05 198.9) rotate(-10.02)"/>
          </g>
        </g>
        <g>
          <ellipse class="cls-3" cx="538.57" cy="983.63" rx="121.44" ry="139.75" transform="translate(-165.51 110.79) rotate(-10.19)"/>
          <ellipse class="cls-1" cx="572.73" cy="976.23" rx="39.59" ry="49.95" transform="translate(-162.13 115.41) rotate(-10.09)"/>
          <g class="cls-7">
            <ellipse class="cls-1" cx="486.87" cy="1023.91" rx="21.93" ry="33.8" transform="translate(-170.68 100.3) rotate(-10.02)"/>
          </g>
        </g>
        <path class="cls-5" d="m950.78,1190.59c-44.02,21.59,53.5,207.75-91.91,232.8-114.07,3.01-123.17-170.79-80.77-239.62"/>
        <path class="cls-3" d="m855.9,1442.1c-41.03,0-73.94-19.55-95.33-56.68-35.96-62.45-28.81-158.92.03-208.74,9.88-40.31,29.78-65.04,59.18-73.51,74.26-21.37,176.37,77.81,187.76,89.18l-26.37,26.42c-8.27-8.24-18.37-17.36-29.51-26.4l7.34,14.97c.28-.14.5-.34.57-.42-4.64,5.67-2.26,34.52-.69,53.61,5,60.69,13.37,162.26-96.85,181.25l-2.68.26c-1.16.03-2.31.05-3.46.05Zm-13.73-304.64c-4.28,0-8.32.51-12.08,1.59-16.06,4.64-27.43,21.09-33.8,48.9l-.69,3-1.62,2.62c-24.1,39.11-29.81,123.3-1.07,173.22,14.7,25.53,36.34,38.28,64.12,37.97,69.72-12.69,70.77-66.56,64.63-141.16-3-36.41-5.63-68.41,12.82-84.46-30.83-22.55-66.03-41.68-92.32-41.68Z"/>
        <path class="cls-3" d="m844.23,1341.21c-20.6-63.44-50.75-179.13,9.54-228.53,0,0,21.08,30.81,21.08,30.81-11.35,5.68-20.59,18.89-26.37,34.72-17.17,51.4-12.14,109.7-4.25,163h0Z"/>
        <path class="cls-8" d="m876.56,1006.9c365.98-55.41,589.2,79.18,519.61,249.95-41.47,85.34-140.67,119.49-223.65,111.82-151.22-13.97-308.76-163.93-357.59-220.83-14.18,71.65-107.13,326.33-246.87,301.87-143.44-29.71-177.48-275.76,150.9-398.22l157.59-44.58Z"/>
        <g class="cls-11">
          <path class="cls-1" d="m1405.12,1164.45c-60.87-103.51-256.96-164.48-529.88-123.16l-162.8,46.04c-136.35,50.84-212.19,122.31-244.56,191.61,17.29-78.96,91.26-167.86,251.1-227.46l157.59-44.59c296.39-44.88,499.18,34.9,528.56,157.55Z"/>
        </g>
        <path class="cls-9" d="m779.47,1157.66c-16.22,61.11-68.6,196.96-143.9,245.6-20.82,13.45-40.92,18.3-61.44,14.84-39.78-8.44-68.16-38.25-75.98-79.84,76.77,127.19,261.55-126.93,281.31-180.61Z"/>
        <path class="cls-9" d="m1351.61,1127.73c27.1,34.22,32.16,73.26,15.04,116.04-12.23,24.74-30.91,45.34-55.53,61.24-38.01,24.55-87.44,36.08-135.62,31.63-136.07-12.57-283.21-149.62-332.88-206.08,328.65,264.8,533.94,66.12,508.99-2.82Z"/>
        <path class="cls-3" d="m586.81,1470.01c-7.3,0-14.62-.64-21.97-1.92l-.57-.11c-66.67-13.8-113.23-68.28-118.63-138.78-7.04-91.99,59.35-217.84,266.8-295.2l13.04,34.98c-188.03,70.12-248.62,178.93-242.61,257.37,4.08,53.38,38.88,94.57,88.69,105.02,122.01,21.01,211.85-220.37,225.06-287.15l7.46-37.69,25.02,29.16c47.31,55.13,201.55,201.13,345.14,214.4,74.08,6.86,166.06-21.7,204.88-100.84,18.94-46.95,13.23-91.72-16.53-129.51-71.61-90.94-261.28-127.99-483.23-94.37l-5.59-36.91c238.6-36.14,437.15,5.32,518.15,108.19,38.67,49.11,46.12,106.94,21.54,167.26l-.5,1.11c-46.46,95.62-155.1,130.3-242.16,122.25-133.93-12.38-273.48-125.48-346.36-201.31-12.78,42.88-36.51,103.86-69.92,158.59-50.41,82.56-107.99,125.47-167.7,125.47Z"/>
        <g>
          <ellipse class="cls-3" cx="568.01" cy="1348.31" rx="14.06" ry="14"/>
          <ellipse class="cls-3" cx="511.83" cy="1342.77" rx="14.06" ry="14"/>
          <ellipse class="cls-3" cx="549.26" cy="1296.78" rx="14.06" ry="14"/>
        </g>
        <g>
          <ellipse class="cls-3" cx="1251.52" cy="1196.34" rx="14.06" ry="14"/>
          <path class="cls-3" d="m1182,1195.22c2.45,7.34,10.41,11.3,17.78,8.86,7.36-2.44,11.35-10.37,8.89-17.71-2.45-7.34-10.41-11.3-17.78-8.86s-11.35,10.37-8.89,17.71Z"/>
          <path class="cls-3" d="m1219.43,1149.23c2.45,7.34,10.41,11.3,17.78,8.86,7.36-2.44,11.35-10.37,8.89-17.71s-10.41-11.3-17.78-8.86c-7.36,2.44-11.35,10.37-8.89,17.71Z"/>
        </g>
        <g>
          <path class="cls-3" d="m671.25,1060.37c10.72,36.81,61.38,57.42,98.73,67.83,25.86,7.21,53.65-.83,71.63-20.7,25.96-28.71,57.68-73.13,46.96-109.94-17.41-59.79-234.73,3.03-217.32,62.82Z"/>
          <g class="cls-10">
            <path class="cls-1" d="m719.02,1032.53c1.98,6.81,18.97,8.42,31.74,8.65,8.84.16,19.12-2.81,26.5-7.66,10.66-7,24.15-17.42,22.16-24.23-3.22-11.06-83.62,12.18-80.4,23.24Z"/>
          </g>
        </g>
      </g>
      <g>
        <path class="cls-2" d="m1366.3,1485c130.91-115.85,232.52-433.17,233.04-571.04,14.64-82.02,374.43-26.6,374.43-26.6,0,0,21.51,495.23-289.38,899.84,0,0-115.19,101.97-228.33-8.77-95.39-93.37-89.76-293.44-89.76-293.44Z"/>
        <path class="cls-19" d="m1954.23,1137.12c-27.71,171.81-93.43,406.71-247.94,620.67-7.11,9.84-14.4,19.64-21.88,29.4,0,0-115.2,101.99-228.34-8.76-95.38-93.38-89.76-293.44-89.76-293.44,130.91-115.85,232.53-433.17,233.05-571.04,14.62-82.01,374.43-26.61,374.43-26.61,0,0,4.41,101.32-19.56,249.77Z"/>
        <path class="cls-19" d="m1971.02,991.76c-2.69,39.76-7.7,89.17-16.79,145.36-27.71,171.81-93.43,406.71-247.94,620.67-7.11,9.84-14.4,19.64-21.88,29.4,0,0-115.2,101.99-228.34-8.76-95.38-93.38-89.76-293.44-89.76-293.44,105.92-93.71,192.66-319.33,222.21-475.05,6.96-36.78,10.73-69.64,10.85-95.99,14.62-82.01,374.43-26.61,374.43-26.61,0,0,1.72,39.12-2.77,104.41Z"/>
        <path class="cls-12" d="m1971.02,991.76c-72.22,118.75-298.13,95.91-382.51,18.18,6.96-36.78,10.73-69.64,10.85-95.99,14.62-82.01,374.43-26.61,374.43-26.61,0,0,1.72,39.12-2.77,104.41Z"/>
        <path class="cls-12" d="m1954.23,1137.12c-27.71,171.81-93.43,406.71-247.94,620.67-45.44,23.9-186.48-40.22-186.64-106.32-.25-102.82,338.49-50.47,434.57-514.35Z"/>
        <path class="cls-3" d="m1366.3,1485c67.29-80.25,108.55-176.03,146.1-272.47,27.02-72.44,50.62-146.82,64.14-223,4.37-25.26,7.4-50.73,7.87-75.63.43-7,3.47-13.98,7.25-19.57,32.7-44.65,137.66-39.99,188.04-39.79,66.02,2.09,131.06,8.64,196.43,18.07,7.16,1.06,12.34,7.11,12.55,14.1,1.11,41.21-.85,81.15-3.96,121.94-16.5,201.49-68.37,400.93-159.51,581.8-36.47,72.36-79.62,141.45-128.97,205.85l-23.68-18.2c48.17-62.85,90.32-130.33,126-201.12,105.96-212.45,161.34-451.61,160.3-688.97,0,0,12.64,14.11,12.64,14.11-63.56-9.18-128.42-15.71-192.64-17.72-34.56-.53-152.39-3.79-164.82,32.18.92,40.61-11.5,107.86-23.22,156.18-34.53,138.79-105.8,325.89-224.52,412.24h0Z"/>
        <g>
          <path class="cls-18" d="m1906.93,993.72s105.73-57.43,37.82-224.54c-47.57-117.06-321.68-67.97-339.65-8.86-20.86,68.64,16.86,196.22,16.86,196.22,0,0,32.2,96.03,137.63,86.2,92.64-8.64,147.33-49.03,147.33-49.03Z"/>
          <path class="cls-2" d="m1924.81,1005.91s-50.66,37.42-137.66,50.55l-.05.02c-7.24,1.07-102.4,6.9-163.84-43.75-1.16-25.97-8.29-47.23-8.29-47.23,0,0-40.99-138.74-18.32-213.38,14.63-48.16,185.81-90.23,292.36-54.62,35.58,11.86,63.99,32.4,76.95,64.27,73.84,181.66-41.14,244.15-41.14,244.15Z"/>
          <path class="cls-19" d="m1980.71,934.26c-18.44,51.27-55.92,71.65-55.92,71.65,0,0-50.64,37.41-137.64,50.53l-.04.04c-7.26,1.08-102.41,6.89-163.86-43.75-.64-14.05-2.99-26.72-5.09-35.36-1.68-7.38-3.22-11.89-3.22-11.89,0,0-40.95-138.73-18.29-213.36,14.62-48.18,185.78-90.25,292.33-54.63,35.61,11.85,63.99,32.38,76.97,64.24,31.68,77.95,28.58,133.96,14.74,172.52Z"/>
          <path class="cls-12" d="m1980.71,934.26c-18.44,51.27-55.92,71.65-55.92,71.65,0,0-50.64,37.41-137.64,50.53l-.04.04c-7.26,1.08-102.41,6.89-163.86-43.75-.64-14.05-2.99-26.72-5.09-35.36,118.64,47.62,294.2,26.98,362.54-43.11Z"/>
          <path class="cls-17" d="m1666.94,1024.77c-24.91,1.6-91.07-26.01-113.96-86.15,27.86,24.37,64.89,41.47,105.85,51.94l8.12,34.21Z"/>
          <path class="cls-12" d="m1853.46,927c-70.25,13.09-215.53,19.1-202.38-63.6,14.11-88.78,56.08-136.36,56.08-136.36l181.85-29.54c35.58,11.86,63.99,32.4,76.95,64.27,33.38,104.57-40.02,151.73-112.49,165.24Z"/>
          <path class="cls-3" d="m1924.83,1005.89c28.76-23.2,46.1-57.69,51.16-93.41,5.37-35.42-2.23-70.6-10.91-104.99-4.29-16.45-9.7-34.43-17.55-49.56-16.75-29.19-50.27-44.36-82.78-51.76-72.09-15.39-170.9-5.6-235.21,31.52-10.24,7.32-17.05,11.22-19.75,22.91-7.41,30.21-5.49,61.64-2.2,92.68,4.26,36.22,11.87,72.94,21.68,107.97,2.49,8.02-2.14,16.57-10.24,18.82-7.94,2.22-16.18-2.41-18.41-10.36-10.45-37.39-18.14-74.55-22.71-113.03-3.69-34.05-5.54-69.76,2.97-103.64,3.07-17.35,19.25-32.54,32.54-40.51,80.3-47.79,232.12-61.49,314.73-13.86,22.38,12.78,42.78,33.93,52.24,59.01,0,0,5.37,13.59,5.37,13.59,34.13,79.69,24.4,192.29-60.95,234.61h0Z"/>
          <path class="cls-18" d="m1616.37,684.18c-26.32,32.59-58.15,109.16-6.73,165.1,46.88,51.01,284.33,62.58,319.97-40.23,29.69-85.64-46.62-131.98-134.81-141.33-39.49-16.08-123.23-51.88-178.42,16.46Z"/>
          <path class="cls-19" d="m1956.26,773.74c-.74,9.83-2.93,20.25-6.78,31.32-38.75,111.84-296.95,99.24-347.92,43.79-24.45-26.65-31.61-57.56-29.46-86.93,2.69-37.64,20.63-72.68,36.76-92.62,60.03-74.29,151.08-35.38,194.03-17.88,84.52,8.93,158.98,49.13,153.37,122.32Z"/>
          <g class="cls-11">
            <path class="cls-1" d="m1956.25,773.72c-.24,3.4-.67,6.81-1.29,10.34-11.52-59.34-86.91-94.49-160.79-100.04-34.7-18.64-125.28-55.84-185.29,18.44-15.1,18.67-31.77,50.52-36.07,85.37-1.15-8.67-1.34-17.33-.69-25.88,2.69-37.67,20.63-72.69,36.72-92.65,60.05-74.3,151.12-35.36,194.03-17.89,84.53,8.93,159.01,49.17,153.37,122.32Z"/>
          </g>
          <path class="cls-12" d="m1956.26,773.74c-.74,9.83-2.93,20.25-6.78,31.32-38.75,111.84-296.95,99.24-347.92,43.79-24.45-26.65-31.61-57.56-29.46-86.93,10.86,29.78,31.08,49.18,67.45,42.59,41.17-7.41,75.63-49.19,75.63-49.19,0,0,37.49,83.27,107.69,79.13,56.77-3.33,106.3-30.22,133.37-60.72Z"/>
          <path class="cls-3" d="m1758.42,905.18c-71.9,0-141.47-17.52-167.86-46.24-60.15-65.45-28.95-154.88,6.7-199.02h0c65.95-81.65,166.17-40.74,208.97-23.28l.36.15c69.8,7.82,124.04,34.77,149.02,74.11,17.91,28.2,20.67,62.47,7.98,99.08-15.01,43.3-58.29,73.52-125.16,87.41-25.55,5.31-52.95,7.79-80.01,7.79Zm-57.13-264.73c-28.62,0-57.49,9.38-80.8,38.24h0c-20.17,24.97-60.92,102.4-7.94,160.04,26.08,28.37,132.61,47.52,219.81,29.42,31.98-6.64,87.88-24.3,103.01-67.95,9.74-28.1,8.07-52.76-4.97-73.29-20.02-31.53-68.28-54.2-129.09-60.65l-2.1-.22-4.27-1.74c-23.61-9.63-58.45-23.85-93.66-23.85Zm-92.41,28.86h.05-.05Z"/>
          <path class="cls-3" d="m1719.69,742.65c-14.58,47.82-15.2,121.42,45.77,133.39,19.08,5.07,12.36,33.28-7,29.15-72.01-26.87-67.89-104.19-38.77-162.54h0Z"/>
          <path class="cls-19" d="m1666.95,1024.76c-33.47,2.17-141.35-48.44-118.85-159.64,21.71-107.28,196.45-112.21,211.2-29.43,10.98,61.6-65.05,86.42-119.01,76.91l26.65,112.16Z"/>
          <path class="cls-12" d="m1666.94,1024.77c-24.91,1.6-91.07-26.01-113.96-86.15,27.86,24.37,64.89,41.47,105.85,51.94l8.12,34.21Z"/>
          <path class="cls-3" d="m1666.95,1024.76c-42.55,5.27-89.47-22.86-114.37-56.46-19.3-24.59-26.07-58.17-21.83-88.7,2.59-31.57,16.75-62.76,41.39-83.07,36.04-30.42,86.27-41.31,131.88-30.14,41.93,9.67,75.94,45.08,67.62,90.67-11.87,56.89-83.78,69.99-131.35,55.54,14.02.63,27.8-.82,41.03-3.73,13.18-3.06,25.92-7.57,36.97-14.2,50.14-28.67,33.34-87-21.74-96.95-45.56-9.52-104.77,5.97-126.73,49.81-15.93,33.49-10.09,73.57,6.08,105.87,18.26,33.12,53.13,63.46,91.04,71.35h0Z"/>
        </g>
      </g>
    </g>
  </g>
</svg>