<?xml version="1.0" encoding="UTF-8"?>
<svg id="Capa_2" data-name="Capa 2" xmlns="http://www.w3.org/2000/svg" viewBox="0 0 373.38 389.82">
  <defs>
    <style>
      .cls-1 {
        fill: #111414;
      }
    </style>
  </defs>
  <g id="Capa_1-2" data-name="Capa 1">
    <g>
      <path class="cls-1" d="m289.47,343.9c-7.74,32.9-41.38,52.95-74.26,43.62-6.76-1.92-12.96-4.98-18.41-8.92-14.19-10.25-30.03-17.97-47.07-21.98l-4.59-1.08c-17.54-4.12-35.72-4.67-53.5-1.71-8.41,1.4-17.27,1-26.08-1.5-29.37-8.34-47.81-38.12-42.19-68.13,3.71-19.79,16.66-35.28,33.4-43.09,24.06-11.22,43.55-30.41,56.13-53.79,14.6-27.16,40.25-53.38,83.44-43.22,42.73,10.05,53.99,45.08,55.07,75.99.93,26.78,10.61,52.45,27.07,73.6,10.67,13.72,15.27,31.96,10.98,50.2Z"/>
      <ellipse class="cls-1" cx="46.03" cy="152.12" rx="55.2" ry="45.46" transform="translate(-112.59 162.11) rotate(-76.77)"/>
      <ellipse class="cls-1" cx="156.77" cy="54.74" rx="55.2" ry="45.46" transform="translate(67.59 194.82) rotate(-76.77)"/>
      <ellipse class="cls-1" cx="327.35" cy="218.27" rx="55.2" ry="45.46" transform="translate(39.93 486.96) rotate(-76.77)"/>
      <ellipse class="cls-1" cx="271.61" cy="81.75" rx="55.2" ry="45.46" transform="translate(129.86 327.44) rotate(-76.77)"/>
    </g>
  </g>
</svg>