<?xml version="1.0" encoding="UTF-8"?>
<svg id="Capa_2" data-name="Capa 2" xmlns="http://www.w3.org/2000/svg" viewBox="0 0 310 184.48">
  <defs>
    <style>
      .cls-1 {
        fill: none;
        stroke: #000;
        stroke-miterlimit: 10;
        stroke-width: 10px;
      }
    </style>
  </defs>
  <g id="Capa_1-2" data-name="Capa 1">
    <path class="cls-1" d="m255.57,179.48c-20.41,0-38.21-12.24-45.7-30.58h-109.74c-7.5,18.34-25.3,30.58-45.71,30.58-27.25,0-49.42-22.17-49.42-49.43,0-14.8,6.74-28.56,17.62-37.77-9.41-7.9-15.73-19.2-17.26-31.89-.24-1.97-.36-3.98-.36-5.97C5,27.17,27.17,5,54.42,5c21.38,0,39.81,13.45,46.64,32.98h107.89c6.81-19.53,25.25-32.98,46.63-32.98,27.26,0,49.43,22.17,49.43,49.42,0,1.75-.09,3.47-.28,5.12-1.34,13.07-7.7,24.69-17.33,32.76,10.87,9.22,17.61,22.96,17.61,37.75,0,27.26-22.17,49.43-49.43,49.43Z"/>
  </g>
</svg>