<?xml version="1.0" encoding="UTF-8"?>
<svg xmlns="http://www.w3.org/2000/svg" viewBox="0 0 351.34 305.15">
  <defs>
    <style>
      .cls-1 {
        fill: #936037;
        stroke-width: 2.18px;
      }

      .cls-1, .cls-2, .cls-3, .cls-4, .cls-5 {
        stroke: #432918;
      }

      .cls-1, .cls-3, .cls-4, .cls-5 {
        stroke-linecap: round;
      }

      .cls-1, .cls-4, .cls-5 {
        stroke-linejoin: round;
      }

      .cls-2, .cls-3 {
        stroke-miterlimit: 10;
      }

      .cls-2, .cls-3, .cls-4 {
        stroke-width: 2.88px;
      }

      .cls-2, .cls-4, .cls-5 {
        fill: #d7d2b8;
      }

      .cls-6, .cls-7, .cls-8 {
        fill: #fff;
      }

      .cls-3 {
        fill: none;
      }

      .cls-9 {
        isolation: isolate;
      }

      .cls-5 {
        stroke-width: 2.82px;
      }

      .cls-7 {
        opacity: .3;
      }

      .cls-7, .cls-8, .cls-10 {
        mix-blend-mode: soft-light;
      }

      .cls-8, .cls-10 {
        opacity: .4;
      }

      .cls-10 {
        fill: #fffacc;
      }

      .cls-11 {
        fill: #432918;
      }

      .cls-12 {
        fill: #dadada;
      }

      .cls-12, .cls-13 {
        mix-blend-mode: multiply;
      }

      .cls-13 {
        fill: #e0d6d4;
      }
    </style>
  </defs>
  <g class="cls-9">
    <g id="Capa_2" data-name="Capa 2">
      <g id="Capa_1-2" data-name="Capa 1">
        <g>
          <path class="cls-12" d="m0,282.74c0,12.37,78.65,22.4,175.67,22.4s175.67-10.03,175.67-22.4-78.65-22.4-175.67-22.4S0,270.37,0,282.74Z"/>
          <g>
            <g>
              <path class="cls-4" d="m139.98,38.18s.03-28.41,4.84-31.81c4.82-3.39,34.45-8.38,37.3-1.46,2.85,6.91,2.54,29.18-6.02,31.76-8.57,2.57-20.77-13.85-22.85-13.23-4.29,1.29-3.71,14.2-3.71,14.2l-9.56.54Z"/>
              <path class="cls-7" d="m177.35,6.86c-6.83-3.65-15.74-4.21-22.88-1.1-8.22,3.58-12.25,10.64-13.93,18.61.58-7.76,1.79-16.24,4.29-18,4.82-3.39,34.45-8.38,37.3-1.46.71,1.72,1.23,4.41,1.47,7.5-1.6-2.24-3.64-4.16-6.24-5.55Z"/>
              <path class="cls-12" d="m148.64,36.91c-3.33-4.2-3.62-11.46-1.14-16.22.85-1.64,3.3-6.44,5.84-4.85,2.14,1.34,3.66,3.66,5.28,5.55,6.03,7.05,15.78,10.34,23.49,7.36-1.21,3.97-3.15,7.05-6.02,7.91-8.57,2.57-20.77-13.85-22.85-13.23-4.29,1.29-3.71,14.2-3.71,14.2l-.36.02c-.16-.25-.34-.5-.54-.76Z"/>
            </g>
            <path class="cls-4" d="m216.56,260.86c45.11-16.64,31.64-62.39,31.64-62.39,0,0,4.34,38.05-53.23,44.01"/>
            <path class="cls-12" d="m208.84,254.29l7.72,6.57c20.82-7.68,29.16-21.57,32.1-34.29-8.96,14.21-23.3,24.58-39.82,27.72Z"/>
            <path class="cls-2" d="m186.11,55.12c-18.28-9.25-24.72-26.56-53.72-25.59-7.86.26-32.08,11.47-29.2,37.35,5.54,49.7-18.84,100.63-31.59,134.05-16.47,43.18,13.2,76.57,13.2,76.57h110.55s34.23-25.58,19.55-58.07c-15.93-35.27-51.27-85.97-40.7-113.62.06-.12,33.64-3.04,38.37-20.02,5.33-19.13-2.85-18.72-26.48-30.68Z"/>
            <path class="cls-8" d="m143.39,36.5c6.63,8.92,15.28,13.76,25.55,17.58,13.99,5.21,36.07,11.34,43.26,25.5,1.66-12.39-6.78-13.32-26.54-23.33-16.11-8.15-22.59-22.84-45.27-24.32.9,1.57,1.92,3.1,3,4.56Z"/>
            <path class="cls-12" d="m181.1,104.75c-6.13-.39-12.19-1.69-17.74-3.78-3.77-1.42-7.69-3.08-11.7-3.77-.18.59-.4,1.24-.41,1.48-.58,11.29.46,22.9,4.45,33.55,4.23,11.31,11.83,19.96,20.63,27.99,4.38,4,8.88,7.95,13.92,11.11-12.41-24.6-22.31-49.12-16.04-65.52.02-.03,2.81-.3,6.88-1.07Z"/>
            <path class="cls-12" d="m214.92,219.43c-1.65-3.66-3.52-7.49-5.52-11.44-1.88,11.3-5,22.3-10.01,32.43-12.99,26.26-42.18,38.07-69.12,23.94-15.18-7.96-26.7-21.74-33.42-37.36-7.79-18.1-7.53-37.43-1.96-56.18,5.59-18.82,16.26-37.37,17.02-57.29.37-9.62-.12-19.15-5.52-27.38-.81-1.24-1.62-2.45-2.41-3.67-.24,44.55-20.96,88.52-32.38,118.45-16.47,43.18,13.2,76.57,13.2,76.57h110.55s34.23-25.58,19.55-58.07Z"/>
            <path class="cls-4" d="m190.8,248.89s-33.73,28.29-11.46,29.2c22.28.91,59.82,1.23,71.35,2.55,11.54,1.32,10.32-6.57-2.86-12.61-9.78-4.49-24.98-7.95-35.49-10.19,22.79-21.31,20.27-53.39-7.85-35.73"/>
            <path class="cls-12" d="m217,273.42c-7.74-.02-16.62,1.26-23.26-3.66-3.51-2.6-5.72-6.01-6.52-10.33-.41-2.25.69-6.22,1.13-8.39-7.33,6.61-27.54,26.3-9.01,27.06,22.28.91,59.82,1.23,71.35,2.55,1.32.15,2.44.17,3.43.1-10.71-6.59-24.45-7.28-37.12-7.32Z"/>
            <path class="cls-4" d="m85.82,248.89s33.73,28.29,11.46,29.2c-22.28.91-59.82,1.23-71.35,2.55-11.54,1.32-10.32-6.57,2.86-12.61,9.78-4.49,24.98-7.95,35.49-10.19-22.79-21.31-20.27-53.39,7.85-35.73"/>
            <path class="cls-12" d="m85.82,248.89l-13.66-26.72c-1.21,1.16-2.71,2.12-4.37,2.81-3.79,1.59-2.76,12.49-1.35,15.17,4.39,8.34,14.25,11.7,20.09,18.98,4.88,6.08,7.2,12.77,7.15,19.09,1.24-.04,2.45-.09,3.61-.14,22.28-.91-11.46-29.2-11.46-29.2Z"/>
            <path class="cls-11" d="m217.31,82c-1.55,5.17-6.43,11.08-15.68,16.43,12.23-10.8-11.31-30.81,8.47-31.55,7.9,4.51,8.88,9.56,7.21,15.12Z"/>
            <g>
              <path class="cls-4" d="m127.96,50.18s-14.69-33.58-22.13-35.1c-7.45-1.52-45.04,7.88-44.85,17.52s12.05,35.81,23.51,34.43c11.45-1.38,17.4-27.09,20.18-27.43,5.73-.69,11.71,14.87,11.71,14.87"/>
              <path class="cls-7" d="m67.62,32.43c6.19-7.84,16.43-13.1,26.48-13.11,11.56-.01,19.97,6.25,26.08,14.81-4.7-8.87-10.5-18.27-14.36-19.06-7.45-1.52-45.04,7.88-44.85,17.52.05,2.41.82,5.84,2.14,9.62.74-3.47,2.16-6.8,4.52-9.78Z"/>
              <path class="cls-12" d="m117.06,53.14c1.77-6.69-1.64-15.41-7.02-19.76-1.86-1.5-7.22-5.91-9.41-2.71-1.84,2.69-2.44,6.22-3.38,9.29-3.48,11.45-13.31,20.37-23.97,20.82,3.48,4.07,7.36,6.71,11.2,6.25,11.45-1.38,17.4-27.09,20.18-27.43,5.73-.69,11.71,14.87,11.71,14.87l.44-.16c.06-.38.14-.77.25-1.17Z"/>
            </g>
            <g>
              <path class="cls-6" d="m158.52,58.97c0,4.48-3.63,8.11-8.11,8.11s-8.11-3.63-8.11-8.11,3.63-8.11,8.11-8.11,8.11,3.63,8.11,8.11Z"/>
              <path class="cls-11" d="m156.43,58.08c0,2.35-1.91,4.26-4.26,4.26s-4.26-1.91-4.26-4.26,1.91-4.26,4.26-4.26,4.26,1.91,4.26,4.26Z"/>
              <path class="cls-6" d="m150.42,57.05c0,1.06-.86,1.93-1.93,1.93s-1.92-.86-1.92-1.93.86-1.93,1.92-1.93,1.93.86,1.93,1.93Z"/>
              <path class="cls-6" d="m152.76,58.04c0,.52-.42.93-.93.93s-.94-.42-.94-.93.42-.94.94-.94.93.42.93.94Z"/>
            </g>
            <path class="cls-3" d="m202.81,97.23c-37.63,19.97-54.32-6.74-54.32-6.74"/>
            <path class="cls-11" d="m184.03,89.36l.09.06s.1.06.14.09c.15.09.31.13.48.13.17,0,.33-.04.48-.13.29-.17.47-.48.47-.82s-.18-.65-.47-.82c-.15-.09-.31-.13-.48-.13-.17,0-.33.04-.48.13-.05.03-.1.06-.14.09l-.09.06c-.12.07-.21.16-.28.28-.07.12-.11.25-.11.39,0,.14.04.27.11.39.07.12.16.21.28.28h0Z"/>
            <path class="cls-11" d="m186.94,87.69c.11,0,.21.01.32.02.11,0,.22-.02.32-.07.1-.03.19-.09.27-.17.08-.08.14-.16.17-.27.05-.1.08-.21.07-.32l-.03-.22c-.04-.14-.11-.26-.21-.37l-.17-.13c-.13-.07-.27-.11-.42-.11-.11,0-.21.01-.32.02-.11,0-.22.02-.31.07-.1.03-.19.09-.26.17-.08.07-.14.16-.17.26-.05.1-.07.2-.07.31l.03.22c.04.14.11.26.21.36l.16.13c.13.07.26.11.41.11h0Z"/>
            <path class="cls-11" d="m189.73,90.86c.09.04.19.08.28.11l-.12-.05c.11.05.1.05.19.06.04,0,.05,0,.07,0,0,0,0,0,.01,0h.03c.07,0,.13-.01.2-.04.06-.02.12-.06.16-.1.05-.05.08-.1.1-.16.03-.06.05-.13.04-.2l-.02-.13c-.02-.09-.07-.16-.13-.22l-.1-.08c-.08-.05-.16-.07-.26-.07h-.03s0,0-.01,0c0,0,0,0,0,0-.07,0-.13.01-.2.04-.02,0-.04.02-.06.03l.12-.05c-.09.04-.19.08-.28.11l-.09.04s-.08.06-.11.1c-.02.02-.04.05-.05.09-.02.05-.04.1-.03.15v.1s.04.06.05.09c.02.05.06.08.1.11.04.03.08.06.13.07h0Z"/>
            <path class="cls-11" d="m192.71,86.9c1.41,0,1.42-2.2,0-2.2s-1.42,2.2,0,2.2h0Z"/>
            <path class="cls-11" d="m186.93,82.23c.1,0,.2-.02.29-.07.09-.03.18-.08.24-.16.07-.07.13-.15.16-.24.05-.09.07-.19.07-.29l-.03-.2c-.04-.13-.1-.24-.2-.34l-.15-.12c-.12-.07-.25-.1-.38-.1-.1,0-.2.02-.29.07-.09.03-.18.08-.24.16-.07.07-.13.15-.16.24-.05.09-.07.19-.07.29l.03.2c.04.13.1.24.2.34l.15.12c.12.07.25.1.38.1h0Z"/>
            <path class="cls-11" d="m193.95,83.31c.07.03.14.05.21.08l.23.03c.12,0,.23-.02.33-.07.07-.02.14-.06.19-.11.09-.06.17-.14.22-.24.02-.03.03-.07.04-.1.05-.1.08-.21.07-.33l-.03-.23c-.02-.07-.05-.14-.09-.21l-.13-.17c-.08-.08-.17-.14-.28-.18-.07-.04-.14-.06-.22-.06-.11-.03-.23-.02-.34.02-.07.03-.14.05-.21.08l-.19.08c-.09.05-.16.12-.22.2-.05.05-.08.11-.1.17-.05.09-.07.19-.07.3l.03.21.08.19c.05.09.12.16.2.22.08.07.16.12.26.14h0Z"/>
            <polyline class="cls-4" points="151.39 206.54 155.95 271.04 167.73 274.56 179.75 206.54"/>
            <path class="cls-12" d="m179.43,207.49c-17.57,2.48-7.06,28.12-6.91,39.34,0,.2,0,.39,0,.59l7.08-40.09c-.06.06-.1.16-.18.17Z"/>
            <path class="cls-5" d="m155.45,263.96c-2.95,1.66-5.19,3.89-6.37,6.44-2.71.98-4.54,2.88-4.54,5.05,0,3.19,3.93,5.77,8.77,5.77,3.21,0,6.02-1.14,7.55-2.84,1.46,1.7,4.15,2.84,7.23,2.84,3.5,0,6.5-1.46,7.76-3.55,1.32,2.08,4.45,3.55,8.1,3.55,4.85,0,8.77-2.58,8.77-5.77,0-2.5-2.43-4.63-5.82-5.43-2.72-5.34-10.11-9.17-18.81-9.17"/>
            <path class="cls-12" d="m186.9,270.03c-2.2-4.3-7.42-7.62-13.92-8.75,5.53,5.16,8.89,12.8,6.34,19.06,1.35.56,2.93.89,4.64.89,4.85,0,8.77-2.58,8.77-5.77,0-2.5-2.43-4.63-5.82-5.43Z"/>
            <polyline class="cls-4" points="133.24 206.54 128.67 271.04 116.9 274.56 104.88 206.54"/>
            <path class="cls-12" d="m129.79,255.23l3.33-47.07c-13.2,9.32-10.05,31.05-3.33,47.07Z"/>
            <path class="cls-5" d="m129.18,263.96c2.95,1.66,5.19,3.89,6.37,6.44,2.71.98,4.54,2.88,4.54,5.05,0,3.19-3.93,5.77-8.77,5.77-3.21,0-6.02-1.14-7.54-2.84-1.46,1.7-4.15,2.84-7.24,2.84-3.5,0-6.5-1.46-7.76-3.55-1.32,2.08-4.45,3.55-8.1,3.55-4.85,0-8.77-2.58-8.77-5.77,0-2.5,2.43-4.63,5.82-5.43,2.73-5.34,10.11-9.17,18.81-9.17"/>
            <path class="cls-12" d="m135.55,270.41c-.2-.44-.45-.86-.71-1.28-4.62,7.81-12.1,9.83-22.2,10.76-.41.04-.83.07-1.25.11,1.42.76,3.2,1.23,5.15,1.23,3.08,0,5.77-1.14,7.24-2.84,1.53,1.7,4.33,2.84,7.54,2.84,4.85,0,8.77-2.58,8.77-5.77,0-2.18-1.83-4.07-4.54-5.05Z"/>
          </g>
          <g>
            <path class="cls-1" d="m317.4,239.12c-.92,6.04-6.17,7.09-13.78,7.09s-7.96-1.04-13.88-4.94c-6.31-4.15-2.38-17.79,13.69-22.89-3.82,13.09,15.83,8.55,13.96,20.73Z"/>
            <path class="cls-13" d="m292.89,228.89c1.37-5.18,10.06-8.84,10.55-10.5-16.07,5.09-20,18.73-13.69,22.89,4,2.63,5.46,3.96,8.33,4.54-4.2-4.48-6.86-10.59-5.19-16.93Z"/>
            <path class="cls-1" d="m313.73,238.66c5.42.82,8.98,2.64,8.98,6.46,0,6.12-9.12,7.09-20.37,7.09s-20.37,0-20.37-7.09c0-3.8,4.76-5.81,11.65-6.63"/>
            <path class="cls-13" d="m322.63,245.98c.04-.28.08-.56.08-.86,0-3.82-3.56-5.64-8.98-6.46l-5.83-.05c.02.37,9.62,1.74,14.73,7.37Z"/>
            <path class="cls-13" d="m292.08,239.07c-6.04.93-10.11,2.91-10.11,6.42,0,6.39,7.42,7.02,17.12,7.08-4.44-3.46-16.78-4.94-7.01-13.5Z"/>
            <path class="cls-1" d="m293.02,245.39c-9.53.66-16.29,2.78-16.29,8.73,0,2.91,1.61,3.81,4.38,5.17l-.19,9.06c-7.47,1.6-12.22,4.39-12.22,8.78,0,10.55,15.06,10.55,33.64,10.55s33.64-1.45,33.64-10.55c0-4.7-4.02-7.35-10.46-8.82.85-3.8,1.71-10.87,1.71-10.87,0,0,.72-1.87.72-3.31,0-4.9-6.18-7.45-15.06-8.47"/>
            <path class="cls-13" d="m323.57,251.14c1.99,1.16,2.79,3.71,3.98,5.31.19-.67.4-1.56.4-2.33,0-4.63-5.53-7.17-13.65-8.29,1.74,3.05,5.48,3.1,9.27,5.31Z"/>
            <path class="cls-13" d="m281,259.23c.3-.27.61-.51.95-.73.16-1.6-2.83-2.05-1.6-4.93,1.83-4.29,4.4-5.31,6.17-7.39-5.95,1.15-9.77,3.46-9.77,7.94,0,2.87,1.57,3.79,4.26,5.11Z"/>
            <path class="cls-13" d="m303.45,284.79c-5.05-.78-10.23.49-15.16-1.19-5.7-1.95-9.12-7.66-7.61-13.33-.47-.47-.88-1.01-1.21-1.59-6.62,1.64-10.77,4.34-10.77,8.44,0,10.55,15.06,10.55,33.64,10.55s7.25-1.93,1.11-2.88Z"/>
            <path class="cls-1" d="m302.34,255.67c17.28.88,29.65,0,29.65,6.37,0,3.41-1.64,7.82-8.37,7.82"/>
            <path class="cls-13" d="m322.81,256.69c5.06,2.15,6.58,8.29,2.75,12.52-.19.21-.39.39-.59.57,5.59-.56,7.01-4.58,7.01-7.75,0-3.35-3.42-4.69-9.18-5.34Z"/>
            <path class="cls-1" d="m298.7,272.1c-14.86-.05-26.37,0-26.37-7.33,0-5.27,4.99-6.55,9.64-6.55"/>
            <path class="cls-13" d="m276.11,265.58c-1.36-2.82-.08-5.53-.23-6.29-2.07.94-4.04,2.66-3.54,5.47,1.45,8.18,17.98,5.93,26.37,6.41-4.21-2.32-20.49-1.26-22.59-5.6Z"/>
            <path class="cls-13" d="m321.94,254.26c0,.83-8.68-.68-15.69-.68s-15.72-.18-15.72-1.01,8.71-1.99,15.72-1.99,15.69,2.85,15.69,3.68Z"/>
            <path class="cls-10" d="m321.94,262.97c0,.83-8.68-.68-15.69-.68s-15.72-.18-15.72-1.01,8.71-1.99,15.72-1.99,15.69,2.85,15.69,3.68Z"/>
            <path class="cls-10" d="m333.38,276.38c0,.83-2.11-2.2-9.12-2.2s-15.72-.18-15.72-1.01,8.71-1.99,15.72-1.99,9.12,4.38,9.12,5.2Z"/>
            <path class="cls-10" d="m314.02,242.17c0,.83-5.85-.68-10.58-.68s-10.6-.18-10.6-1.01,5.88-1.99,10.6-1.99,10.58,2.85,10.58,3.68Z"/>
            <path class="cls-10" d="m315.3,235.3c0,.83-5.18-2.14-11.87-4.23-6.06-1.9-2.46-8.17-2.46-9s-.25,5.05,3.1,6.63c6.33,3,11.23,5.77,11.23,6.59Z"/>
            <path class="cls-11" d="m289.47,224.68c.23-1.48-.19-2.85.71-4.2.54-.81,1.3-1.43,1.92-2.17,1.34-1.6,1.4-3.67.24-5.42-1.06-1.59-3.27-2.05-4.17-3.73-1.46-2.75,1.63-4.08,3.25-5.58.08-.07.02-.22-.09-.22-2.15.11-4.42,1.53-4.63,3.88s1.42,3.69,3.21,4.89c1.1.74,1.9,1.5,1.98,2.89.08,1.28-.5,2.11-1.35,2.99-.78.81-1.64,1.66-2.03,2.74-.47,1.32-.23,2.75.34,3.99.12.25.58.2.62-.08h0Z"/>
            <path class="cls-11" d="m308.3,225.26c1.55-1,.68-2.99.05-4.28-.47-.95-1.09-1.89-1.41-2.91-.39-1.22.13-2.23.88-3.18,1.33-1.69,2.81-3.06,2.84-5.37s-1.39-4.98-3.45-6.13c-.11-.06-.23.06-.17.17.59,1.08,1.48,1.96,2.06,3.05.65,1.22.96,2.65.62,4.02-.49,2.01-2.4,3.15-3.31,4.92-.79,1.52-.45,3,.28,4.48.83,1.67,2.05,3.12,1.42,5.08-.04.11.1.22.2.15h0Z"/>
            <path class="cls-11" d="m300.13,208.67c.6-.4.55-1.23.48-1.86-.09-.81-.27-1.61-.31-2.43-.05-1.25.67-2.12,1.38-3.06.67-.89,1.46-1.9,1.44-3.07,0-.58-.26-1.13-.68-1.53-.5-.49-1.45-.98-2.16-.76-.31.1-.52.49-.32.78.36.53,1.09.64,1.44,1.17.17.25.12.47,0,.81-.36.95-1.09,1.76-1.65,2.59-.66.99-1.05,2.03-.93,3.24.07.75.27,1.47.42,2.2.12.57.05,1.23.29,1.76.09.21.42.28.6.16h0Z"/>
          </g>
        </g>
      </g>
    </g>
  </g>
</svg>