<?xml version="1.0" encoding="UTF-8"?>
<svg id="Layer_1" data-name="Layer 1" xmlns="http://www.w3.org/2000/svg" viewBox="0 0 2445.68 2649.25">
  <defs>
    <style>
      .cls-1 {
        fill: #fff;
      }

      .cls-2 {
        opacity: .6;
      }

      .cls-3 {
        fill: #f8aa1d;
      }

      .cls-4 {
        opacity: .3;
      }

      .cls-5 {
        fill: #ff8d06;
      }

      .cls-6 {
        fill: #000072;
      }

      .cls-7 {
        fill: #b199c5;
      }

      .cls-8 {
        fill: #e74a63;
      }

      .cls-9 {
        fill: #ff67a0;
      }
    </style>
  </defs>
  <g class="cls-4">
    <ellipse class="cls-6" cx="1229.74" cy="2499.31" rx="990.93" ry="149.94"/>
  </g>
  <path class="cls-5" d="m620.85,1811.8s-49.19-12.41-83.85-28.84c-14.9-7.07-32.64,2.05-35.1,18.35-2.68,17.75-3.13,41.08,4.36,66.69,0,0-16.25-4.69-43.3-4.83-18.35-.1-30.67,18.95-22.68,35.47,1.43,2.95,2.55,6.04,3.23,9.21l210.76,516.59c21.81-106.82,76.83-133.97,76.83-133.97-73.98-191.47-110.24-478.68-110.24-478.68Z"/>
  <g class="cls-2">
    <path class="cls-1" d="m444.63,1909.8l8.12,18.71c1.53,3.53,4.93,5.82,8.77,6.1,3.44.24,6.85.58,10.23,1.01,5.02.64,10.04-2.36,11.12-7.3,2.34-10.66,11.7-19.4,24-19.61,11.59-.19,21.22.49,28.44,1.34,6.84.8,12.52-5.41,11.11-12.15-2.54-12.13-3.4-23.57-3.25-33.92.35-24.59,24.99-41.08,47.89-32.13,6,2.35,12.19,4.56,18.31,6.61,7.23,2.42,14.41-3.84,13.18-11.36-.7-4.28-1.26-7.82-1.69-10.56-.63-4.03-3.6-7.28-7.56-8.27-14.58-3.63-50.65-13.19-77.94-25.4-15.05-6.74-32.59,2.77-34.69,19.12-1.84,14.3-2.16,32.17,1.96,51.83,1.42,6.77-4.21,13.02-11.08,12.21-3.51-.41-7.58-.78-12.17-1.04-23.72-1.3-40.8,21.15-34.9,44.16.06.22.11.43.16.65Z"/>
  </g>
  <path class="cls-5" d="m1838.21,1811.8s49.19-12.41,83.85-28.84c14.9-7.07,32.64,2.05,35.1,18.35,2.68,17.75,3.13,41.08-4.36,66.69,0,0,16.25-4.69,43.3-4.83,18.35-.1,30.67,18.95,22.68,35.47-1.43,2.95-2.55,6.04-3.23,9.21l-210.76,516.59c-21.81-106.82-76.83-133.97-76.83-133.97,73.98-191.47,110.24-478.68,110.24-478.68Z"/>
  <ellipse class="cls-1" cx="384.46" cy="2206.57" rx="256.04" ry="347.85" transform="translate(-921.2 386.68) rotate(-25.77)"/>
  <g class="cls-4">
    <path class="cls-6" d="m652.18,2205.65c-13.69-68.93-43.31-132.89-82.78-185.88,15.34,32.9,27.16,68.06,34.43,104.65,36.48,183.6-53.82,332.85-201.68,333.36-92.35.32-185.32-57.47-250.99-145.64,61.62,132.16,180.95,227.28,299.34,226.87,147.86-.51,238.15-149.76,201.68-333.36Z"/>
  </g>
  <path class="cls-6" d="m449.77,2559.32c-156.58,0-314.8-155.84-352.95-347.88-21.52-108.33-1.75-209.73,54.25-278.18,41.72-51,101.13-79.21,167.28-79.44h.81c156.58,0,314.8,155.84,352.95,347.88h0c21.52,108.33,1.75,209.73-54.26,278.18-41.72,51-101.12,79.21-167.27,79.44h-.81Zm-130.58-664.88h-.7c-54.58.19-101.59,22.5-135.98,64.54-48.29,59.03-65,148.16-45.85,244.56,34.56,173.96,174.91,315.17,313.08,315.17h.7c54.57-.19,101.59-22.5,135.98-64.54,48.29-59.03,65-148.17,45.85-244.56h0c-34.56-173.96-174.91-315.17-313.08-315.17Z"/>
  <ellipse class="cls-9" cx="384.46" cy="2248.63" rx="69.43" ry="94.33" transform="translate(-939.49 390.86) rotate(-25.77)"/>
  <ellipse class="cls-9" cx="220.55" cy="2213.09" rx="38.15" ry="51.83" transform="translate(-940.34 316.06) rotate(-25.77)"/>
  <ellipse class="cls-9" cx="287.27" cy="2062.96" rx="38.15" ry="51.83" transform="translate(-868.43 330.13) rotate(-25.77)"/>
  <ellipse class="cls-9" cx="428.7" cy="2089.07" rx="38.15" ry="51.83" transform="translate(-865.71 394.22) rotate(-25.77)"/>
  <path class="cls-6" d="m443.49,1928.18c-9.38,0-17.81-6.54-19.84-16.09-.3-1.41-.85-2.96-1.65-4.6-6.78-14.03-5.86-30.28,2.46-43.48,8.36-13.25,22.69-21.14,38.35-21.14h.25c6.48.03,12.41.31,17.72.71-1.6-14.92-1.26-30.07,1.04-45.3,2.12-14.08,10.58-26,23.21-32.72,12.59-6.7,27.8-7.06,40.67-.95,32.39,15.36,79.64,27.38,80.12,27.5,10.87,2.75,17.46,13.79,14.72,24.66-2.74,10.87-13.79,17.46-24.65,14.72-2.09-.53-51.54-13.09-87.58-30.18-1.85-.87-3.42-.32-4.19.1-1.22.65-1.93,1.64-2.13,2.93-2.98,19.72-1.71,39.21,3.77,57.96,2.08,7.11.12,14.79-5.11,20.03-5.23,5.25-12.89,7.25-20.01,5.18-.05,0-14.35-3.91-37.79-4.03h-.03c-2.28,0-3.49,1.38-4.01,2.2-.84,1.34-.93,2.72-.25,4.13,2.21,4.58,3.83,9.23,4.81,13.83,2.33,10.97-4.67,21.75-15.64,24.09-1.42.3-2.85.45-4.25.45Z"/>
  <g class="cls-2">
    <path class="cls-1" d="m2013.37,1909.8l-8.12,18.71c-1.53,3.53-4.93,5.82-8.77,6.1-3.44.24-6.85.58-10.23,1.01-5.02.64-10.04-2.36-11.12-7.3-2.34-10.66-11.7-19.4-24-19.61-11.59-.19-21.22.49-28.44,1.34-6.84.8-12.52-5.41-11.11-12.15,2.54-12.13,3.4-23.57,3.25-33.92-.35-24.59-24.99-41.08-47.89-32.13-6,2.35-12.19,4.56-18.31,6.61-7.23,2.42-14.41-3.84-13.18-11.36.7-4.28,1.26-7.82,1.69-10.56.63-4.03,3.6-7.28,7.56-8.27,14.58-3.63,50.65-13.19,77.94-25.4,15.05-6.74,32.59,2.77,34.69,19.12,1.84,14.3,2.16,32.17-1.96,51.83-1.42,6.77,4.21,13.02,11.08,12.21,3.51-.41,7.58-.78,12.17-1.04,23.72-1.3,40.8,21.15,34.9,44.16-.06.22-.11.43-.16.65Z"/>
  </g>
  <ellipse class="cls-1" cx="2074.6" cy="2206.57" rx="347.85" ry="256.04" transform="translate(-814.52 3115.34) rotate(-64.23)"/>
  <path class="cls-6" d="m2009.29,2559.32h-.81c-66.15-.23-125.56-28.44-167.28-79.44-56-68.46-75.77-169.85-54.25-278.18,38.15-192.02,196.37-347.88,352.95-347.88h.81c66.15.23,125.56,28.44,167.28,79.44,56,68.46,75.77,169.85,54.25,278.18-38.15,192.02-196.37,347.86-352.95,347.88Zm130.59-664.88c-138.18,0-278.52,141.2-313.08,315.17h0c-19.15,96.39-2.44,185.53,45.85,244.56,34.38,42.04,81.4,64.36,135.98,64.54h.7c138.18,0,278.52-141.2,313.08-315.17,19.15-96.39,2.44-185.53-45.85-244.56-34.38-42.04-81.4-64.36-135.98-64.54h-.7Zm-333,311.22h.05-.05Z"/>
  <ellipse class="cls-9" cx="2074.6" cy="2248.63" rx="94.33" ry="69.43" transform="translate(-852.4 3139.12) rotate(-64.23)"/>
  <ellipse class="cls-9" cx="2238.51" cy="2213.09" rx="51.83" ry="38.15" transform="translate(-727.76 3266.64) rotate(-64.23)"/>
  <ellipse class="cls-9" cx="2171.79" cy="2062.96" rx="51.83" ry="38.15" transform="translate(-630.27 3121.7) rotate(-64.23)"/>
  <ellipse class="cls-9" cx="2030.36" cy="2089.07" rx="51.83" ry="38.15" transform="translate(-733.72 3009.1) rotate(-64.23)"/>
  <path class="cls-6" d="m2015.57,1928.18c-1.4,0-2.82-.15-4.25-.45-10.97-2.33-17.97-13.12-15.64-24.09.98-4.6,2.6-9.25,4.81-13.83.68-1.41.6-2.79-.25-4.13-.52-.82-1.73-2.2-4.01-2.2h-.03c-23.44.13-37.74,4.02-37.88,4.06-7.1,1.97-14.76-.05-19.94-5.29-5.18-5.24-7.15-12.87-5.09-19.95,5.48-18.75,6.75-38.24,3.77-57.96-.2-1.3-.91-2.29-2.13-2.93-.77-.42-2.35-.97-4.19-.1-36.04,17.09-85.5,29.65-87.58,30.18-10.87,2.74-21.91-3.85-24.65-14.72-2.74-10.87,3.85-21.91,14.72-24.66.47-.12,47.72-12.13,80.12-27.5,12.88-6.1,28.09-5.76,40.67.95,12.62,6.72,21.09,18.65,23.21,32.72,2.3,15.22,2.64,30.38,1.04,45.3,5.31-.41,11.24-.68,17.72-.71h.25c15.67,0,30,7.89,38.36,21.14,8.33,13.2,9.25,29.45,2.47,43.48-.8,1.65-1.35,3.19-1.65,4.6-2.03,9.55-10.46,16.09-19.84,16.09Z"/>
  <g class="cls-4">
    <path class="cls-6" d="m1806.88,2205.65c13.69-68.93,43.31-132.89,82.78-185.88-15.34,32.9-27.16,68.06-34.43,104.65-36.48,183.6,53.82,332.85,201.68,333.36,92.35.32,185.32-57.47,250.99-145.64-61.62,132.16-180.95,227.28-299.34,226.87-147.86-.51-238.15-149.76-201.68-333.36Z"/>
  </g>
  <path class="cls-5" d="m1838.21,1528.94s34.29-4.87,58.95-27.79c11.66-10.85,9.75-29.94-4-38-33.07-19.5-92.89-61.21-110.42-116.62-22.05,54.25-39.92,84.07-39.92,84.07l-17.41-70.32c-25.24,94.69-83.49,122.19-83.49,122.19l-25.82-63.24c-2.09,2.44-4.18,4.82-6.38,7.19-.81.93-1.62,1.8-2.44,2.67-2.61,2.78-5.28,5.51-8.07,8.18-1.97,1.97-3.95,3.83-6.03,5.69-3.77,3.54-7.72,6.96-11.78,10.33-1.97,1.62-4,3.25-6.09,4.87-4.12,3.25-8.41,6.44-12.76,9.52-2.84,2.03-5.74,4-8.7,5.98-7.48,4.93-15.26,9.63-23.27,14.1-2.03,1.16-4.12,2.26-6.21,3.42-1.57.87-3.19,1.74-4.87,2.55-.17.12-.41.17-.58.29-2.9,1.51-5.8,2.96-8.76,4.41-3.83,1.91-7.72,3.71-11.66,5.51-2.9,1.28-5.8,2.55-8.76,3.83-1.45.64-2.96,1.28-4.47,1.86-3.66,1.57-7.37,3.02-11.08,4.47-10.39,4-21.06,7.77-31.97,11.2-.17.06-.35.12-.46.17-.58.17-1.1.35-1.68.52-2.2.7-4.41,1.39-6.67,2.03-2.78.87-5.63,1.68-8.47,2.44-2.38.7-4.7,1.33-7.14,1.91-1.16.35-2.32.64-3.54.93-2.15.58-4.29,1.16-6.5,1.68-.7.17-1.45.35-2.15.52-1.74.46-3.48.87-5.22,1.28-.41.12-.87.23-1.33.29-2.9.75-5.8,1.45-8.76,2.03-.06.06-.17.06-.23.06-4.47,1.04-8.99,1.97-13.52,2.84-4.29.93-8.65,1.74-13,2.49-.75.12-1.51.29-2.32.41-3.89.7-7.77,1.39-11.72,1.97-8.76,1.39-17.58,2.67-26.52,3.77-3.19.41-6.38.75-9.57,1.04-6.15.75-12.42,1.33-18.62,1.91-3.66.35-7.37.64-11.02.87-11.2.81-22.51,1.45-33.89,1.86-3.71.12-7.43.23-11.2.29-6.32.12-12.71.23-19.09.23-4.29,0-8.59-.06-12.94-.12-2.84-.06-5.74-.12-8.65-.17-2.9-.06-5.8-.12-8.7-.23-11.43-.41-22.92-.99-34.41-1.8-3.71-.23-7.37-.52-11.08-.81-2.32-.23-4.64-.46-7.02-.64-6.9-.64-13.81-1.33-20.71-2.09-4.29-.52-8.59-.99-12.88-1.57-4.29-.52-8.59-1.1-12.88-1.74-4.24-.58-8.53-1.22-12.76-1.91-4.29-.7-8.53-1.39-12.77-2.09-4.24-.7-8.47-1.45-12.71-2.26-4.18-.75-8.41-1.57-12.59-2.44-8.59-1.74-17.12-3.6-25.59-5.51-3.71-.87-7.37-1.74-10.97-2.67-8.65-2.15-17.23-4.41-25.7-6.73-12.01-3.37-23.79-7.02-35.39-10.91-11.66-3.83-23.03-7.95-34.23-12.36-.12-.06-.23-.12-.29-.12-3.77-1.45-7.48-2.96-11.2-4.53-3.71-1.51-7.43-3.07-11.08-4.7-3.66-1.57-7.25-3.13-10.85-4.82-.35-.17-.7-.35-1.04-.46-4.06-1.86-8.12-3.77-12.13-5.74-.06-.06-.17-.06-.23-.12-2.61-1.28-5.22-2.55-7.77-3.89-1.86-.87-3.66-1.8-5.45-2.79-4.18-2.09-8.24-4.29-12.3-6.56-.64-.35-1.28-.7-1.86-1.04-.29-.12-.58-.29-.81-.46-8.07-4.47-15.84-9.11-23.44-13.93-3.77-2.38-7.49-4.82-11.14-7.31-8.59-5.69-16.77-11.66-24.66-17.87-3.25-2.49-6.44-5.05-9.52-7.66-1.91-1.57-3.77-3.13-5.57-4.76-1.68-1.39-3.31-2.84-4.93-4.29-1.74-1.57-3.48-3.13-5.16-4.76-3.31-3.08-6.5-6.21-9.63-9.34-4-4.06-7.89-8.18-11.66-12.42-1.74-1.97-3.42-3.95-5.11-5.92-3.89-4.58-7.6-9.28-11.14-14.1-.99-1.33-1.97-2.67-2.9-4-4.58-6.38-8.88-12.94-12.82-19.67l-36.32,57.85s-2.32-1.62-6.03-5.11c-13.05,27.68-57.56,55.53-85.52,70.84-14.27,7.83-16.65,27.44-4.64,38.41,24.6,22.57,58.49,27.39,58.49,27.39-5.57,33.65-34.18,70.84-54.13,93.3-11.26,12.71-5.92,32.72,10.1,38.35,22.28,7.83,44.04,7.6,44.04,7.6,0,0,57.33-3.25,87.03-29.01-35.92,33.71-87.03,29.01-87.03,29.01-4.35,311.11,110.24,622.29,110.24,622.29-84.13,58.6-119.29,217.99-7.83,270.27,2.55,1.22,5.16,2.32,7.83,3.42,120.86,48.33,320.57,23.67,369.89-73.51,2.96-5.86,5.69-12.36,8.18-19.38h240.73c2.49,7.02,5.22,13.52,8.18,19.38,49.32,97.19,249.03,121.85,369.89,73.51,2.67-1.1,5.28-2.2,7.83-3.42,111.46-52.28,76.3-211.66-7.83-270.27,0,0,114.59-311.17,110.24-622.29,0,0-48.62,4.47-84.36-26.63,35.92,25.01,84.36,26.63,84.36,26.63,0,0,21.76.23,44.04-7.6,15.96-5.63,21.35-25.65,10.1-38.35-19.96-22.45-48.56-59.65-54.13-93.3Z"/>
  <path class="cls-1" d="m1626.49,1465.6h-793.92s265.37,157.9,297.11,338.6c0,0,15.26,158.46,74.87,242.59,0,0-21.92,18.18-64.92-11.22,0,0-1.66,56.91,32.06,94.26,0,0-14.63,14.87-44.12,2.18,0,0,23.12,215.5-18.42,339.29h240.74c-41.54-123.8-18.42-339.29-18.42-339.29-29.49,12.69-44.12-2.18-44.12-2.18,33.73-37.35,32.06-94.26,32.06-94.26-43,29.4-64.92,11.22-64.92,11.22,59.61-84.13,74.87-242.59,74.87-242.59,31.74-180.7,297.11-338.6,297.11-338.6Z"/>
  <g class="cls-4">
    <path class="cls-6" d="m1326.99,2289.94c-10.25,43.81-49.76,77.04-97.46,77.04s-87.2-33.23-97.46-77.04c-2.91,48.55-18.35,167.77-22.91,181.36h240.74c-4.56-13.59-20-132.82-22.91-181.36Z"/>
  </g>
  <g class="cls-4">
    <path class="cls-6" d="m1737.94,1410.87l-12.52-50.59c-25.24,94.69-83.49,122.19-83.49,122.19l-25.82-63.24c-2.09,2.44-4.18,4.82-6.38,7.19-.81.93-1.62,1.8-2.44,2.67-2.61,2.78-5.28,5.51-8.07,8.18-1.97,1.97-3.95,3.83-6.03,5.69-3.77,3.54-7.72,6.96-11.78,10.33-1.97,1.62-4,3.25-6.09,4.87-4.12,3.25-8.41,6.44-12.76,9.52-2.84,2.03-5.74,4-8.7,5.98-7.48,4.93-15.26,9.63-23.27,14.1-2.03,1.16-4.12,2.26-6.21,3.42-1.57.87-3.19,1.74-4.87,2.55-.17.12-.41.17-.58.29-2.9,1.51-5.8,2.96-8.76,4.41-3.83,1.91-7.72,3.71-11.66,5.51-2.9,1.28-5.8,2.55-8.76,3.83-1.45.64-2.96,1.28-4.47,1.86-3.66,1.57-7.37,3.02-11.08,4.47-10.39,4-21.06,7.77-31.97,11.2-.17.06-.35.12-.46.17-.58.17-1.1.35-1.68.52-2.2.7-4.41,1.39-6.67,2.03-2.78.87-5.63,1.68-8.47,2.44-2.38.7-4.7,1.33-7.14,1.91-1.16.35-2.32.64-3.54.93-2.15.58-4.29,1.16-6.5,1.68-.7.17-1.45.35-2.15.52-1.74.46-3.48.87-5.22,1.28-.41.12-.87.23-1.33.29-2.9.75-5.8,1.45-8.76,2.03-.06.06-.17.06-.23.06-4.47,1.04-8.99,1.97-13.52,2.84-4.29.93-8.65,1.74-13,2.49-.75.12-1.51.29-2.32.41-3.89.7-7.77,1.39-11.72,1.97-8.76,1.39-17.58,2.67-26.52,3.77-3.19.41-6.38.75-9.57,1.04-6.15.75-12.42,1.33-18.62,1.91-3.66.35-7.37.64-11.02.87-11.2.81-22.51,1.45-33.89,1.86-3.71.12-7.43.23-11.2.29-6.32.12-12.71.23-19.09.23-4.29,0-8.59-.06-12.94-.12-2.84-.06-5.74-.12-8.65-.17-2.9-.06-5.8-.12-8.7-.23-11.43-.41-22.92-.99-34.41-1.8-3.71-.23-7.37-.52-11.08-.81-2.32-.23-4.64-.46-7.02-.64-6.9-.64-13.81-1.33-20.71-2.09-4.29-.52-8.59-.99-12.88-1.57-4.29-.52-8.59-1.1-12.88-1.74-4.24-.58-8.53-1.22-12.76-1.91-4.29-.7-8.53-1.39-12.77-2.09-4.24-.7-8.47-1.45-12.71-2.26-4.18-.75-8.41-1.57-12.59-2.44-8.59-1.74-17.12-3.6-25.59-5.51-3.71-.87-7.37-1.74-10.97-2.67-8.65-2.15-17.23-4.41-25.7-6.73-12.01-3.37-23.79-7.02-35.39-10.91-11.66-3.83-23.03-7.95-34.23-12.36-.12-.06-.23-.12-.29-.12-3.77-1.45-7.48-2.96-11.2-4.53-3.71-1.51-7.43-3.07-11.08-4.7-3.66-1.57-7.25-3.13-10.85-4.82-.35-.17-.7-.35-1.04-.46-4.06-1.86-8.12-3.77-12.13-5.74-.06-.06-.17-.06-.23-.12-2.61-1.28-5.22-2.55-7.77-3.89-1.86-.87-3.66-1.8-5.45-2.79-4.18-2.09-8.24-4.29-12.3-6.56-.64-.35-1.28-.7-1.86-1.04-.29-.12-.58-.29-.81-.46-8.07-4.47-15.84-9.11-23.44-13.93-3.77-2.38-7.49-4.82-11.14-7.31-8.59-5.69-16.77-11.66-24.66-17.87-3.25-2.49-6.44-5.05-9.52-7.66-1.91-1.57-3.77-3.13-5.57-4.76-1.68-1.39-3.31-2.84-4.93-4.29-1.74-1.57-3.48-3.13-5.16-4.76-3.31-3.08-6.5-6.21-9.63-9.34-4-4.06-7.89-8.18-11.66-12.42-1.74-1.97-3.42-3.95-5.11-5.92-3.89-4.58-7.6-9.28-11.14-14.1-.99-1.33-1.97-2.67-2.9-4-4.58-6.38-8.88-12.94-12.82-19.67l-33.34,53.1c91.6,166.55,300.45,282.94,543.49,282.94s436.46-107.96,532.9-264.73Z"/>
  </g>
  <g>
    <path class="cls-3" d="m620.85,1668.19s51.13,4.71,87.03-29.01"/>
    <g>
      <path class="cls-6" d="m758.57,2411.66c-8.91,9.47-16.87,21.08-22.83,32.81-5.99,11.86-10.01,24.39-11.68,36.86-1.14,6.21-.81,12.47-.9,18.58.91,6.12,1.12,12.17,3.09,18.01l1.14,4.38.55,2.18.88,2.13,3.49,8.42c.92,2.84,2.81,5.44,4.28,8.12l4.55,7.95,1.04,1.82c5.6,9.79,2.21,22.27-7.58,27.87-9.79,5.6-22.27,2.21-27.87-7.58-.52-.9-.99-1.93-1.36-2.87l-4.35-11.41c-1.35-3.83-3.04-7.45-3.81-11.55l-2.78-11.94-.65-2.97-.31-3.07-.59-6.13c-1.18-8.09-.38-16.34-.09-24.39,1.3-8.02,2.36-16,4.97-23.55,4.63-15.21,11.9-29.15,20.83-41.45,4.53-6.12,9.31-11.95,14.55-17.33,5.22-5.49,10.59-10.34,16.9-15.16,2.93-2.24,7.11-1.67,9.35,1.25,2.01,2.63,1.76,6.28-.44,8.62l-.38.4Z"/>
      <path class="cls-6" d="m936.75,2431.04c-9.96,9.54-18.81,20.95-25.85,32.74-7.03,11.87-12.45,24.46-15.23,37.25-2.91,12.76-3.18,25.6-1.01,37.78,2.18,12.2,6.89,23.73,13.17,34.46,5.69,9.73,2.42,22.23-7.31,27.92-9.73,5.69-22.23,2.42-27.92-7.31-.62-1.07-1.14-2.17-1.55-3.29l-.13-.36c-5.63-15.64-9.01-32.42-8.81-49.16.16-16.74,3.81-33.16,10.18-47.84,6.26-14.78,15.14-27.82,25.18-39.31,10.18-11.48,21.31-21.44,34.12-29.84,2-1.31,4.69-.76,6.01,1.25,1.17,1.78.86,4.09-.63,5.51l-.22.21Z"/>
      <g class="cls-4">
        <path class="cls-6" d="m1189.82,2020.73c-39.64-82.24-62.24-229.24-62.24-229.24,0,0-36.4,97.05-1.58,169.28,6.73,13.97-5.47,29.83-20.67,26.72-10.71-2.19-22.99-6.83-35.53-15.89,0,0,7.83,42.83,24.04,75.83,6.89,14.02-4.74,29.81-20.15,27.28-3.23-.53-6.56-1.39-9.93-2.66,0,0,22.73,261.46-26.59,358.65-49.32,97.19-249.01,121.85-369.89,73.49-.79-.32-1.5-.69-2.28-1.02,11.94,25.99,33.23,47.82,66.1,60.97,120.88,48.35,320.57,23.69,369.89-73.49s26.59-358.65,26.59-358.65c3.37,1.28,6.7,2.13,9.93,2.66,15.41,2.53,27.04-13.26,20.15-27.28-16.21-33-24.04-75.83-24.04-75.83,12.54,9.07,24.81,13.71,35.53,15.89,15.2,3.1,27.4-12.75,20.67-26.72Z"/>
      </g>
      <g class="cls-4">
        <path class="cls-6" d="m1270.35,2020.73c39.64-82.24,62.24-229.24,62.24-229.24,0,0,36.4,97.05,1.58,169.28-6.73,13.97,5.47,29.83,20.67,26.72,10.71-2.19,22.99-6.83,35.53-15.89,0,0-7.83,42.83-24.04,75.83-6.89,14.02,4.74,29.81,20.15,27.28,3.23-.53,6.56-1.39,9.93-2.66,0,0-22.73,261.46,26.59,358.65,49.32,97.19,249.01,121.85,369.89,73.49.79-.32,1.5-.69,2.28-1.02-11.94,25.99-33.23,47.82-66.1,60.97-120.88,48.35-320.57,23.69-369.89-73.49s-26.59-358.65-26.59-358.65c-3.37,1.28-6.7,2.13-9.93,2.66-15.41,2.53-27.04-13.26-20.15-27.28,16.21-33,24.04-75.83,24.04-75.83-12.54,9.07-24.81,13.71-35.53,15.89-15.2,3.1-27.4-12.75-20.67-26.72Z"/>
      </g>
      <g>
        <path class="cls-6" d="m1134.19,1790.47c5.31,25.83,11.53,51.68,18.31,77.2,6.82,25.53,14.32,50.85,22.9,75.6,4.31,12.37,8.91,24.56,13.84,36.53,2.47,5.98,5.2,11.78,7.77,17.66,1.35,2.89,2.84,5.68,4.24,8.52l2.13,4.24,1.06,2.12.53,1.06.94,2.11c2.5,5.65,3.53,12.33,2.69,18.71-.81,6.39-3.34,12.43-7.17,17.49-3.82,5.06-9.03,9.22-15.17,11.79-6.11,2.61-13.15,3.37-19.52,2.39l-1.21-.16-.8-.14-1.5-.27-2.98-.61c-1.98-.44-3.95-.93-5.89-1.48-3.9-1.1-7.73-2.41-11.47-3.93-7.49-3.03-14.58-6.88-21.19-11.29h0s31.87-20.11,31.87-20.11c1.87,9.62,4.46,20.2,7.3,30.09,2.89,9.99,6.15,19.81,9.94,29.12,1,2.27,1.92,4.63,2.96,6.84,1.14,2.6,1.65,3.07,4.14,9.47,1.73,5.32,2.42,11.14,1.82,16.85-.66,5.71-2.58,11.17-5.48,15.99-5.71,9.67-16.05,16.76-27.48,18.48-2.8.42-5.7.58-8.44.38-1.37-.11-2.75-.25-4.11-.42l-2.82-.52c-3.74-.77-7.45-1.83-11.04-3.19l27.43-20.75c3.64,46.58,5.33,92.48,5.28,138.93-.16,46.36-2.07,92.9-8.76,139.78-3.53,23.45-8.19,47.01-16.64,70.7-4.09,11.71-9.96,23.99-17.64,35.15-7.59,11.08-16.63,20.89-26.5,29.2-19.68,16.84-41.94,28.84-64.69,37.9-22.78,9.2-46.29,15.24-69.93,19.58-47.34,8.32-95.49,9.17-143.08,2.62-23.79-3.29-47.43-8.76-70.58-16.74-11.28-4.02-23.63-9.14-34.95-15.91-11.28-6.95-21.85-15.39-31-25.32-18.43-19.93-29.65-45.63-34.15-71.3-4.34-25.82-2.7-51.75,3.11-76.25,2.94-12.26,6.86-24.22,11.67-35.81,4.93-11.54,10.76-22.68,17.47-33.34,13.41-21.28,30.75-40.51,52.07-55.63l-7.45,23.68c-9.17-25.77-17.21-50.95-24.94-76.62-3.9-12.78-7.46-25.64-11.21-38.46l-10.48-38.65c-13.5-51.65-25.07-103.8-34.83-156.33-10.01-52.48-17.3-105.52-22.67-158.8l-3.56-40.02c-.91-13.37-1.44-26.78-2.18-40.17l-1.03-20.09-.24-20.15-.36-40.3,20.51,20.59c-3.17,0-5.22-.12-7.73-.26-2.39-.15-4.76-.35-7.11-.6-4.71-.49-9.38-1.18-14.05-2.05-4.67-.86-9.34-1.98-14.01-3.3-2.33-.65-4.67-1.39-6.99-2.18-.88-.24-3.1-1.16-4.74-1.87-1.77-.7-3.43-1.75-5.09-2.72-13.42-8.18-21.45-23.59-20.81-39.06.23-7.74,2.64-15.57,6.85-22.1.99-1.68,2.24-3.12,3.42-4.65l1.33-1.58.98-1.12,3.89-4.51c10.24-12.11,19.81-24.74,27.64-37.81,7.78-12.97,14.11-26.68,16.19-39.05l17.19,23.42c-3.72-.58-6-1.1-8.85-1.77-2.71-.64-5.36-1.35-7.99-2.14-5.25-1.57-10.43-3.35-15.52-5.51-10.19-4.18-20.09-9.71-29.33-16.7-2.35-1.66-4.52-3.69-6.75-5.56l-.83-.72-1.12-1.1-2.28-2.38c-1.45-1.65-2.78-3.46-4.02-5.3-4.78-7.54-7.28-16.51-6.91-25.26.32-8.75,3.16-17.45,8.49-24.62,2.56-3.65,5.85-6.74,9.35-9.43.88-.66,1.82-1.23,2.74-1.82l2.54-1.54,3-1.67c15.96-8.96,31.45-18.72,45.31-29.49,6.86-5.4,13.3-11.09,18.63-16.93,5.32-5.76,9.41-11.98,10.86-16.41l.21-.63c3.49-10.66,14.95-16.47,25.61-12.99,10.66,3.49,16.47,14.95,12.99,25.61l-.06.19c-4.65,13.75-12.15,23.24-19.57,31.56-7.54,8.25-15.51,15.17-23.63,21.57-16.29,12.65-33.21,23.23-50.51,32.96l-3.25,1.81c-.37.2-.37.22-.39.25l-.11.09c-.07.06-.19.07-.25.13-.22.27-.54.39-.67.7-.43.47-.63,1.27-.69,2.02-.07.79.23,1.39.48,1.93.13.11.19.25.31.39.08.05.15.12.21.2.06.06,0,.04.14.17l.53.44c1.44,1.16,2.72,2.46,4.29,3.53,5.98,4.51,12.83,8.45,20.3,11.49,3.69,1.58,7.56,2.9,11.44,4.06,1.94.59,3.9,1.11,5.83,1.56,1.79.45,4.18.91,5.17,1.07l.59.09c10.95,1.76,18.41,12.06,16.65,23.01-.01.07-.04.24-.05.31-3.66,20.74-12.22,37.69-21.46,53.38-9.4,15.63-20.14,29.73-31.49,43.16l-4.3,4.99-1.08,1.24-.54.62c-.19.22-.08.13-.14.21-.04.17-.28.24-.3.4-.31.5-.44.95-.47,1.56-.08,1.28.66,2.72,1.66,3.22.16.03.22.22.43.23.3.07-.04.09,1.09.43,1.63.55,3.28,1.09,4.98,1.55,3.38.95,6.85,1.8,10.41,2.44,3.55.66,7.15,1.19,10.77,1.57,1.81.19,3.61.34,5.39.46,1.66.11,3.79.18,4.81.19,11.27.03,20.4,9.12,20.51,20.36v.23s.36,39.06.36,39.06l.22,19.53,1.01,19.54c.72,13.02,1.23,26.05,2.11,39.07l3.48,39.02c5.25,51.98,12.36,103.88,22.18,155.35,9.58,51.5,20.93,102.71,34.19,153.44l10.29,37.95c3.68,12.57,7.17,25.21,11,37.73,7.51,24.99,15.6,50.21,24.16,74.29v.03c3.16,8.86-.15,18.46-7.45,23.65-16.01,11.38-30.05,26.63-40.98,44.05-5.47,8.7-10.28,17.88-14.35,27.38-3.95,9.55-7.17,19.38-9.57,29.37-4.77,19.96-5.87,40.61-2.62,59.95,3.47,19.26,11.4,37.09,24.14,50.89,6.37,6.89,13.8,12.84,21.97,17.92,8.37,4.94,17.19,8.69,27.44,12.37,20.11,6.92,41.24,11.87,62.76,14.83,43.05,5.95,87.51,5.16,130.27-2.38,21.33-3.91,42.36-9.35,62.02-17.32,19.69-7.8,38.17-18.02,53.28-30.98,7.64-6.4,14.19-13.64,19.51-21.42l2.04-2.9,1.73-3.04c1.1-2.09,2.42-3.89,3.36-6.24l3.08-6.72,2.73-7.14c6.96-19.42,11.39-40.96,14.62-62.71,6.26-43.74,8.19-88.87,8.33-133.97.07-45.05-1.64-90.67-5.13-135.31v-.17c-.89-11.18,7.47-20.96,18.65-21.83,3.05-.24,6.09.25,8.77,1.25,1.55.59,3.14,1.05,4.79,1.38l1.24.23s0-.04,0-.04c0,.03-.13-.01-.23.02-.57.07-.9.44-1.04.62-.13.16-.26.91-.1,1.11.53,1.26-1.44-3.18-2.6-5.58-1.29-2.76-2.39-5.53-3.59-8.29-4.49-11.06-8.15-22.14-11.38-33.27-3.2-11.25-5.89-22.04-8.21-34l-.1-.49c-2.11-10.86,4.99-21.37,15.85-23.48,5.88-1.14,11.73.47,16.12,3.86h0c4.19,3.36,8.62,6.29,13.28,8.68,2.33,1.2,4.72,2.26,7.15,3.19,1.22.47,2.45.89,3.69,1.29l1.87.56.94.26.42.12h.02c.17.18.01.35.09.47.06.13.34.15.64-.01.6-.45,1-.59.98-1.41l.02-.21-.49-1.22-.98-2.43-1.95-4.86c-1.28-3.24-2.64-6.47-3.83-9.72-2.23-6.52-4.61-13.01-6.68-19.53-4.12-13.05-7.81-26.13-11.16-39.25-6.66-26.23-12.06-52.57-16.75-78.98-4.66-26.44-8.67-52.82-11.83-79.53-.43-3.67,2.19-7,5.86-7.43,3.47-.41,6.64,1.91,7.34,5.27l.03.13Z"/>
        <path class="cls-6" d="m619.7,1647.92c2.87.45,6.83.7,10.35.87,3.63.19,7.29.27,10.96.26,7.33-.02,14.7-.36,22-1.17,14.56-1.68,29.01-4.96,41.79-12.27l.22-.13c2.28-1.31,5.19-.51,6.5,1.77,1.03,1.81.75,4.01-.55,5.49-5.52,6.33-12.02,11.82-18.94,16.66-6.96,4.74-14.34,8.8-21.91,12.46-7.58,3.6-15.36,6.7-23.29,9.47-3.97,1.39-7.97,2.67-12.03,3.85-4.17,1.2-7.93,2.28-12.8,3.27l-1.44.29c-11.24,2.27-22.18-5-24.45-16.23-2.27-11.24,5-22.18,16.23-24.45,2.47-.5,5-.52,7.35-.16Z"/>
      </g>
    </g>
  </g>
  <g>
    <path class="cls-3" d="m1838.21,1668.19s-51.13,4.71-87.03-29.01"/>
    <g>
      <path class="cls-6" d="m1708.69,2401.79c6.28,4.76,11.67,9.6,16.88,15.05,5.25,5.34,10.04,11.15,14.57,17.24,8.95,12.24,16.24,26.13,20.9,41.3,2.63,7.53,3.71,15.49,5.03,23.5.32,8.04,1.14,16.28-.02,24.36l-.58,6.12-.31,3.07-.64,2.97-2.75,11.94c-.76,4.1-2.43,7.72-3.77,11.56l-4.32,11.42c-3.99,10.56-15.78,15.88-26.34,11.89-10.56-3.99-15.88-15.78-11.89-26.34.38-1.01.84-1.98,1.35-2.89l1.1-1.9,4.58-7.93c1.47-2.67,3.37-5.27,4.31-8.11l3.53-8.42.89-2.13.56-2.18,1.16-4.39c1.99-5.85,2.22-11.9,3.15-18.04-.07-6.12.28-12.4-.84-18.63-1.63-12.51-5.62-25.1-11.6-37.01-5.94-11.79-13.87-23.45-22.83-33.01l-.34-.37c-2.32-2.48-2.19-6.37.29-8.7,2.22-2.08,5.58-2.19,7.92-.41Z"/>
      <path class="cls-6" d="m1526.71,2425.09c12.7,8.18,23.91,18.05,34.1,29.39,10.08,11.36,19.01,24.28,25.35,38.95,6.45,14.58,10.19,30.92,10.47,47.62.31,16.71-2.97,33.49-8.5,49.18l-.1.29c-3.75,10.64-15.41,16.22-26.05,12.47-10.64-3.75-16.22-15.41-12.47-26.05.45-1.27,1.06-2.55,1.72-3.67,6.37-10.69,11.2-22.21,13.48-34.44,2.28-12.21,2.11-25.14-.72-38.01-2.7-12.9-8.06-25.61-15.06-37.61-7.03-11.93-15.8-23.44-25.86-33.19l-.15-.15c-1.22-1.18-1.25-3.13-.07-4.34,1.04-1.07,2.66-1.22,3.87-.44Z"/>
      <g>
        <path class="cls-6" d="m1337.45,1792.41c-3.1,26.69-7.05,53.08-11.66,79.52-4.64,26.41-9.99,52.76-16.59,78.99-3.32,13.12-6.99,26.2-11.08,39.26-2.06,6.53-4.43,13.01-6.64,19.54-1.18,3.25-2.54,6.48-3.81,9.72l-1.94,4.87-.97,2.43-.49,1.22.02.22c-.03.88.4,1.08,1.04,1.55.32.17.62.16.7.03.09-.12-.04-.3.14-.48h.03s.43-.12.43-.12l.94-.26,1.87-.56c1.24-.41,2.47-.83,3.69-1.3,2.44-.93,4.82-2.01,7.15-3.21,4.66-2.41,9.08-5.35,13.26-8.72,8.54-6.89,21.05-5.55,27.94,2.99,3.62,4.49,4.97,10.09,4.19,15.38l-.26,1.74h0c-2.33,11.99-5.03,22.8-8.23,34.07-3.23,11.15-6.9,22.25-11.41,33.34-1.2,2.77-2.3,5.54-3.6,8.31-1.21,2.48-3.07,6.75-2.55,5.43.19-.29,0-.64-.02-.76-.04-.07-.64-.77-1.63-.86-.21-.04-.38-.01-.46-.03-.25.08.32,0,.74-.07l1.24-.23c1.65-.34,3.24-.8,4.8-1.39,10.5-3.96,22.23,1.34,26.19,11.84,1.08,2.86,1.47,5.8,1.26,8.66l-.02.25c-3.49,44.64-5.2,90.27-5.13,135.31.14,45.1,2.07,90.23,8.33,133.97,3.23,21.75,7.67,43.29,14.62,62.71l2.73,7.14,3.08,6.72c.95,2.35,2.26,4.15,3.36,6.24l1.73,3.04,2.04,2.9c5.32,7.78,11.87,15.02,19.51,21.42,15.11,12.96,33.59,23.18,53.28,30.98,19.66,7.96,40.69,13.4,62.02,17.32,42.77,7.54,87.22,8.34,130.27,2.38,21.53-2.96,42.66-7.91,62.76-14.83,10.25-3.68,19.08-7.43,27.44-12.37,8.18-5.08,15.6-11.03,21.97-17.92,12.74-13.8,20.67-31.63,24.14-50.89,3.25-19.35,2.14-39.99-2.62-59.95-2.4-9.98-5.61-19.82-9.57-29.37-4.07-9.5-8.88-18.67-14.35-27.38-10.93-17.42-24.97-32.66-40.98-44.05-7.66-5.45-10.47-15.19-7.47-23.63l.02-.05c8.57-24.08,16.65-49.3,24.16-74.29,3.82-12.52,7.32-25.16,11-37.73l10.29-37.95c13.26-50.73,24.61-101.95,34.19-153.44,9.82-51.47,16.94-103.36,22.18-155.35l3.48-39.02c.88-13.02,1.39-26.05,2.11-39.07l1.01-19.54.22-19.53.35-39.06v-.21c.1-11.27,9.27-20.34,20.51-20.38,1.01,0,3.14-.08,4.81-.19,1.78-.11,3.59-.26,5.39-.46,3.61-.38,7.22-.91,10.77-1.57,3.56-.65,7.03-1.49,10.41-2.44,1.7-.47,3.35-1,4.98-1.55,1.13-.34.79-.36,1.09-.43.21,0,.27-.19.43-.23,1-.5,1.74-1.94,1.66-3.22-.03-.61-.16-1.06-.47-1.56-.01-.16-.25-.23-.3-.4-.06-.08.05,0-.14-.21l-.54-.62-1.08-1.24-4.3-4.99c-11.35-13.44-22.09-27.53-31.49-43.16-9.24-15.68-17.8-32.64-21.46-53.38-1.91-10.8,5.21-21.1,15.94-23.18l1.25-.24,2.87-.55,3.45-.79c2.33-.59,4.67-1.26,6.99-1.99,4.64-1.47,9.18-3.24,13.48-5.29,4.29-2.05,8.47-4.28,12.21-6.88,1.97-1.21,3.64-2.67,5.47-3.99l2.49-2.17c.33-.3,1.04-.85,1.06-.93.07-.11.15-.19.25-.26,1.2-1.11,1.07-3.61.03-4.61-.08-.17-.28-.25-.4-.41-.07-.08-.21-.09-.29-.18l-.13-.13-.96-.58c-2.56-1.56-5.17-3.06-7.7-4.68-5.1-3.17-10.13-6.46-15.1-9.86-19.85-13.58-38.75-29.04-55.65-47.32-8.36-9.24-16.33-19.04-23.19-29.97-6.81-10.95-12.66-22.83-16.86-35.61-3.5-10.65,2.29-22.13,12.95-25.63,10.65-3.5,22.13,2.29,25.63,12.95l.15.44c2.99,8.94,7.23,17.71,12.48,26.18,5.29,8.46,11.79,16.47,18.75,24.17,14.14,15.31,30.81,29.08,48.67,41.28,4.47,3.05,9.01,6.02,13.61,8.88,2.28,1.47,4.64,2.81,6.95,4.23l.88.53,1.65,1.07c1.09.74,2.19,1.44,3.22,2.27,2.06,1.69,4.05,3.45,5.79,5.5,7.17,8.01,10.96,18.61,11,29.1.04,10.5-3.9,21.16-10.89,29.09l-2.71,2.84c-.96.97-1.4,1.26-2.13,1.93l-3.99,3.44c-2.76,2.08-5.48,4.31-8.36,6.13-5.67,3.9-11.6,7.09-17.62,9.95-6.02,2.86-12.16,5.24-18.42,7.23-3.13,1-6.29,1.9-9.5,2.71l-4.9,1.13c-1.75.37-3.15.65-5.55,1.02l17.19-23.42c2.08,12.37,8.41,26.08,16.19,39.05,7.83,13.07,17.41,25.7,27.64,37.81l3.89,4.51.98,1.12,1.33,1.58c1.18,1.52,2.43,2.96,3.42,4.65,4.21,6.54,6.62,14.36,6.85,22.1.64,15.47-7.39,30.89-20.81,39.06-1.67.97-3.33,2.01-5.09,2.72-1.64.72-3.86,1.63-4.74,1.87-2.33.79-4.66,1.53-6.99,2.18-4.67,1.32-9.34,2.44-14.01,3.3-4.67.88-9.35,1.56-14.05,2.05-2.35.25-4.71.45-7.11.6-2.51.14-4.56.26-7.73.26l20.51-20.59-.36,40.3-.24,20.15-1.03,20.09c-.73,13.39-1.27,26.8-2.18,40.17l-3.56,40.02c-5.37,53.27-12.66,106.32-22.67,158.8-9.77,52.53-21.34,104.68-34.83,156.33l-10.48,38.65c-3.75,12.82-7.31,25.68-11.21,38.46-7.73,25.67-15.77,50.86-24.94,76.62l-7.45-23.68c21.32,15.12,38.66,34.36,52.07,55.63,6.71,10.65,12.54,21.8,17.47,33.34,4.81,11.59,8.73,23.55,11.67,35.81,5.81,24.5,7.45,50.43,3.11,76.25-4.51,25.67-15.73,51.37-34.15,71.3-9.14,9.94-19.72,18.38-31,25.32-11.32,6.77-23.68,11.89-34.95,15.91-23.15,7.98-46.79,13.45-70.58,16.74-47.59,6.55-95.73,5.69-143.08-2.62-23.64-4.34-47.15-10.38-69.93-19.58-22.75-9.06-45.02-21.07-64.69-37.9-9.87-8.31-18.9-18.12-26.5-29.2-7.68-11.16-13.54-23.45-17.64-35.15-8.45-23.69-13.12-47.25-16.64-70.7-6.69-46.89-8.6-93.42-8.76-139.78-.05-46.45,1.65-92.35,5.28-138.93l27.43,20.75c-3.6,1.36-7.31,2.43-11.06,3.2l-2.82.52c-.95.15-1.73.29-3.36.42-2.83.3-5.75.25-8.7-.12-5.88-.78-11.63-2.99-16.47-6.27-4.86-3.28-8.72-7.61-11.59-12.42-5.83-9.55-7.17-21.81-3.66-32.59,2.48-6.48,3.1-7.13,4.19-9.65,1.05-2.21,1.97-4.57,2.97-6.85,3.8-9.33,7.07-19.17,9.97-29.17,2.84-9.91,5.44-20.51,7.31-30.15h0s31.87,20.11,31.87,20.11c-6.62,4.4-13.72,8.23-21.21,11.25-3.74,1.51-7.58,2.82-11.48,3.91-1.95.55-3.92,1.03-5.89,1.47l-2.98.6-1.49.27-.8.14-1.21.16c-6.36.97-13.38.21-19.47-2.4-6.12-2.57-11.3-6.72-15.11-11.77-3.81-5.05-6.32-11.06-7.12-17.43-.83-6.35.21-13.01,2.7-18.63l.94-2.1.53-1.06,1.07-2.12,2.14-4.24c1.41-2.84,2.9-5.63,4.26-8.52,2.59-5.88,5.33-11.68,7.82-17.65,4.96-11.96,9.59-24.16,13.93-36.52,8.64-24.74,16.2-50.05,23.07-75.58,6.84-25.52,13.11-51.36,18.48-77.2l.02-.09c.68-3.27,3.88-5.36,7.14-4.68,3.08.64,5.12,3.54,4.77,6.61Z"/>
        <path class="cls-6" d="m1837.51,1688.49c-3.08-.44-5.19-.93-7.66-1.46-2.37-.53-4.71-1.1-7.01-1.72-4.62-1.21-9.15-2.58-13.63-4.07-8.96-3-17.69-6.57-26.13-10.71-8.45-4.11-16.53-9.1-24.11-14.6-7.59-5.55-14.42-12.13-20.47-19.14-2.18-2.52-1.9-6.34.63-8.51,2.09-1.8,5.05-1.92,7.25-.48l.35.23c6.88,4.52,14.01,8.34,21.61,11.18,7.62,2.78,15.36,5.01,23.34,6.44,7.96,1.45,16,2.37,24.03,2.75,4.02.18,8.03.26,12,.18,1.99-.02,3.95-.1,5.9-.21,1.84-.11,4.05-.25,5.3-.48,11.26-2.12,22.1,5.3,24.22,16.56,2.12,11.26-5.3,22.1-16.56,24.22-2.27.43-4.52.47-6.69.16l-2.37-.35Z"/>
      </g>
    </g>
  </g>
  <path class="cls-6" d="m1349.9,2491.61h-240.74c-11.22,0-20.31-9.09-20.31-20.31s9.09-20.31,20.31-20.31h240.74c11.22,0,20.31,9.09,20.31,20.31s-9.09,20.31-20.31,20.31Z"/>
  <path class="cls-5" d="m2030.48,1170.94c-19.46,12.05-41.92,18.27-64.78,18.46l-16.01.13c-46.98-5.25-84.83-35.86-101.7-76.63-33.03,197.61-105.16,317.72-105.16,317.72l-17.4-70.36c-25.22,94.73-83.49,122.18-83.49,122.18l-25.81-63.21c-184.77,217.76-776.57,166.58-921.26-79.65l-36.32,57.86s-52.64-37.05-61.27-134.7l-29.17,66.33s-50.44-130.67-49.11-331.09c-22.11,34.99-60.92,58-104.61,58.35-2.84.02-5.8-.07-8.71-.22-24.95.2-49.16-8.65-68.03-24.92C175.39,891.45-65.7,542.14,51.2,426.12c123.87-122.86,464.51-260.83,464.51-260.83l-108.03-34.81c99.11-56.51,239.75-28.7,239.75-28.7l-34.09-81.48c173.07,11.94,241.38,113.97,253.79,135.16,10.65-2.7,35.58-5.22,68.06-7.57,113.22-8.16,226.75-6.96,339.44,3.49,104.09,9.65,207.47,27.2,309.2,52.56,31.57,7.87,55.76,14.69,65.78,19.19,15.86-18.75,100.67-107.58,273.2-89.61l-47.55,74.37s143.35-3.2,231.27,69.49l-112.38,15.71s311.95,194.39,412.85,336.66c93.62,132.05-192.18,426.88-376.52,541.18Z"/>
  <path class="cls-1" d="m1406.05,874.88c38.25,51.79,84.72,157.77,36.6,219.15-11.72,14.89-29.02,27.16-53.38,35.42-32.87,11.06-62.8,12.41-89.12,8.27-73.61-11.24-118.66-64.54-118.66-64.54,0,0-49.63,40.79-119.3,42.23h-.06c-28.95.7-61.38-5.48-95.12-24.18-18.94-10.46-32.51-22.89-41.55-36.57-46.06-69.37,21.93-171,70.65-216.83,58.33-54.9,224.24-580.15-128.97-682.36,10.65-2.7,35.58-5.22,68.06-7.57,217.81-15.7,436.77,3.23,648.64,56.05,31.57,7.87,55.76,14.69,65.78,19.19-365.77,37.15-291.08,587.31-243.56,651.73Z"/>
  <g class="cls-2">
    <path class="cls-1" d="m2421.72,657.79c-97.74-144.52-405.22-345.82-405.22-345.82l112.73-13.23c-86.29-74.63-229.66-74.58-229.66-74.58l49.21-73.34c-172.1-21.8-258.88,65.08-275.16,83.47-9.93-4.71-33.9-12.01-65.3-20.61-109.5-29.93-221.11-50.73-333.69-62.3-112.69-10.45-226.22-11.65-339.44-3.49-32.47,2.35-57.4,4.88-68.06,7.57-12.42-21.19-80.73-123.22-253.79-135.16l34.08,81.48s-140.64-27.81-239.75,28.7l108.03,34.81S175.07,303.26,51.2,426.12c-21.05,20.89-30.45,49.38-30.83,82.83,14.34-27.98,35.47-54.81,66.24-77.88,146.78-110.03,497.66-260.35,497.66-260.35l-95.66-26.92s91.31-48.92,202.66,4.72l-36.94-79.31s166.67,25.55,203.46,126.31c0,0,202.89-26.81,413.13-6.26,210.24,20.55,404.1,86.13,404.1,86.13,55.6-91.73,224.07-84.53,224.07-84.53l-51.59,70.66c119.63-31.06,199.74,34.61,199.74,34.61l-99.07,7.89s315.14,215.41,437.84,351.77c25.72,28.59,41.26,59,49.91,89.23,6.1-32.88,2.4-62.65-14.21-87.23Z"/>
  </g>
  <path class="cls-1" d="m832.57,1465.6c167.38,93.63,424.24,118.15,609.66,59.66-5.4-107.9-121.1-206.91-275.09-228.81-166.74-23.72-315.58,51.88-334.57,169.15Z"/>
  <g>
    <path class="cls-6" d="m1354.51,1143.42s-77.8,164.72-190.74,148.41c-113.58-10.62-152.71-177.7-152.71-177.7,106.1,18.57,174.05-67.39,174.05-67.39,0,0,54.91,102.49,169.4,96.68Z"/>
    <ellipse class="cls-8" cx="1168.78" cy="1237.65" rx="43.29" ry="81.23" transform="translate(-197.03 2253.71) rotate(-83.29)"/>
    <g>
      <path class="cls-6" d="m929.17,986.59c-.93,14.86.19,30.1,3.67,43.42,3.5,13.43,9.64,24.97,18.05,33.74,4.28,4.35,8.98,8.19,14.18,11.49,5.22,3.33,11.02,5.94,16.96,8.45,6.16,2.23,12.46,4.23,19.13,5.8l4.98,1.19,5.1.75,10.14,1.76c27,4.07,54.89.82,80.73-9.87,12.9-5.38,25.04-12.8,36.51-21.13,2.85-2.11,5.72-4.2,8.4-6.54,2.75-2.25,5.47-4.53,8.03-6.97,2.67-2.35,5.11-4.86,7.6-7.33,2.31-2.4,4.96-5.29,6.5-7.17l.49-.59c7.13-8.65,19.93-9.89,28.58-2.76,8.65,7.13,9.93,19.88,2.8,28.54-3.42,4.17-6.11,7-9.2,10.25-3.05,3.05-6.08,6.13-9.27,8.96-3.11,2.94-6.37,5.7-9.67,8.4-3.23,2.79-6.67,5.33-10.1,7.87-13.76,10.11-28.6,18.87-44.44,25.9-3.91,1.84-8.07,3.2-12.1,4.8l-6.08,2.36c-2.07.69-4.18,1.25-6.27,1.88l-12.62,3.61-12.95,2.47c-2.17.39-4.33.83-6.5,1.17l-6.59.55-13.21,1.01c-4.4-.02-8.81-.29-13.22-.44-4.39-.27-8.87-.15-13.16-1.1-17.38-2.47-34.47-6.69-50.92-14.9-8.21-4.14-16.13-9.15-23.46-15.19-7.21-6.2-13.82-13.33-19.02-21.43-10.71-16.08-15.4-35.15-15.08-52.77.13-8.86,1.26-17.48,3.45-25.71,2.14-8.29,5.03-16.01,9.24-23.65,1.33-2.42,4.37-3.3,6.79-1.96,1.75.96,2.69,2.82,2.58,4.68l-.03.49Z"/>
      <path class="cls-6" d="m1458.49,1030.81c2.77,8.44,4.16,16.55,4.8,25.16.62,8.54.26,17.3-1.26,26.09-1.41,8.82-4.14,17.64-8.21,26.12-3.97,8.52-9.51,16.55-16.2,23.54-6.66,7.02-14.36,13.11-22.67,17.9-8.3,4.8-17.09,8.22-25.91,11.02-8.84,2.39-17.78,4.27-26.57,5.15l-6.62.6-6.61.08c-4.41.05-8.82.05-13.23-.07-8.81-.3-17.63-1.95-26.34-3.31-4.3-1.09-8.59-2.24-12.86-3.42l-6.39-1.77c-2.08-.73-4.13-1.58-6.19-2.36l-12.3-4.85-11.76-5.91c-1.94-1-3.92-1.95-5.83-3l-5.55-3.45c-3.67-2.33-7.52-4.41-11.02-6.94-14.28-9.82-27.36-21.02-39.09-33.44-2.92-3.11-5.85-6.21-8.53-9.54-2.77-3.24-5.48-6.54-8.02-9.99-2.63-3.35-5.13-6.88-7.61-10.4-2.5-3.73-4.67-6.97-7.33-11.66-5.52-9.76-2.09-22.15,7.67-27.68,9.76-5.52,22.15-2.09,27.68,7.67.03.05.06.11.09.16l.36.65c1.17,2.13,3.24,5.46,5.07,8.25,2,2.88,3.92,5.82,6.14,8.6,2.1,2.85,4.39,5.57,6.71,8.26,2.23,2.77,4.7,5.32,7.15,7.9,9.87,10.17,20.51,19.65,32.34,27.09,2.89,1.96,6.02,3.48,9.02,5.24l4.56,2.51c1.56.74,3.17,1.37,4.75,2.06l9.49,4.04,9.81,2.99,4.88,1.49,5.02.94c3.34.62,6.66,1.29,9.96,2,3.37.41,6.77.59,10.13.94,3.38.26,6.69,1.04,10.13.79,13.6.24,27.48.12,40.12-2.41,6.28-1.25,12.34-2.93,18.04-5.15,5.58-2.38,10.95-5.11,15.8-8.67,4.83-3.57,9.21-7.85,13.2-12.79,3.93-4.98,7.26-10.7,10.2-16.9,5.66-12.37,9.36-27.14,10.96-41.67l.07-.63c.37-3.38,3.41-5.82,6.79-5.45,2.47.27,4.44,1.98,5.18,4.2Z"/>
    </g>
    <g class="cls-4">
      <path class="cls-6" d="m1452.48,1031.75l-6.09-2.32c-10.15,27.21-34.7,55.12-91.91,58.02-70.96,3.66-119.06-34.41-145.34-63.88-.24-.27-.49-.55-.73-.82-13.41-15.16-36.12-17-52-4.45-30.95,24.46-85.3,54.05-155.1,37.88-50.65-11.72-71.19-38.99-78.45-65.27-5.4,21.93-16.94,99.16,78.45,121.27,111.69,25.82,183.81-65.39,183.81-65.39,0,0,54.95,102.47,169.37,96.66,114.48-5.8,98-111.69,98-111.69Z"/>
    </g>
    <path class="cls-6" d="m1179.7,1313.75c-6.02,0-12.13-.41-18.37-1.29-126.62-12.32-168.73-186.2-170.46-193.6-2.61-11.16,4.32-22.33,15.48-24.94,11.17-2.61,22.33,4.32,24.94,15.48.36,1.51,37.15,152.66,134.42,161.78.34.03.68.07,1.03.12,96.34,13.85,168.29-135.24,169.01-136.75,4.91-10.35,17.29-14.77,27.64-9.87,10.35,4.9,14.78,17.26,9.89,27.62-3.27,6.92-77.67,161.45-193.57,161.45Z"/>
  </g>
  <path class="cls-6" d="m712.37,1329.28c15.01,30.51,37.18,58.43,63.2,82.85,26.07,24.47,55.92,45.61,87.59,63.92,2.35,1.34,3.16,4.34,1.82,6.68-1.23,2.15-3.86,3-6.09,2.11-34.47-13.97-68.05-31.2-99.21-53.15-31.06-21.93-59.84-48.81-82.33-81.82l-.08-.12c-6.33-9.29-3.94-21.96,5.36-28.3,9.29-6.33,21.96-3.94,28.3,5.36.52.77,1.04,1.67,1.44,2.48Z"/>
  <path class="cls-6" d="m1641.93,1502.75c-2.5,0-5-.46-7.37-1.39-5.19-2.02-9.32-6.08-11.43-11.25l-25.81-63.21c-4.24-10.38.74-22.24,11.12-26.47,10.39-4.26,22.24.74,26.48,11.12l16.19,39.65c16.61-14.79,40.8-44.02,54.69-96.17,2.39-8.96,10.61-15.15,19.8-15.08,9.27.08,17.31,6.43,19.53,15.43l4.24,17.15c23.46-51.64,58.52-143,78.58-262.99,1.49-8.94,8.73-15.8,17.73-16.83,8.99-1.03,17.6,4.04,21.06,12.41,14.49,35.02,46.62,59.48,84.04,64.08l14.75-.12c19.47-.16,38.23-5.49,54.25-15.41,137.6-85.32,352.89-288.9,382.19-433.81,6.48-32.05,2.6-58.42-11.54-78.36-97.37-137.29-403.94-329.25-407.03-331.17-7.25-4.52-10.9-13.09-9.12-21.45,1.77-8.36,8.59-14.71,17.05-15.89l57.92-8.1c-78.31-38.25-172.4-36.73-173.55-36.68-7.48.14-14.48-3.81-18.15-10.35-3.68-6.54-3.45-14.57.59-20.89l29.03-45.39c-140.05-3.25-208.9,69.13-222.06,84.69-5.85,6.92-15.58,9.13-23.84,5.41-4.6-2.07-18.82-7.16-62.36-18.01-210.18-52.39-426.27-71.07-642.27-55.5-42.68,3.09-58.65,5.52-64.53,7.01-8.76,2.22-17.94-1.62-22.51-9.42-10.3-17.58-65.84-100.75-204.27-121.54l20.81,49.75c2.89,6.92,1.74,14.87-3.01,20.68-4.74,5.81-12.3,8.53-19.67,7.08-1.1-.21-93.63-17.79-177.22,6.32l55.67,17.93c8.13,2.62,13.75,10.05,14.06,18.58.31,8.54-4.75,16.36-12.67,19.57-3.37,1.36-338.29,137.86-457.83,256.42-17.62,17.48-25.95,43.3-24.77,76.72,5.23,147.89,184.18,390.04,310.18,498.54,15.16,13.06,34.59,20.28,54.62,20,.4,0,.81,0,1.21.03,2.5.13,5.06.22,7.5.19,35.68-.29,68.44-18.57,87.6-48.89,4.84-7.67,14.19-11.19,22.88-8.64,8.7,2.55,14.66,10.56,14.6,19.62-.81,121.66,18.04,217.66,32.3,272.57l7.09-16.11c3.73-8.49,12.74-13.36,21.89-11.87,9.15,1.5,16.11,9.02,16.93,18.25,4.75,53.72,23.53,86.66,37.38,104.12l22.78-36.29c5.96-9.49,18.5-12.36,28-6.41,9.5,5.97,12.37,18.5,6.4,28l-36.32,57.86c-2.96,4.72-7.73,8.01-13.2,9.11-5.46,1.11-11.14-.09-15.69-3.3-1.88-1.33-36.25-26.19-56.49-85.14l-3.67,8.33c-3.31,7.53-10.8,12.38-19.06,12.13-8.22-.19-15.52-5.32-18.48-12.99-1.93-5.01-43.61-114.93-49.75-287.97-24.23,17.89-53.73,27.98-84.86,28.23-3.03,0-6.21-.06-9.32-.22h-.39c-29.56,0-58.09-10.58-80.45-29.85C195.58,935.63,5.97,683.82.14,518.69c-1.6-45.2,10.77-81.2,36.76-106.99,97.5-96.71,320-200.04,420.59-243.83l-56.04-18.06c-7.66-2.47-13.14-9.23-13.97-17.24-.83-8.01,3.15-15.75,10.14-19.73,73.8-42.08,166.93-40.78,217.39-35.95l-20.4-48.75c-2.72-6.5-1.88-13.94,2.23-19.67,4.11-5.73,10.89-8.94,17.91-8.43,160.34,11.06,236.78,96.91,262.08,133.03,10.66-1.51,27.85-3.34,56.91-5.44,220.29-15.87,440.67,3.16,655.02,56.6,28.27,7.04,44.91,11.81,55.19,15.16,31.14-31.27,121.17-102.71,280.99-86.06,7,.73,13.13,5.04,16.19,11.38,3.06,6.35,2.61,13.82-1.18,19.76l-28.45,44.49c50.54,3.93,142.53,18.65,207.99,72.78,6.2,5.13,8.79,13.44,6.6,21.18-2.19,7.75-8.75,13.46-16.73,14.58l-58.26,8.14c91.6,60.41,293.06,200.38,372.49,312.37,20.88,29.46,27.01,66.43,18.22,109.9-31.97,158.07-253.2,368.88-400.61,460.28-22.35,13.85-48.39,21.28-75.31,21.51l-16.02.13c-.79-.03-1.61-.04-2.42-.12-34.35-3.84-65.58-19.71-88.77-43.92-35.7,169.45-95.66,270.67-98.43,275.28-4.23,7.05-12.29,10.84-20.43,9.63-8.13-1.22-14.72-7.23-16.7-15.2l-2.2-8.9c-30.06,54.64-68.23,73.23-70.32,74.21-2.74,1.29-5.69,1.94-8.66,1.94Z"/>
  <path class="cls-6" d="m1389.27,1534.5c41.42-11.89,81.59-27.68,118.14-48.73,36.46-20.99,69.29-47.59,93.23-79.68,6.72-9.01,19.47-10.86,28.48-4.15,9.01,6.72,10.86,19.47,4.15,28.48-.48.64-.98,1.24-1.52,1.81l-.14.14c-32.49,34.01-72.05,58.28-113.06,75.79-41.16,17.51-84.1,28.55-127.25,35.52-2.56.41-4.98-1.33-5.39-3.89-.38-2.38,1.11-4.63,3.37-5.28Z"/>
  <path class="cls-6" d="m787.83,264.53c-37.08,54.46-71.08,110.99-100.87,169.61-29.8,58.6-55.8,119.05-77.4,180.93-43.49,123.68-67.28,253.66-70.28,383.62v.25c-.26,11.22-9.57,20.1-20.78,19.84-11.22-.26-20.1-9.56-19.84-20.78,0-.21.02-.51.03-.72,7.9-134.47,37.3-266.95,86.1-391.34,24.26-62.24,52.85-122.64,85.14-180.87,32.28-58.25,68.65-114.09,107.98-167.62,1.99-2.71,5.81-3.3,8.52-1.3,2.65,1.95,3.27,5.63,1.44,8.33l-.04.06Z"/>
  <path class="cls-6" d="m1725.22,345.32c29.34,58.99,55.24,119.78,76.87,182.18,21.53,62.42,39.01,126.35,51.83,191.35,12.96,64.97,20.6,131.12,23.08,197.56,2.45,66.45-.52,133.21-8.9,199.47-1.41,11.13-11.57,19.01-22.7,17.61-11.13-1.41-19.01-11.57-17.61-22.7.03-.2.05-.39.08-.59l.06-.35c10.22-63.58,15.3-128.07,15.12-192.72-.22-64.63-5.46-129.43-15.99-193.48-10.39-64.08-25.43-127.5-44.57-189.74-19.23-62.22-42.78-123.16-69.84-182.55l-.03-.06c-1.6-3.51-.05-7.64,3.46-9.24,3.43-1.56,7.47-.1,9.14,3.24Z"/>
  <path class="cls-6" d="m1275.23,838.1c-16.45-7.77-39.12-14.05-70.36-16.48-30.78-3.49-54.05-1.69-71.61,2.72-39.29,9.87-59.83,51.83-43.8,89.04,3.57,8.29,8.26,15.99,13.65,23.08,43.68,57.47,126.22,65.53,179.91,17.27,6.59-5.92,12.62-12.57,17.7-20.01,22.78-33.35,11.02-78.37-25.49-95.62Z"/>
  <g class="cls-4">
    <ellipse class="cls-1" cx="1205.04" cy="850.98" rx="18.57" ry="57.23" transform="translate(261.74 1985.21) rotate(-85.48)"/>
  </g>
  <g>
    <g class="cls-4">
      <path class="cls-6" d="m694.87,1230.78l-36.32,57.86s-52.64-37.05-61.27-134.7l-29.17,66.33s-38.43-99.57-47.31-258.18c25.66-341.03,233.74-659.99,233.74-659.99-241.04,153.77-306.94,415.57-323.53,580.21-4.47,44.35-55.54,67.36-91.71,41.29-.55-.39-1.09-.79-1.65-1.2C214.06,831.61,64.84,614.78,28.22,462.4c-51.54,140.34,161.63,441.5,309.44,568.78,18.87,16.27,43.08,25.12,68.03,24.92,2.9.15,5.86.24,8.71.22,43.69-.36,82.49-23.36,104.61-58.35-1.33,200.43,49.11,331.09,49.11,331.09l29.17-66.33c8.63,97.64,61.27,134.7,61.27,134.7l36.32-57.86c52.16,88.77,162.44,152.18,290.8,186.79-128.36-74.3-238.64-206.81-290.8-295.58Z"/>
    </g>
    <g class="cls-4">
      <path class="cls-6" d="m2414.52,642.31c-47.89,144.36-244.86,333.55-384.04,419.84-.83.51-1.73,1.02-2.7,1.51-33.34,17.01-72.06-10.77-69.04-48.07,13.45-165.87-17.83-421.58-214.71-612.26,0,0,133.02,306.31,115.3,622.08-4.43-6.7-8.25-13.83-11.34-21.31-33.03,197.61-105.16,317.72-105.16,317.72l-17.4-70.36c-25.22,94.73-83.49,122.18-83.49,122.18l-25.81-63.21c-65.11,76.73-180.76,189.12-309.56,242,128.8-13.18,244.46-56.48,309.56-133.2l25.81,63.21s58.26-27.46,83.49-122.18l17.4,70.36s72.13-120.12,105.16-317.72c16.87,40.77,54.72,71.39,101.7,76.63l16.01-.13c22.86-.19,45.32-6.4,64.78-18.46,178.71-110.81,452.77-391.28,384.04-528.63Z"/>
    </g>
  </g>
  <path class="cls-6" d="m1182.8,1100.43c-.42,0-.85,0-1.28-.03-12.2-.7-21.53-11.15-20.83-23.35l6.2-108.79c.7-12.2,11.14-21.52,23.35-20.83,12.2.7,21.53,11.15,20.83,23.35l-6.2,108.79c-.67,11.77-10.43,20.87-22.07,20.87Z"/>
  <g>
    <path class="cls-6" d="m912.26,529.98c-57.36-18.2-121.34,39.9-142.92,129.77-21.57,89.87,7.43,177.47,64.79,195.67,57.36,18.2,121.34-39.9,142.92-129.77,21.57-89.86-7.43-177.47-64.79-195.67Z"/>
    <g>
      <path class="cls-1" d="m902.52,567.48c-19.81,4.63-32.4,34.16-28.11,65.95,4.29,31.8,23.83,53.82,43.64,49.19,19.81-4.63,32.4-34.16,28.11-65.95-4.29-31.8-23.83-53.82-43.64-49.19Z"/>
      <path class="cls-6" d="m912.75,686.19c-5.71,0-11.41-1.88-16.76-5.57-12.56-8.66-21.72-26.15-24.5-46.79-4.48-33.21,9.14-64.27,30.36-69.22,7.65-1.79,15.51-.1,22.73,4.88,12.56,8.66,21.72,26.15,24.5,46.79,4.48,33.21-9.14,64.27-30.36,69.22-1.98.46-3.98.69-5.97.69Zm-4.97-116.37c-1.54,0-3.07.18-4.59.53-18.34,4.28-29.94,32.41-25.85,62.69,2.57,19.02,10.79,35,22,42.72,5.81,4,12.05,5.38,18.04,3.99,18.34-4.28,29.94-32.41,25.85-62.69-2.57-19.02-10.79-35-22-42.72-4.34-2.99-8.92-4.52-13.45-4.52Z"/>
    </g>
    <g>
      <path class="cls-7" d="m811.03,751.56c-9.83,5.26-13.43,22.21-8.04,37.87,5.39,15.66,17.73,24.09,27.56,18.83,9.83-5.26,13.43-22.21,8.04-37.87-5.39-15.66-17.73-24.09-27.56-18.83Z"/>
      <path class="cls-6" d="m824.39,812.78c-2.13,0-4.31-.43-6.49-1.28-7.54-2.96-14.16-10.85-17.69-21.11-5.93-17.23-1.79-35.43,9.44-41.43h0c4.34-2.33,9.2-2.55,14.06-.64,7.54,2.96,14.16,10.85,17.69,21.11,5.93,17.23,1.79,35.43-9.44,41.43-2.39,1.28-4.94,1.92-7.56,1.92Zm-11.97-58.62c-8.44,4.52-11.49,20.23-6.64,34.3,2.98,8.65,8.31,15.2,14.27,17.54,3.24,1.26,6.3,1.15,9.12-.35,8.44-4.52,11.49-20.23,6.64-34.3-2.98-8.64-8.31-15.2-14.26-17.54-3.24-1.27-6.31-1.15-9.12.35h0Z"/>
    </g>
  </g>
  <g>
    <path class="cls-6" d="m1535.91,578.4c59.36-9.86,114.44,56.74,123.03,148.76,8.59,92.02-32.58,174.61-91.94,184.47-59.36,9.86-114.44-56.74-123.03-148.76-8.58-92.02,32.58-174.61,91.94-184.47Z"/>
    <g>
      <path class="cls-1" d="m1540.22,616.9c18.95,7.4,27.21,38.41,18.45,69.28-8.76,30.87-31.23,49.89-50.19,42.49-18.95-7.4-27.21-38.41-18.45-69.28,8.76-30.86,31.23-49.89,50.19-42.49Z"/>
      <path class="cls-6" d="m1516.95,733.22c-3.26,0-6.46-.6-9.54-1.8-20.3-7.92-29.37-40.59-20.21-72.83,5.69-20.04,17.24-36.05,30.91-42.84,7.85-3.9,15.87-4.45,23.19-1.59,20.3,7.92,29.37,40.59,20.21,72.83-5.69,20.04-17.24,36.05-30.9,42.83-4.55,2.26-9.16,3.4-13.66,3.4Zm14.81-114.95c-3.6,0-7.33.93-11.04,2.77-12.2,6.05-22.61,20.7-27.85,39.16-8.35,29.39-.86,58.88,16.68,65.72,5.73,2.23,12.1,1.75,18.43-1.39,12.19-6.06,22.6-20.7,27.85-39.16,8.35-29.39.86-58.88-16.68-65.72h0c-2.37-.93-4.85-1.38-7.39-1.38Z"/>
    </g>
    <g>
      <path class="cls-7" d="m1604.61,812.12c8.98,6.6,10.14,23.9,2.57,38.63-7.56,14.73-20.98,21.32-29.96,14.72-8.98-6.6-10.14-23.9-2.57-38.62,7.56-14.73,20.98-21.32,29.96-14.72Z"/>
      <path class="cls-6" d="m1585.04,870.99c-3.48,0-6.72-1.06-9.56-3.14-10.26-7.53-11.77-26.14-3.45-42.35,4.95-9.65,12.62-16.52,20.51-18.38,5.07-1.2,9.85-.29,13.82,2.63h0c10.26,7.54,11.77,26.14,3.45,42.35-4.95,9.65-12.62,16.52-20.51,18.38-1.45.34-2.88.51-4.27.51Zm11.76-58.48c-.94,0-1.91.12-2.91.35-6.23,1.47-12.44,7.2-16.61,15.33-6.8,13.25-6.02,29.23,1.7,34.9,2.56,1.89,5.58,2.45,8.97,1.64,6.23-1.46,12.43-7.2,16.61-15.33,6.8-13.25,6.02-29.23-1.7-34.9-1.81-1.33-3.84-1.99-6.06-1.99Z"/>
    </g>
  </g>
</svg>