<?xml version="1.0" encoding="UTF-8"?>
<svg id="Capa_2" data-name="Capa 2" xmlns="http://www.w3.org/2000/svg" viewBox="0 0 2200.16 2815.67">
  <defs>
    <style>
      .cls-1 {
        fill: #512717;
      }

      .cls-2 {
        fill: #fff;
      }

      .cls-3 {
        fill: #650000;
      }

      .cls-4 {
        opacity: .5;
      }

      .cls-5 {
        opacity: .6;
      }

      .cls-6 {
        opacity: .2;
      }

      .cls-7 {
        fill: #f9ddc7;
      }

      .cls-8 {
        fill: #fff3e9;
      }

      .cls-9 {
        fill: #a84e20;
      }

      .cls-10 {
        fill: #777782;
      }

      .cls-11 {
        fill: #686779;
      }

      .cls-12 {
        fill: #ef9d59;
      }

      .cls-13 {
        fill: #e8ba9a;
      }

      .cls-14 {
        fill: #a56856;
      }

      .cls-15 {
        fill: #a1acc6;
      }

      .cls-16 {
        fill: #8c5144;
      }

      .cls-17 {
        fill: #e23b3b;
      }

      .cls-18 {
        fill: #c1612b;
      }

      .cls-19 {
        fill: #a56957;
      }

      .cls-20 {
        fill: #f4d7c1;
      }

      .cls-21 {
        fill: #fec267;
      }
    </style>
  </defs>
  <g id="Layer_1" data-name="Layer 1">
    <g>
      <polygon class="cls-15" points="1325.29 2726.29 1325.29 2726.37 1325.17 2726.33 1325.29 2726.29"/>
      <polygon class="cls-15" points="1325.17 2726.33 1325.04 2726.37 1325.04 2726.29 1325.17 2726.33"/>
      <g>
        <g>
          <g>
            <path class="cls-21" d="m855.15,1992.35c2.23,26.1-42.37,330.74-280.15,377.37-167.14,32.46-250.35-113.81-260.2-200.7-11.6-102.33,54.19-194.57,94.14-196.28,33.8-1.45,31.13,66.01,60.77,115.1,46.04,76.24,168.01,74.33,223.21-51.13l162.23-44.35Z"/>
            <g class="cls-5">
              <path class="cls-2" d="m399.92,2027.42c1.16,3.73,2.28,7.52,3.29,10.91,6.32,21.28,14.19,47.76,28.91,72.14,41.3,68.38,125.18,91.94,199.46,56.02,0,0-88.41,66.33-160.1,27.45-82.12-44.55-71.56-166.53-71.56-166.53Z"/>
            </g>
            <path class="cls-12" d="m625.84,2307.03c-18.54,8.97-38.49,15.58-59.3,19.66-49.24,9.56-92.59.97-128.78-25.56-25.05-18.36-44.34-43.73-57.71-69.68,94.16,140.53,290.65-9.29,270.13-88.67l151.32-90.32c-18.71,75.99-67.64,202.33-175.66,254.56Z"/>
          </g>
          <path class="cls-3" d="m529.14,2390.6c-46.85,0-90.13-13.86-127.13-41.01-62.68-46-97.12-122.91-103.45-178.74-8.69-76.65,23.08-144.59,52.92-179.49,18.62-21.78,38.78-34.19,56.76-34.97,33.11-1.27,43.06,32.25,52.73,64.81,5.62,18.93,11.99,40.39,22.74,58.17,17.71,29.33,48.84,45.56,83.14,43.3,46.04-2.97,86.54-36.7,111.11-92.56,3.64-8.27,13.28-12.02,21.54-8.38,8.26,3.64,12.01,13.28,8.38,21.54-29.22,66.42-81.16,108.29-138.93,112.02-46.76,3.02-89.09-19.05-113.23-59.02-12.91-21.37-19.91-44.95-26.09-65.76-5.77-19.44-12.31-41.46-19.82-41.46h-.17c-6.31.27-18.82,6.61-33.32,23.55-25.58,29.91-52.79,88.34-45.28,154.56,5.53,48.75,35.59,115.91,90.31,156.06,42.67,31.3,93.31,41.54,150.53,30.43,117.61-23.06,183.59-114.37,218.22-186.9,39.49-82.71,49.58-162.24,48.76-173.04-.68-8.97,6.01-16.88,14.98-17.6,8.93-.84,16.83,5.86,17.59,14.82,2.76,32.3-45.94,346.29-293.29,394.8-16.67,3.24-33.05,4.84-49,4.84Z"/>
        </g>
        <g>
          <path class="cls-10" d="m929.51,2612.79l-433.12,113.69s-120.3,13.76-203.54,13.76c-169.04,0-219.29-262.36-219.29-262.36l177.68-173.46,450.2-139.47"/>
          <path class="cls-21" d="m929.51,2612.8l-433.11,113.69s-120.33,13.76-203.53,13.76c-169.07,0-219.32-262.37-219.32-262.37l135.54-132.31,42.15-41.16,334.82-103.72,105.32-32.63,10.06-3.1,35.16,69.05,192.9,378.79Z"/>
          <path class="cls-12" d="m929.51,2612.8l-433.11,113.69s-120.33,13.76-203.53,13.76c-169.07,0-219.32-262.37-219.32-262.37l135.54-132.31,109.94-39.9c68.77,39.49,70.28,203.85,194.87,174.78,84.02-19.64,67.59-168.24,72.16-279.76l105.32-32.63c14.23,19.48,29.44,41.82,45.22,65.95l192.9,378.79Z"/>
          <path class="cls-3" d="m292.85,2756.58c-180.48,0-233.18-264.38-235.34-275.62l-1.65-8.63,186.79-182.35,3.76-1.16,450.2-139.47c8.63-2.7,17.78,2.15,20.45,10.77,2.67,8.62-2.15,17.78-10.78,20.45l-446.43,138.31-168.37,164.36c10.23,43.57,64.15,240.66,201.37,240.66,77.08,0,188.04-12.13,200.53-13.53l431.98-113.39c8.75-2.28,17.67,2.93,19.96,11.66,2.29,8.73-2.93,17.67-11.66,19.96l-434.26,113.98-1.16.14c-4.95.57-122.18,13.86-205.39,13.86Z"/>
          <path class="cls-10" d="m496.39,2726.47c-42.81,11.52-201.01,56.25-301.83,22.51-126.92-42.48-193.13-209.23-175.76-331.01,25.84-181.18,202.01-198.78,291.59-120.61,42.93,37.46,78.34,121.96,74.72,199.28l111.29,229.84Z"/>
          <path class="cls-21" d="m496.4,2726.48c-42.81,11.52-201.04,56.23-301.82,22.5-84.43-28.22-141.96-111.44-165.92-199.85-.04-.04-.04-.08-.04-.08-12.06-44.51-15.62-90.33-9.81-131.08,25.84-181.19,202.02-198.79,291.56-120.63,12.55,10.94,24.45,25.93,34.92,43.53v.04c25.39,42.71,42.36,100.99,39.82,155.71l111.29,229.86Z"/>
          <path class="cls-12" d="m496.4,2726.48c-42.81,11.52-201.04,56.23-301.82,22.5-84.43-28.22-141.96-111.44-165.92-199.85,1.76,3.96,62.31,136.68,197.32,123.4,134.93-13.27,159.33-182.41,119.31-331.62,25.39,42.71,42.36,100.99,39.82,155.71l111.29,229.86Z"/>
          <path class="cls-3" d="m500.63,2742.26c-101.14,26.62-235.15,58.13-334.85,12.7-128.45-62.39-191.46-239.93-156.01-374.05,14.7-57.48,55.84-110.97,113.04-131.67,70.14-26.5,156.64-9.12,208.16,45.98,43.93,56.31,61.44,131.64,54.13,201.43-.89-27.59-6.55-54.56-15.39-80.07-24.38-73.11-81.58-138.69-161.66-145.94-118.48-11.01-179.65,87.25-175.49,195.81,4.2,101.41,52.74,212.31,147.19,258.96,47.7,22.32,101.58,21.59,153.4,17.02,53.46-5.33,106.29-17.19,158.99-31.73l8.5,31.56h0Z"/>
          <ellipse class="cls-8" cx="211.28" cy="2552.84" rx="100.73" ry="112.26" transform="translate(-466.93 82.69) rotate(-10.62)"/>
          <ellipse class="cls-8" cx="276.87" cy="2391.55" rx="37" ry="41.23" transform="translate(-436.05 92.01) rotate(-10.62)"/>
          <ellipse class="cls-8" cx="88.53" cy="2443.46" rx="37" ry="41.23" transform="translate(-448.84 58.18) rotate(-10.62)"/>
          <ellipse class="cls-8" cx="170.77" cy="2381.71" rx="41.05" ry="45.75" transform="translate(-436.09 72.29) rotate(-10.62)"/>
        </g>
        <g>
          <path class="cls-10" d="m1270.3,2612.79l433.12,113.69s120.3,13.76,203.54,13.76c169.04,0,219.29-262.36,219.29-262.36l-177.68-173.46-450.2-139.47"/>
          <path class="cls-21" d="m1270.3,2612.8l433.11,113.69s120.33,13.76,203.53,13.76c169.07,0,219.32-262.37,219.32-262.37l-135.54-132.31-42.15-41.16-334.82-103.72-105.32-32.63-10.06-3.1-35.16,69.05-192.9,378.79Z"/>
          <path class="cls-12" d="m1270.3,2612.8l433.11,113.69s120.33,13.76,203.53,13.76c169.07,0,219.32-262.37,219.32-262.37l-135.54-132.31-109.94-39.9c-68.77,39.49-70.28,203.85-194.87,174.78-84.02-19.64-67.59-168.24-72.16-279.76l-105.32-32.63c-14.23,19.48-29.44,41.82-45.22,65.95l-192.9,378.79Z"/>
          <path class="cls-3" d="m1906.95,2756.58c-83.21,0-200.44-13.3-205.39-13.86l-2.29-.43-433.12-113.69c-8.73-2.3-13.95-11.23-11.66-19.96,2.29-8.73,11.21-13.94,19.96-11.66l431.97,113.39c12.5,1.39,123.49,13.53,200.53,13.53,137.23,0,191.14-197.09,201.37-240.66l-168.37-164.36-446.44-138.31c-8.62-2.67-13.44-11.83-10.77-20.45,2.67-8.62,11.83-13.47,20.45-10.77l453.96,140.63,186.79,182.35-1.65,8.63c-2.16,11.25-54.86,275.62-235.34,275.62Z"/>
          <path class="cls-10" d="m1703.42,2726.47c42.81,11.52,201.01,56.25,301.83,22.51,126.92-42.48,193.13-209.23,175.76-331.01-25.84-181.18-202.01-198.78-291.59-120.61-42.93,37.46-78.34,121.96-74.72,199.28l-111.29,229.84Z"/>
          <path class="cls-21" d="m1703.41,2726.48c42.81,11.52,201.04,56.23,301.82,22.5,84.43-28.22,141.96-111.44,165.92-199.85.04-.04.04-.08.04-.08,12.06-44.51,15.62-90.33,9.81-131.08-25.84-181.19-202.02-198.79-291.56-120.63-12.55,10.94-24.45,25.93-34.92,43.53v.04c-25.39,42.71-42.36,100.99-39.82,155.71l-111.29,229.86Z"/>
          <path class="cls-12" d="m1703.41,2726.48c42.81,11.52,201.04,56.23,301.82,22.5,84.43-28.22,141.96-111.44,165.92-199.85-1.76,3.96-62.31,136.68-197.32,123.4-134.93-13.27-159.33-182.41-119.31-331.62-25.39,42.71-42.36,100.99-39.82,155.71l-111.29,229.86Z"/>
          <path class="cls-3" d="m1707.67,2710.69c93.18,24.54,222.07,55.53,312.39,14.71,113.8-55.62,169.8-217.01,138.45-335.84-28.12-109.83-141.82-151.22-237.49-95.15-44.44,27.63-73.76,72.85-90.92,122.16-8.84,25.51-14.5,52.48-15.39,80.07-7.32-69.79,10.2-145.11,54.13-201.43,51.53-55.11,138.02-72.47,208.17-45.98,88.66,32.65,126.55,129.79,122.93,218.15-4.74,113.96-59.69,235.35-165.9,287.57-99.76,45.44-233.62,13.92-334.85-12.7,0,0,8.49-31.57,8.49-31.57h0Z"/>
          <ellipse class="cls-8" cx="1988.52" cy="2552.84" rx="112.26" ry="100.73" transform="translate(-887.1 4036.75) rotate(-79.38)"/>
          <ellipse class="cls-8" cx="1922.93" cy="2391.55" rx="41.23" ry="37" transform="translate(-782.08 3840.7) rotate(-79.38)"/>
          <ellipse class="cls-8" cx="2111.27" cy="2443.46" rx="41.23" ry="37" transform="translate(-679.48 4068.18) rotate(-79.38)"/>
          <ellipse class="cls-8" cx="2029.04" cy="2381.71" rx="45.75" ry="41.05" transform="translate(-685.87 3936.96) rotate(-79.38)"/>
        </g>
        <polygon class="cls-15" points="1097.97 2752 1097.97 2752.08 1097.84 2752.04 1097.97 2752"/>
        <polygon class="cls-15" points="1097.84 2752.04 1097.72 2752.08 1097.72 2752 1097.84 2752.04"/>
        <path class="cls-18" d="m695.17,2601.46s164.27,71.07,404.71,71.07,404.71-71.07,404.71-71.07l151.2-253.56c44.73-225.25-109.77-655.09-265.82-826.37h-290.16.07-.06.07-290.16c-156.05,171.28-310.55,601.13-265.82,826.37l151.27,253.56Z"/>
        <path class="cls-21" d="m1655.81,2347.89l-31.44,52.72-119.76,200.87s-164.28,71.05-404.74,71.05-404.69-71.05-404.69-71.05l-119.76-200.75v-.04l-31.52-52.8c-44.73-225.25,109.78-655.08,265.84-826.34h580.22c156.06,171.26,310.57,601.1,265.84,826.34Z"/>
        <path class="cls-12" d="m1539.69,1765.25c-114.36,51.66-269.24,83.43-439.77,83.43s-325.54-31.77-439.9-83.47c44.65-98.78,97.11-185.92,149.73-243.66h580.22c52.62,57.74,105.08,144.92,149.73,243.71Z"/>
        <path class="cls-12" d="m1624.36,2400.6l-119.76,200.87s-164.28,71.05-404.74,71.05-404.69-71.05-404.69-71.05l-119.76-200.75v-.04c28.54-111.32,7.03-321.33,41.99-355.35,34.96-34.02,396.48,44.63,396.48,44.63,0,0,21.96,112.22,86.03,112.22s86.02-112.22,86.02-112.22c0,0,361.52-78.65,396.48-44.63,34.96,34.02,13.45,243.95,41.95,355.27Z"/>
        <path class="cls-13" d="m1507.23,2406.28c-1.92,244.89-407.31,235.95-407.31,235.95,0,0-405.43,8.94-407.35-235.95-1.59-204.01,338.01-177.88,326.32-241.34-3.68-19.97-4.66-42.14-2.25-63.54,7.6,28.54,31.89,100.78,83.29,100.78s75.68-72.24,83.29-100.78c2.41,21.4,1.43,43.57-2.25,63.54-11.73,63.46,327.91,37.32,326.27,241.34Z"/>
        <path class="cls-9" d="m1013.89,2089.97s21.96,112.21,86.03,112.21,86.02-112.21,86.02-112.21"/>
        <path class="cls-3" d="m1655.79,2347.9c13.39-237.92-121.67-634.88-279.43-813.98,0,0,13.61,6.01,13.61,6.01l-290.16-.02v-36.77c.13-.13.12,36.9,0,36.77,0,0,0-36.77,0-36.77.19-.14,0,36.78.06,36.77,0,0-290.16.08-290.16.08l13.65-6.03c-131.17,152.21-218.34,399.84-258.43,595.63-13.92,71.63-24.3,143.71-21.04,218.31-23.78-71.53-22.23-149.76-13.02-223.86,21.15-149.05,70.97-292.61,139.68-426.19,35.23-67.02,74.36-132.01,125.5-188.76,0,0,5.48-6.03,5.48-6.03h8.18s290.16.08,290.16.08c-.06,0,.12,36.9-.06,36.77.06,0-.12-36.9.06-36.77,0,0,0,36.77,0,36.77-.19.13,0-36.77-.06-36.77,0,0,290.16-.02,290.16-.02h8.18c53.48,58.19,94.18,125.58,130.24,195.11,88.31,173.83,184.97,457.86,127.4,649.68h0Z"/>
        <path class="cls-3" d="m695.17,2601.46c68.13,9.88,134.26,25.73,201.71,38.35,133.56,24.79,272.43,24.77,406,.02,33.4-6.36,66.56-13.51,99.85-20.44,33.49-7.09,67.56-13.9,101.86-17.92-14.09,11.09-29.68,19.48-45.52,27.01-167.46,78.73-612.06,84.11-763.9-27.01h0Z"/>
        <path class="cls-17" d="m739.92,1849.26c-1.95-.34-3.9-.68-5.81-1.1.85.08,2.97.34,5.81,1.1Z"/>
        <path class="cls-8" d="m1507.21,2406.29c-1.92,244.89-407.31,235.95-407.31,235.95,0,0-405.43,8.94-407.35-235.95-1.59-204.01,338.01-177.88,326.32-241.34-12.55-67.95,6.5-161.83,81.04-161.83s93.59,93.88,81.04,161.83c-11.73,63.46,327.91,37.32,326.27,241.34Z"/>
        <path class="cls-20" d="m1507.23,2406.28c-1.92,244.89-407.31,235.95-407.31,235.95,0,0-405.43,8.94-407.35-235.95-1.59-204.01,338.01-177.88,326.32-241.34-3.68-19.97-4.66-42.14-2.25-63.54,7.6,28.54,31.89,100.78,83.29,100.78s75.68-72.24,83.29-100.78c2.41,21.4,1.43,43.57-2.25,63.54-11.73,63.46,327.91,37.32,326.27,241.34Z"/>
        <g>
          <path class="cls-21" d="m1013.33,2081.99c21.94,352.39,54.06,549.2,10.34,626.77-41.23,87.15-163.61,98.23-220.89,83.21-46.79,8.35-98.13,11.89-142.83-13.35-101.1-7.51-105.7-153.76,15.96-208.66,0,0-82.03-354.44-52.3-629.29,9.91-91.62,40.97-249.91,151.7-391.81"/>
          <path class="cls-12" d="m902.55,1833.89c-91.3-14.05-173.56-37.65-241.56-68.24,22.81-69.3,58.43-145.13,114.32-216.79l127.24,285.03Z"/>
          <path class="cls-12" d="m1023.66,2708.75c-41.21,87.18-163.59,98.25-220.87,83.22-46.81,8.37-98.13,11.88-142.86-13.35-49.35-3.68-75.72-40.43-75.6-83.47,14.72,11.76,34.92,18.25,60.35,16.42,31.32,23.73,77.32,23.4,117.96,13.72,80.46,14.95,187.38,3.92,228.6-83.22,43.71-77.51,11.37-281.23,22.61-551.36,21.96,346.9,53.19,541.15,9.81,618.04Z"/>
          <path class="cls-3" d="m1013.33,2081.99c14.68,102.69,28.07,210.36,38.89,313.45,7.73,79.47,14.21,158.92,7.3,238.98-5.43,80.81-46.37,142.84-126.52,167.7-43.97,13.39-89.11,17.04-134.58,6.51,0,0,7.39.29,7.39.29-50.31,9.63-108.14,12.1-154.87-14.33,0,0,7.66,2.32,7.66,2.32-64.47-4.16-101.7-62.8-89.3-124.01,10.12-54.1,51.38-95.89,99.88-117.88,0,0-9.22,18.63-9.22,18.63-9.76-43.77-17.79-87.2-25.13-131.05-27.88-175.46-46.67-354.86-23.91-532.29,18.62-133.75,67.74-264.43,151.52-371.51,5.55-7.13,15.84-8.4,22.96-2.83,7.11,5.56,8.37,15.83,2.81,22.94-79.95,102.08-127.13,227.82-144.91,355.93-26.69,221.38,5.77,447.44,51.42,664.35,0,0-12.06,5.7-12.07,5.7-39.27,16.89-72.57,51.72-79.7,94.05-7.53,44.47,16.35,80.77,62.92,81.91,40.63,25.23,91.23,22.03,137.63,13.53,70.68,17.62,170.84-1.77,205.36-72.63,22.67-44.58,19.41-97.97,19.15-147.33-.52-25.93-2.07-51.99-3.41-78.1-6.56-130.5-13.63-263.75-11.26-394.34h0Z"/>
          <path class="cls-3" d="m921.9,2606.3c-68.3-37.71-168.18-44.77-241.69-20.57-8.55,2.98-17.88-1.54-20.86-10.08-3.32-9.28,2.6-19.6,12.27-21.46,44.07-8.96,88.66-6.26,131.98,2.54,41.95,9.05,83.91,23.65,118.3,49.56h0Z"/>
          <path class="cls-3" d="m675.98,2631.19c-29.21,42.24-36.08,111.58,10.16,142.41,0,0-20.47,25.49-20.47,25.49-48.71-44.98-33.04-126.45,10.3-167.9h0Z"/>
          <path class="cls-3" d="m796.93,2631.19c-35.31,40.28-40.99,121.74,13.86,146.54,0,0-16.02,28.49-16.02,28.49-60.9-39.48-49.2-133.41,2.16-175.03h0Z"/>
        </g>
        <g>
          <path class="cls-21" d="m1186.43,2081.99c-21.94,352.39-54.06,549.2-10.34,626.77,41.23,87.15,163.61,98.23,220.89,83.21,46.79,8.35,98.13,11.89,142.83-13.35,101.1-7.51,105.7-153.76-15.96-208.66,0,0,82.03-354.44,52.3-629.29-9.91-91.62-40.97-249.91-151.7-391.81"/>
          <path class="cls-12" d="m1538.79,1765.66c-67.99,30.59-150.26,54.19-241.6,68.24l127.24-285.03c55.93,71.67,91.55,147.5,114.36,216.79Z"/>
          <path class="cls-12" d="m1176.11,2708.75c41.21,87.18,163.59,98.25,220.87,83.22,46.81,8.37,98.13,11.88,142.86-13.35,49.35-3.68,75.72-40.43,75.6-83.47-14.72,11.76-34.92,18.25-60.35,16.42-31.32,23.73-77.32,23.4-117.96,13.72-80.46,14.95-187.38,3.92-228.6-83.22-43.71-77.51-11.37-281.23-22.61-551.36-21.96,346.9-53.19,541.15-9.81,618.04Z"/>
          <path class="cls-3" d="m1186.43,2081.99c2.37,130.54-4.73,263.87-11.26,394.34-2.54,51.51-6.1,103.94-2.07,155.03,2.19,24.16,6.25,49.67,17.8,70.39,34.51,70.88,134.7,90.23,205.36,72.63,46.39,8.5,97.01,11.71,137.63-13.53,46.51-1.18,70.46-37.3,62.92-81.91-7.14-42.33-40.42-77.15-79.69-94.04,0,0-12.07-5.7-12.07-5.7,45.66-216.92,78.12-442.97,51.43-664.35-17.78-128.11-64.97-253.86-144.92-355.93-5.56-7.11-4.3-17.38,2.81-22.94,7.12-5.57,17.41-4.3,22.96,2.83,83.78,107.08,132.89,237.75,151.52,371.51,22.76,177.43,3.98,356.82-23.9,532.29-7.35,43.85-15.38,87.29-25.13,131.05l-9.22-18.63c48.5,21.99,89.77,63.78,99.88,117.88,12.39,61.06-24.77,119.9-89.3,124.01,0,0,7.66-2.32,7.66-2.32-46.73,26.43-104.56,23.97-154.87,14.33,0,0,7.39-.3,7.39-.3-45.47,10.54-90.62,6.87-134.58-6.51-80.14-24.9-121.09-86.81-126.52-167.7-6.92-80.05-.43-159.51,7.3-238.98,10.8-103.07,24.21-210.79,38.89-313.45h0Z"/>
          <path class="cls-3" d="m1277.86,2606.3c52.54-38.36,118.95-54.41,183.39-57.44,22.05-.67,44.47.66,66.89,5.33,8.92,1.78,14.7,10.51,12.83,19.41-1.93,9.61-12.2,15.41-21.42,12.13-73.52-24.2-173.33-17.17-241.69,20.56h0Z"/>
          <path class="cls-3" d="m1523.78,2631.19c43.34,41.44,59.01,122.92,10.3,167.9,0,0-20.47-25.49-20.47-25.49,46.25-30.85,39.38-100.14,10.17-142.41h0Z"/>
          <path class="cls-3" d="m1402.83,2631.19c51.37,41.61,63.06,135.57,2.16,175.03,0,0-16.02-28.49-16.02-28.49,54.85-24.83,49.17-106.24,13.86-146.54h0Z"/>
        </g>
        <polygon class="cls-1" points="1080.29 1182.83 1077.94 1183.2 1077.94 1182.46 1080.29 1182.83"/>
        <path class="cls-21" d="m1089.29,16.34c778.08,11.48,879.19,518.7,856.08,1049.57,16.25,36.71,58.93,162.72,0,291.98-119.8,262.77-542.51,357.76-856.09,357.76s-736.28-94.99-856.09-357.76c-58.93-129.26-16.25-255.27,0-291.98C210.09,535.04,311.19,27.83,1089.28,16.34"/>
        <path class="cls-21" d="m1945.37,1357.89c-119.8,262.78-542.51,357.79-856.1,357.79s-736.29-95-856.1-357.79c-58.93-129.28-16.22-255.23,0-292-15.67-360.83,26-710.79,298.75-901.49C660.39,74.52,840.1,20.03,1089.27,16.36c249.17,3.67,428.88,58.17,557.35,148.04,272.75,190.7,314.42,540.66,298.75,901.49,16.22,36.77,58.93,162.72,0,292Z"/>
        <path class="cls-12" d="m1879.16,1457.61c-168.61,187.58-519.7,258.07-789.89,258.07s-621.27-70.49-789.89-258.07c209.93,144.37,532.39,200.88,789.89,200.88s579.95-56.5,789.89-200.88Z"/>
        <path class="cls-3" d="m904.88,1705.24c-202.19-11.43-419.64-62.09-577.99-195.01-91.14-76.92-150.87-192.13-141.76-313.2,3.16-47.64,13.26-93.98,33.12-137.73,0,0-1.38,7.32-1.38,7.32C190.92,547.49,305.89,100.17,890.33,15.4c65.92-9.8,132.37-14.26,198.71-15.4l.48,32.69c-65.14,1.12-130.18,5.51-194.38,15.05C328.33,129.04,225.11,564.34,249.53,1065.2c0,0,.16,3.74.16,3.74l-1.54,3.58c-15.64,39.61-24.78,83.28-26.37,126.27-8.49,336.61,413.72,458.43,683.11,506.45h0Z"/>
        <path class="cls-3" d="m1089.53,0c702.97,9.91,906.03,420.18,872.17,1066.62,0,0-1.39-7.37-1.37-7.31,38.71,87.18,45.54,188.29,13.61,278.77-66.72,181.04-254.85,277.19-430.35,325.55-88.02,23.85-178.92,37.62-269.91,41.61,269.84-49.49,690.73-168.63,683.05-506.44-1.84-42.76-10.48-86.65-26.3-126.27,0,0-1.54-3.58-1.54-3.58l.16-3.75c5.55-130.65,4.34-261.91-15.57-390.37C1845.06,210.47,1532.1,38.12,1089.04,32.69c0,0,.48-32.69.48-32.69h0Z"/>
        <g>
          <path class="cls-14" d="m610.25,117.4c-90.92-22.06-319.71,17.18-452.6,344.93-48.58,119.83-56.62,330.06,98.14,318.61,177.99-13.17,106.03-328.88,354.46-663.54Z"/>
          <g class="cls-4">
            <path class="cls-2" d="m610.27,117.38c-7.56,10.18-14.77,20.29-21.77,30.4-115.02-.14-312.4,73.4-434.36,374.2-12.13,29.84-21.84,65.02-27.59,101.17-.28-55.12,12.41-114.67,31.13-160.78C290.51,134.56,519.3,95.36,610.27,117.38Z"/>
          </g>
          <path class="cls-16" d="m610.27,117.38c-248.41,334.66-176.45,650.41-354.49,663.57-85.14,6.3-121.05-54.56-127.99-130.53,19.76,30.88,49.85,49.79,92.49,47.29,170.9-9.97,152.18-386.73,389.5-580.47.14.07.35.07.49.14Z"/>
          <path class="cls-3" d="m244.17,797.72c-42.62,0-77.08-16.53-100.2-48.26-50.77-69.67-39.17-200.27-1.46-293.28,58.89-145.24,145.04-253.04,249.16-311.74,88.59-49.95,172.99-54.94,222.45-42.93,5.32,1.29,9.65,5.17,11.51,10.32,1.87,5.16,1.02,10.9-2.24,15.3-118.24,159.29-162.16,311.91-197.44,434.54-38.07,132.31-65.58,227.91-168.94,235.56-4.35.32-8.63.48-12.83.48ZM564.14,128.83c-97.36,0-277.62,59.15-391.34,339.65-33.94,83.71-44.12,204.51-2.41,261.74,18.92,25.96,46.49,37.25,84.2,34.43,77.23-5.72,99.9-72.86,139.94-212,32.6-113.31,76.71-266.62,186.84-423.17-5.39-.42-11.15-.65-17.22-.65Z"/>
        </g>
        <g>
          <path class="cls-14" d="m1587.83,117.4c90.92-22.06,319.72,17.18,452.6,344.93,48.58,119.83,56.62,330.06-98.14,318.61-177.99-13.17-106.03-328.88-354.46-663.54Z"/>
          <g class="cls-4">
            <path class="cls-2" d="m1587.82,117.38c7.56,10.18,14.77,20.29,21.77,30.4,115.02-.14,312.4,73.4,434.36,374.2,12.13,29.84,21.84,65.02,27.59,101.17.28-55.12-12.41-114.67-31.13-160.78-132.84-327.8-361.63-366.99-452.59-344.97Z"/>
          </g>
          <path class="cls-16" d="m1587.82,117.38c248.41,334.66,176.45,650.41,354.49,663.57,85.14,6.3,121.05-54.56,127.99-130.53-19.76,30.88-49.85,49.79-92.49,47.29-170.9-9.97-152.18-386.73-389.5-580.47-.14.07-.35.07-.49.14Z"/>
          <path class="cls-3" d="m1953.91,797.72c-4.2,0-8.48-.16-12.83-.48-103.36-7.65-130.86-103.25-168.94-235.56-35.29-122.63-79.2-275.25-197.44-434.54-3.27-4.4-4.11-10.15-2.25-15.3,1.87-5.15,6.19-9.03,11.52-10.32,49.44-11.98,133.84-7.02,222.45,42.93,104.11,58.7,190.27,166.5,249.16,311.74,37.7,93,49.31,223.6-1.46,293.28-23.12,31.72-57.58,48.26-100.2,48.26Zm-337.19-668.25c110.12,156.55,154.24,309.87,186.84,423.17,40.04,139.14,62.71,206.28,139.94,212,37.76,2.81,65.28-8.47,84.2-34.43,41.71-57.23,31.53-178.03-2.41-261.74-120.82-297.99-316.75-346.16-408.56-339Z"/>
        </g>
        <polygon class="cls-11" points="1091.12 476.79 1091.12 476.86 1090.99 476.79 1091.12 476.79"/>
        <path class="cls-14" d="m461.06,975.27c26.86,119.49,143.87,171.81,267.79,137.96,123.12-33.63,170.36-89.52,170.36-89.52,66.52-345.85-118.07-446.26-263.23-397.79-125.95,42.05-208.98,197.8-174.91,349.35Z"/>
        <path class="cls-19" d="m1465.12,1456.15s-77.03,46.74-189.13,77.69c-55.46,15.37-119.53,26.8-187.12,26.8s-131.04-11.36-186.29-26.59c-112.59-30.88-190.04-77.9-190.04-77.9,0,0,98.66-358.82,376.33-358.82s376.26,358.82,376.26,358.82Z"/>
        <path class="cls-16" d="m1465.12,1456.15s-77.03,46.74-189.13,77.69c-90.75-30.05-162.3-128.79-186.43-212.51-24.13,83.92-95.95,182.87-186.99,212.72-112.59-30.88-190.04-77.9-190.04-77.9,0,0,98.66-358.82,376.33-358.82s376.26,358.82,376.26,358.82Z"/>
        <path class="cls-1" d="m1088.84,1576.98c-206.37,0-377.59-102.51-384.78-106.88l-10.55-6.4,3.27-11.9c1.04-3.76,26.04-93.26,86.16-184.09,80.85-122.16,186.63-186.73,305.9-186.73s225.05,64.57,305.89,186.73c60.12,90.83,85.13,180.33,86.16,184.09l3.27,11.9-10.55,6.4c-7.19,4.37-178.41,106.88-384.78,106.88Zm-356.78-128.58c40.7,22.19,188.62,95.9,356.78,95.9s316.14-73.7,356.78-95.89c-20.14-61.31-123.14-334.74-356.78-334.74s-336.64,273.42-356.78,334.73Z"/>
        <g>
          <ellipse class="cls-3" cx="716.34" cy="905.61" rx="149.17" ry="172.04"/>
          <ellipse class="cls-2" cx="756.86" cy="855.85" rx="48.63" ry="61.49"/>
          <g class="cls-6">
            <ellipse class="cls-2" cx="660.71" cy="963.58" rx="26.94" ry="41.61"/>
          </g>
        </g>
        <path class="cls-14" d="m1717.51,975.27c-26.86,119.49-143.87,171.81-267.79,137.96-123.12-33.63-170.36-89.52-170.36-89.52-66.52-345.85,118.07-446.26,263.23-397.79,125.95,42.05,208.98,197.8,174.91,349.35Z"/>
        <path class="cls-3" d="m812.99,468.39c-105.54-93.61-246.07-67.22-323.26,45.81-25.05,34.8-44.66,73.61-59.79,113.96,7.39-43.48,23.53-85.02,45.89-123.12,23.17-38.35,55.29-73.26,95.64-94.05,84.91-44.1,189.68-26.84,241.52,57.4h0Z"/>
        <path class="cls-3" d="m1365.57,468.39c51.82-84.25,156.66-101.49,241.52-57.4,40.35,20.79,72.48,55.7,95.64,94.05,22.37,38.1,38.5,79.64,45.89,123.12-15.12-40.35-34.75-79.17-59.79-113.96-77.21-113.07-217.8-139.37-323.26-45.81h0Z"/>
        <path class="cls-19" d="m736.08,1463.68c-14.54,0-29.24-1.72-43.67-5.11-46.61-10.95-70.82-40.77-82.93-63.86-20.97-39.97-23.16-92.3-5.73-136.56,47.71-121.16,212.54-189.3,465.13-192.76l-32.9,114.41c-39.26,136.52-165.08,283.89-299.89,283.89h0Z"/>
        <g>
          <path class="cls-8" d="m1954.35,1867.09c-137.93,54.24-218.19,17-326.96-102.04-78.03-85.39-195.87-84.56-342.59-84.35-75.7.1-195.69.31-195.69.31,0,0-120,.14-195.69.28-146.75.21-264.55-.28-342.34,85.32-108.45,119.36-188.58,156.85-326.71,103.02-119.75-46.68-179.72-256.14-24.38-378.01-155.68-121.35-96.35-331.01,23.3-378.01,137.93-54.24,218.23-17,326.99,102.04,18.35,20.07,38.86,35.36,61.46,47.03,60.63,31.32,136.04,36.44,223.6,37.21,18.63.17,37.81.14,57.52.07,75.66-.1,195.66-.28,195.66-.28,0,0,120.03-.17,195.73-.31,104.06-.14,193.57.07,264.55-30.31,5.41-2.33,10.71-4.81,15.91-7.49,22.74-11.78,43.43-27.24,61.85-47.52,108.45-119.32,188.61-156.81,326.71-102.99,119.79,46.68,179.72,256.14,24.42,377.97,155.68,121.38,96.31,331.01-23.34,378.04Z"/>
          <path class="cls-2" d="m1954.36,1867.08c-137.95,54.27-218.21,17.03-326.97-102.05-78.05-85.39-195.89-84.53-342.59-84.33-75.68.08-195.68.29-195.68.29,0,0-120,.16-195.68.29-146.78.2-264.58-.29-342.34,85.35-108.47,119.36-188.61,156.85-326.72,103.03-119.76-46.72-179.74-256.16-24.41-378.01-155.66-121.36-96.33-331.01,23.31-378.01,137.95-54.27,218.25-17.03,327.01,102.05,14.76,16.13,30.95,29.2,48.49,39.73,4.25,2.61,8.55,5.02,12.96,7.27,60.64,31.32,136.07,36.47,223.61,37.24,18.64.16,37.82.12,57.53.04,75.64-.08,195.64-.24,195.64-.24h.78c10.51,0,122.86-.2,194.95-.33,104.06-.16,193.6.08,264.58-30.3,5.4-2.37,10.71-4.82,15.9-7.51,4.87-2.53,9.61-5.19,14.31-8.09,17.17-10.49,33.04-23.48,47.55-39.45,108.43-119.32,188.61-156.81,326.68-102.95,119.8,46.68,179.74,256.12,24.45,377.97,155.65,121.36,96.29,330.97-23.35,378.01Z"/>
          <path class="cls-7" d="m1089.24,1299.72v21.6c-72.57,145.7-192.86,192.66-329.79,178.98-143.88-14.37-199.69-141.05-160.68-244.89,4.25,2.61,8.55,5.02,12.96,7.27,60.64,31.32,136.07,36.47,223.61,37.24,18.64.16,37.82.12,57.53.04,75.64-.08,195.64-.24,195.64-.24h.74Z"/>
          <path class="cls-7" d="m1419.12,1500.3c-136.97,13.68-257.22-33.28-329.83-178.98v-21.6c10.51,0,122.86-.2,194.95-.33,104.06-.16,193.6.08,264.58-30.3,5.4-2.37,10.71-4.82,15.9-7.51,4.87-2.53,9.61-5.19,14.31-8.09,40.4,104.21-15.17,232.35-159.91,246.81Z"/>
          <path class="cls-7" d="m1818.83,1540.51s-13.69-81.56,37.66-148.9c48.66-63.82,143.58-76.07,146.98-30.7,6.46,86.26-126.69,94.82-184.64,179.6Z"/>
          <path class="cls-7" d="m1721.39,1785.92s98.02,80.57,186.76,47.31c103.34-38.73,139.32-111.42,106.18-148.18-33.15-36.76-178.7,126.91-292.93,100.87Z"/>
          <path class="cls-7" d="m470.89,1785.92s-98.02,80.57-186.76,47.31c-103.34-38.73-139.32-111.42-106.18-148.18,33.15-36.76,178.7,126.91,292.93,100.87Z"/>
          <path class="cls-7" d="m171.42,1384.04c11.05-41.96,136.97-50.26,167.66-10.29,36.92,48.1,33.51,87.51,60.46,102.34-90.27,49.21-245.95-24.34-228.12-92.05Z"/>
          <path class="cls-7" d="m580.1,1694.8s37.91-115.4,87.44-119.42c49.53-4.02,113.02,42.12,101.14,54.98-20.75,22.47-132.95,11.03-188.59,64.44Z"/>
          <path class="cls-7" d="m1614.65,1694.8s-37.91-115.4-87.44-119.42c-49.53-4.02-113.02,42.12-101.15,54.98,20.75,22.47,132.95,11.03,188.59,64.44Z"/>
          <path class="cls-3" d="m335.77,1910.01c-34.94,0-73.36-8.02-117.33-25.16-64.42-25.11-113.67-92.9-125.46-172.7-12.31-83.25,17.3-162.56,81.55-220.47-64.42-57.71-94.26-136.95-82.2-220.23,11.56-79.84,60.61-147.77,124.95-173.07,153.36-60.29,239.58-9.19,345.05,106.22,72.57,79.41,184.91,79.24,327.18,79.03l398.02-.58c142.25-.21,254.59-.38,326.94-80,105.13-115.71,191.21-167.08,344.74-107.23,64.41,25.11,113.66,92.9,125.46,172.7,12.3,83.25-17.3,162.57-81.55,220.47,64.42,57.71,94.26,136.95,82.2,220.22-11.56,79.83-60.61,147.77-124.96,173.07-153.35,60.3-239.59,9.19-345.05-106.22-72.57-79.41-184.84-79.16-327.2-79.03l-198.98.29-.02-16.34.02,16.34-199,.29c-142.25.21-254.61.37-326.95,79.99-75.02,82.58-140.35,132.39-227.4,132.39Zm-2.09-804.4c-31.86,0-65.79,8.01-104.44,23.21-53.61,21.08-94.66,78.91-104.57,147.33-11.25,77.7,19.85,151.56,85.33,202.61,3.96,3.1,6.29,7.84,6.29,12.87,0,5.03-2.3,9.78-6.26,12.89-65.33,51.25-96.22,125.19-84.73,202.87,10.11,68.39,51.33,126.1,105,147.02,122.41,47.72,197.41,23.72,308.67-98.75,82.05-90.31,206.73-90.49,351.1-90.69l397.98-.59c144.45-.15,269.06-.41,351.38,89.67,111.62,122.14,186.69,145.92,308.96,97.85,53.61-21.08,94.66-78.91,104.57-147.33,11.25-77.71-19.85-151.55-85.33-202.61-3.96-3.09-6.29-7.84-6.29-12.87,0-5.03,2.3-9.78,6.25-12.89,65.33-51.25,96.22-125.2,84.73-202.87-10.11-68.39-51.32-126.1-105-147.02-122.39-47.71-197.41-23.72-308.67,98.75-82.05,90.31-206.72,90.49-351.08,90.7l-398.02.58c-144.34.21-269.04.41-351.36-89.67-76.34-83.53-135.59-121.06-204.52-121.06Z"/>
          <path class="cls-3" d="m208.5,1477.72c57.15,41.37,136.54,46.14,203.89,24.62-33.1,16.06-69.9,26.08-107.96,27.48-37.95,1.4-77.33-5.75-113.02-24.23l17.09-27.87h0Z"/>
          <path class="cls-3" d="m1985.81,1503.23c-28.06,12.7-56.03,19.14-82.9,27.53-26.4,8.5-54.2,17.65-71.28,41.02,12.33-26.61,40.17-42.58,64.96-56.09,25.42-13.6,51.53-25.47,72.99-40.83l16.24,28.37h0Z"/>
        </g>
        <g>
          <path class="cls-14" d="m1089.29,1009.85c97.36,0,410.09-6.1,509.22,177.58,50.99,111.15-5.62,259.65-163.13,270.18-144.84,9.68-269.94-55.81-346.09-219.55h0c-76.16,163.74-201.25,229.23-346.09,219.55-157.51-10.53-214.12-159.03-163.13-270.18,99.12-183.67,411.86-177.58,509.22-177.58h.01Z"/>
          <g class="cls-4">
            <path class="cls-2" d="m1616.11,1286.61c-1.8-23.15-7.65-46.23-17.58-67.87-99.15-183.68-411.89-177.59-509.24-177.59s-410.09-6.08-509.24,177.59c-9.94,21.64-15.78,44.71-17.58,67.87-2.62-33.4,3.19-67.79,17.58-99.19,99.15-183.68,411.89-177.55,509.24-177.55s410.09-6.13,509.24,177.55c14.39,31.4,20.2,65.79,17.58,99.19Z"/>
          </g>
          <path class="cls-16" d="m1052.21,1220.85c-60.75,130.62-155.48,196.85-281.55,196.85-8.09,0-16.41-.28-24.73-.84-70.11-4.69-105.35-40.09-122.57-68.96-24.86-41.69-27.38-96.09-6.66-142.27,29.45,277.72,389.42,96.35,435.52,15.23Z"/>
          <path class="cls-16" d="m1126.16,1220.85c60.75,130.62,155.48,196.85,281.55,196.85,8.09,0,16.41-.28,24.73-.84,70.11-4.69,105.35-40.09,122.57-68.96,24.86-41.69,27.38-96.09,6.66-142.27-29.45,277.72-389.42,96.35-435.52,15.23Z"/>
          <path class="cls-3" d="m1407.51,1474.9c-138.1,0-247.21-68.71-318.22-200.37-71.02,131.66-180.15,200.36-318.23,200.37-9.52,0-19.16-.33-28.96-.98-74.09-4.95-133.75-39.36-167.99-96.87-34.5-57.94-37.91-133.21-8.91-196.44l.47-.95c100.86-186.88,401.42-186.28,514.52-186.17h9.08v32.7h-9.14c-107.71-.18-393.6-.69-485.44,168.53-24.35,53.5-21.49,116.9,7.5,165.61,28.58,48,79.04,76.76,142.08,80.97,147.53,9.87,261.66-62.81,330.19-210.14l14.82-31.86,14.82,31.86c68.53,147.33,182.65,219.99,330.19,210.14,63.04-4.21,113.5-32.97,142.08-80.97,28.99-48.7,31.86-112.11,7.5-165.61-91.85-169.22-377.89-168.62-485.44-168.54h-9.14s0-32.68,0-32.68h9.08c113.33-.08,413.67-.72,514.52,186.16l.47.95c29,63.22,25.59,138.49-8.91,196.44-34.24,57.51-93.9,91.92-167.99,96.87-9.79.65-19.44.98-28.96.98Z"/>
          <g>
            <path class="cls-3" d="m1231.57,1026.47c-16.88,47.11-68.3,81.38-104.56,100.48-23.9,12.59-52.42,12.58-76.32-.03-36.25-19.13-87.64-53.44-104.48-100.57-19.24-54.01,116.86-62.77,142.7-62.76,25.85.01,161.94,8.87,142.65,62.87Z"/>
            <g class="cls-4">
              <path class="cls-2" d="m1148.06,991.16c-11.2,19.06-59.16,18.69-59.16,18.69,0,0-47.96.33-59.15-18.74-7.98-13.64,48.44-15.84,59.16-15.84,10.72,0,67.14,2.25,59.15,15.89Z"/>
            </g>
          </g>
          <g>
            <ellipse class="cls-3" cx="710.03" cy="1313" rx="18.59" ry="18.62" transform="translate(-603.97 2021.17) rotate(-89.92)"/>
            <ellipse class="cls-3" cx="642.94" cy="1279.99" rx="18.62" ry="18.59"/>
            <ellipse class="cls-3" cx="710.85" cy="1240.22" rx="18.62" ry="18.59"/>
          </g>
        </g>
        <g>
          <ellipse class="cls-3" cx="1468.55" cy="1313" rx="18.62" ry="18.59" transform="translate(-1.83 2.05) rotate(-.08)"/>
          <ellipse class="cls-3" cx="1535.63" cy="1279.99" rx="18.62" ry="18.59"/>
          <ellipse class="cls-3" cx="1467.72" cy="1240.22" rx="18.62" ry="18.59"/>
        </g>
        <path class="cls-3" d="m1661.73,852.34c-105.58-35.25-195.64,4.98-261.48,89.31-8.51,10.85-16.23,22.35-23.18,34.18l-31.33-32.1c93.14-45.1,192.34-29.53,273.72,31.54-43.23-12.39-87.41-23.25-131.8-22.24-42.99.5-83.28,12.99-121.07,33.02-11.42,6.02-25.55,1.64-31.57-9.78-3.85-7.29-3.41-15.54.24-22.32,14.6-30.2,35.32-56.17,59.4-78.5,73.41-69.42,185.92-91.05,267.07-23.12h0Z"/>
        <polygon class="cls-3" points="1072.94 1238.06 1081.11 1109.5 1097.45 1109.5 1105.63 1238.06 1072.94 1238.06 1072.94 1238.06"/>
      </g>
    </g>
  </g>
</svg>